<?xml version="1.0" encoding="UTF-8"?>
<svg id="Layer_1" data-name="Layer 1" xmlns="http://www.w3.org/2000/svg" viewBox="0 0 1811.37 45.45">
  <defs>
    <style>
      .cls-1 {
        stroke-width: 0px;
      }
    </style>
  </defs>
  <path class="cls-1" d="M1751.86,11.83c1.2-1.84,2.37-3.57,5.2-3.3,1.99.18,3.8.47,4.89,2.19.67,1.07,1.58,2.23.14,3.2-1.58,1.07-2-.48-2.73-1.26-1.78-1.91-2.65-1.59-4.03.59-1.55,2.42-.92,4.93-.88,7.35.05,3.26-1.16,5.46-4.34,7.14-.99.52-1.87.68-2.67.6-1.5-.15-2.5-1.14-3.05-1.63-4.11-3.71-10.39-4.59-12.61-4.89-1.2-.17-2.2-.21-2.89-.22-.07-.47-.13-.95-.2-1.42,1.25,0,2.24-.06,2.81-.1,1.56-.11,11.2-.84,14.19-1.28.22-.03.85-.1,1.17.22.13.13.16.38.14.88-.03.92.85,2.07,2.27,1.47,1.16-.49,1.63-1.32.09-2.19-.6-.33-.49-1.11.1-1.58.31-.24,1.05-.55,1.15-.45.43.41.88.92.99,1.45.62,2.86-1.12,4.17-4.5,4.44,2.34.98,3.18.88,4.31-.24,2.18-2.17,1.5-5.14-.47-7.71-1.64-2.15-1.32-5.09-.1-7.54,1.13-2.26,3.36-3.53,6.27-3.39,3.94.2,8.29,1.97,8.64,6.94-2.2-3.68-4.76-6.6-10.19-5.15-3.35.89-4.19,2.94-3.71,5.88Z"/>
  <path class="cls-1" d="M1772.01,16.79c.56-1.33.97-2.76,1.72-3.98,1.17-1.9,3.75-1.58,5.55.61.93,1.13,1.52,2.61,3.16,3.08,1.1-.78-.57-2.42,1.02-3.05,1.17-.47,2.3-.26,3.18.29,3.79,2.34,7.93,1.58,11.99,1.61.7,0,1.4-.09,2.1-.14.91-.06,1.84.27,1.74,1.18-.15,1.39-1.13.35-1.79.4-2.39.2-4.77.52-7.13.94-1.61.28-3.2.45-4.76.01-.62-.17-2.2.14-1.26-1.62.3-.56-.87-.93-1.51-1.14-.57-.19-.73.17-1,.7-1.47,2.9-4.43,3.07-6.22.43-.34-.5-.55-1.08-.9-1.56-1.18-1.61-2.25-1.84-3.33.17-.49.91-1.3,1.66-1.96,2.48-.2-.13-.41-.27-.61-.4Z"/>
  <path class="cls-1" d="M1785.89,17.83c.74,3.3-.29,4.53-2.76,3.71-1.3-.43-1.8-.79-2.04,1.01-.2,1.5-2.42,1.53-2.85,3.12-.8-.42.58-2.82-1.95-1.4-2.12,1.19-3.4-1.03-4.31-3.56,1.7.72,1.93,2.87,4.14,2.48-1.37-1.14-2.55-2.21-1.81-3.94.7-1.64,2.98-2.29,4.6-1.08.88.66,1.82,1.17,2.75,1.73,2.6,1.58,3.07,1.41,4.22-2.07ZM1776,19.54c1.16.29,2.3.45,1.63,2.17-.51,1.31.35,1.24,1.2,1.22.88-.02,1.5-.63,1.11-1.28-.85-1.41-1.79-3.02-3.95-2.11Z"/>
  <path class="cls-1" d="M1767.59,21.84c.65,1.88,1.25,3.26,1.61,4.71.86,3.44,3.98,4.44,6.58,5.24,2.66.81,3.01-2.23,3.81-4.09.36-.85-.47-2.02.68-2.71.97,2.58.3,5.5-1.69,7.24-1.82,1.58-3.41.58-5.21-.32-4.47-2.24-6.11-4.75-5.77-10.07Z"/>
  <path class="cls-1" d="M1750.69,26.18c2.31,1.93,4.61,2.31,7.04.62.39-.27,1.01-.13,1.31.36.32.53-.13.92-.39,1.32-.99,1.46-2.44,2.18-4.1,1.81-1.96-.43-3.51-1.53-3.85-4.12Z"/>
  <path class="cls-1" d="M1761.25,17.4c1.05-2.42,5.46-.71,5.35-5.06.74,1.28,1.24,2.07,1.66,2.9.24.48-.01,1.37-.27,1.3-2.38-.63-4.27,2.47-6.73.85Z"/>
  <path class="cls-1" d="M1762.1,18.74c2.13,3.44.52,5.6-2.81,7.74,1.05-2.89,1.92-5.29,2.81-7.74Z"/>
  <path class="cls-1" d="M1803.68,15.58c2.56-.57,5.07-.49,7.69.49-2.84,2.05-5.22.11-7.69-.49Z"/>
  <path class="cls-1" d="M1771.25,16.66c-.86-.37-1.23-1.11-1.27-1.86-.08-1.2-.69-3.28.59-3.35,1.67-.09.13,1.71.45,2.66.26.77.68,1.64.23,2.55Z"/>
  <path class="cls-1" d="M72.33,18.27v1.77c-.06,0-.12,0-.18-.02l.18-1.75Z"/>
  <path class="cls-1" d="M7.69,16c-2.56-.57-5.07-.49-7.69.49,2.84,2.05,5.22.11,7.69-.49Z"/>
  <g>
    <path class="cls-1" d="M74.16,18.18c0,.47,0,.95,0,1.42-.43.08-.97.19-1.58.36,0,0-.66.18-1.35.41-5.37,1.8-8.05,2.69-10.07,4.64-.7.67-1.44,1.54-2.63,1.65-.64.06-1.35-.11-2.13-.61-2.66-1.68-3.66-3.88-3.62-7.15.03-2.42.56-4.92-.74-7.35-1.15-2.18-1.88-2.5-3.36-.58-.61.78-.95,2.32-2.27,1.26-1.2-.98-.44-2.14.12-3.21.91-1.72,2.42-2.01,4.08-2.19,2.35-.27,3.33,1.46,4.33,3.31.4-2.94-.3-5-3.09-5.89-4.52-1.45-6.67,1.47-8.5,5.15.29-4.97,3.92-6.74,7.21-6.93,2.41-.14,4.28,1.12,5.22,3.38,1.02,2.45,1.28,5.4-.09,7.55-1.63,2.57-2.21,5.54-.38,7.7.94,1.13,1.64,1.22,3.58.25-2.81-.28-4.26-1.58-3.74-4.44.09-.53.46-1.05.83-1.46.07-.09.69.21.95.46.49.46.58,1.24.09,1.58-1.29.86-.9,1.7.07,2.19,1.19.6,1.92-.56,1.89-1.47-.02-.54.01-.79.14-.91.28-.27.77-.21.96-.19,2.49.35,9.4,1,12.5,1.08.34,0,.89.02,1.58,0Z"/>
    <path class="cls-1" d="M41.35,17.21c-.56-1.33-.97-2.76-1.72-3.98-1.17-1.9-3.75-1.58-5.55.61-.93,1.13-1.52,2.61-3.16,3.08-1.1-.78.57-2.42-1.02-3.05-1.17-.47-2.3-.26-3.18.29-3.79,2.34-7.93,1.58-11.99,1.61-.7,0-1.4-.09-2.1-.14-.91-.06-1.84.27-1.74,1.18.15,1.39,1.13.35,1.79.4,2.39.2,4.77.52,7.13.94,1.61.28,3.2.45,4.76.01.62-.17,2.2.14,1.26-1.62-.3-.56.87-.93,1.51-1.14.57-.19.73.17,1,.7,1.47,2.9,4.43,3.07,6.22.43.34-.5.55-1.08.9-1.56,1.18-1.61,2.25-1.84,3.33.17.49.91,1.3,1.66,1.96,2.48.2-.13.41-.27.61-.4Z"/>
    <path class="cls-1" d="M37.24,23.6c1.37-1.13,2.54-2.21,1.8-3.93-.7-1.65-2.97-2.29-4.6-1.09-.88.66-1.82,1.17-2.75,1.74-2.6,1.58-3.06,1.4-4.22-2.07-.73,3.3.3,4.53,2.77,3.71,1.3-.43,1.8-.79,2.04,1.01.19,1.5,2.41,1.53,2.84,3.12.8-.42-.58-2.82,1.95-1.41,2.12,1.19,3.4-1.02,4.31-3.56-1.7.73-1.93,2.87-4.14,2.48ZM35.73,22.13c.51,1.32-.35,1.24-1.2,1.22-.88-.02-1.51-.63-1.11-1.28.84-1.41,1.79-3.03,3.94-2.11-1.16.29-2.3.45-1.63,2.17Z"/>
    <path class="cls-1" d="M45.78,22.26c-.65,1.88-1.25,3.26-1.61,4.71-.86,3.44-3.98,4.44-6.58,5.24-2.66.81-3.01-2.23-3.81-4.09-.36-.85.47-2.02-.68-2.71-.97,2.58-.3,5.5,1.69,7.24,1.82,1.58,3.41.58,5.21-.32,4.47-2.24,6.11-4.75,5.77-10.07Z"/>
    <path class="cls-1" d="M62.68,26.59c-2.31,1.93-4.61,2.31-7.04.62-.39-.27-1.01-.13-1.31.36-.32.53.13.92.39,1.32.99,1.46,2.44,2.18,4.1,1.81,1.96-.43,3.51-1.53,3.85-4.12Z"/>
    <path class="cls-1" d="M52.12,17.82c-1.05-2.42-5.46-.71-5.35-5.06-.74,1.28-1.24,2.07-1.66,2.9-.24.48.01,1.37.27,1.3,2.38-.63,4.27,2.47,6.73.85Z"/>
    <path class="cls-1" d="M51.27,19.16c-2.13,3.44-.52,5.6,2.81,7.74-1.05-2.89-1.92-5.29-2.81-7.74Z"/>
    <path class="cls-1" d="M42.12,17.08c.86-.37,1.23-1.11,1.27-1.86.08-1.2.69-3.28-.59-3.35-1.67-.09-.13,1.71-.45,2.66-.26.77-.68,1.64-.23,2.55Z"/>
  </g>
  <path class="cls-1" d="M903.3,20.29c.51,0,.99.1,1.42.37.66.42,1,1.04,1.09,1.8.05.42.06.84-.07,1.25-.19.58-.57,1-1.1,1.27-.55.28-1.13.4-1.75.34-.55-.05-.99-.33-1.38-.71-.46-.47-.79-1.01-.79-1.68-.01-.96.26-1.8,1.15-2.32.39-.23.82-.31,1.26-.33.06,0,.11,0,.17,0Z"/>
  <path class="cls-1" d="M900.49,30.82c.13.02.25.01.36.05.14.04.2.14.17.27-.02.09-.07.12-.15.09-.01,0-.02,0-.03-.01-.29-.12-.41-.08-.59.18.1.04.2.01.3,0,.32-.01.47.2.34.5-.01.03-.03.06-.04.09-.2.32-.17.64-.02.97.04.07.07.15.06.24,0,.08-.02.15-.11.18-.09.02-.16,0-.22-.08-.06-.08-.08-.17-.08-.27,0-.1,0-.2-.03-.3-.06-.19-.19-.3-.37-.35-.11-.04-.21,0-.29.09-.21.2-.23.51-.06.76.01-.08.07-.14.12-.2.1-.11.1-.17,0-.28-.04-.05-.04-.08,0-.12.08-.07.24-.08.33-.02.04.03.07.07.06.12-.02.13,0,.27.03.4.06.24,0,.47-.06.7-.01.04-.02.09-.03.13-.06.14-.2.16-.29.04-.05-.06-.09-.13-.14-.19-.03-.03-.06-.05-.09,0-.21.43-.54.75-.95,1,0,0,0,.01-.01.02.3.01.6-.15.75-.39.09-.15.32-.16.42,0,.02.04.02.08-.02.11-.18.14-.28.34-.41.51-.15.18-.31.35-.47.52-.49.53-.75,1.16-.83,1.87-.09.79-.03,1.56.31,2.29.34.74.82,1.38,1.55,1.78.5.27,1.04.4,1.59.51.14.03.29.05.43.07.14.02.19.09.18.23-.01.11-.1.16-.24.14-.42-.06-.84-.15-1.25-.28-.65-.2-1.24-.49-1.74-.95-.45-.42-.75-.94-.97-1.52-.48-1.27-.43-2.51.18-3.72.07-.14.16-.28.18-.45-.06.03-.09.08-.11.12-.49.66-.74,1.41-.75,2.23-.02,1.67.62,3.02,2.03,3.95.64.42,1.37.62,2.13.71.11.01.22.03.33.06.12.03.17.11.15.23-.04.28-.16.39-.44.34-.99-.17-1.95-.43-2.78-1.01-.92-.63-1.62-1.46-2.03-2.51-.07-.17-.06-.32.06-.47.28-.38.34-.81.32-1.27-.01-.29-.06-.58-.1-.86-.09-.68.14-1.24.6-1.73.12-.13.25-.25.39-.35.01-.01.03-.02.04-.04.03-.03.05-.06.04-.1-.01-.04-.06-.03-.09-.03-.21,0-.42,0-.63-.04-.29-.05-.42-.2-.43-.5,0-.08,0-.16,0-.23-.02-.18.06-.31.21-.4.12-.07.23-.14.35-.21.08-.05.17-.04.25,0,.1.05.13.14.06.24-.04.07-.1.14-.12.22-.02.08,0,.14.06.19.12.09.26.1.39.05.12-.04.17-.14.17-.26.01-.2.03-.39,0-.59-.02-.12-.06-.24-.13-.34-.14-.22-.17-.46-.06-.7.09-.22.11-.44.08-.67-.04-.34.05-.65.29-.9.2-.21.44-.23.69-.08.08.05.15.09.22.14.14.1.26.22.31.4,0,.02,0,.05.03.05.02,0,.04-.03.05-.04.02-.05,0-.1-.02-.15-.17-.26-.16-.4.07-.63.08-.08.16-.15.22-.25.05-.07.11-.09.19-.06.23.09.46.18.7.27.12.05.14.09.08.21,0,0,0,0,0,.01-.09.23-.11.24-.34.13-.16-.08-.24-.05-.33.11ZM898.68,32.66c0,.08,0,.16,0,.23.01.11.05.21.16.24.12.04.22-.02.3-.1.05-.05.08-.11.1-.18.04-.21-.03-.4-.13-.58-.04-.08-.11-.13-.21-.12-.11.02-.16.08-.19.18-.04.11-.03.22-.03.33Z"/>
  <path class="cls-1" d="M911.33,25.56c0-.12,0-.22,0-.32,0-.06,0-.13.02-.19.01-.08.06-.13.13-.15.06-.02.12-.01.16.04.04.05,0,.1-.02.14-.12.18-.1.34.05.48.03.03.05.07.1.04.05-.02.06-.06.05-.11,0-.09,0-.19,0-.28,0-.26.23-.39.46-.27.07.04.14.09.19.15.25.31.58.31.92.21.12-.03.23-.07.36-.09.07,0,.15,0,.22.04.1.06.11.14.04.23-.05.06-.11.11-.15.18-.05.08-.03.15.05.19.11.06.24.06.36.07.13,0,.26.03.36.12.03.03.06.05.08.1-.16.04-.31.07-.47.11.19.06.31.2.44.33.12.12.24.22.41.26.06.01.1.07.11.13.02.08.04.17.06.25.03.12.08.21.2.26.06.02.08.08.11.12.04.07.08.08.13,0,.11-.17.11-.16.29-.06.09.05.16.13.24.18.05.04.13.1.18.04.04-.04-.03-.11-.06-.16-.06-.07-.13-.12-.21-.16-.29-.12-.52-.32-.72-.55-.08-.09-.16-.17-.25-.26-.1-.1-.11-.15-.05-.21.07-.07.12-.06.22.03.54.53,1.16.94,1.87,1.2.88.32,1.78.43,2.7.18,1.17-.31,1.94-1.07,2.41-2.17.16-.38.28-.76.25-1.18,0-.05,0-.1.01-.14.02-.18.13-.25.31-.21.08.02.12.06.12.15-.03.38-.05.77-.17,1.14-.49,1.54-1.53,2.46-3.12,2.75-.52.1-1.04.05-1.56-.01-.5-.06-.99-.17-1.46-.38-.07-.03-.15-.06-.25-.02.05.04.09.07.13.1.4.29.86.42,1.34.48.58.07,1.16.09,1.74.01,1.38-.19,2.93-1.2,3.34-3.03.08-.34.14-.68.12-1.02,0-.13.05-.17.17-.15.07.01.14.03.2.06.22.07.28.16.23.39-.09.38-.17.77-.27,1.15-.17.63-.4,1.24-.8,1.76-.59.78-1.32,1.38-2.25,1.73-.19.07-.34.06-.49-.09-.35-.34-.78-.42-1.25-.4-.29.01-.57.08-.86.11-.75.09-1.41-.08-1.92-.68-.07-.08-.15-.14-.2-.23-.03-.06-.08-.1-.15-.08-.07.02-.11.08-.11.15,0,.09,0,.17-.03.25-.14.59-.88.84-1.33.43-.12-.11-.16-.23-.11-.34.05-.1.12-.13.23-.1.08.03.15.09.22.13.13.08.22.06.29-.08.09-.16.08-.3-.05-.44-.17-.2-.39-.23-.63-.21-.26.03-.53.03-.79.1-.14.03-.28,0-.38-.12-.07-.07-.14-.07-.21-.02-.2.15-.4.14-.62.07-.19-.06-.36-.15-.57-.15-.06,0-.09-.05-.1-.1,0-.1-.04-.2-.06-.29-.04-.18-.07-.37-.27-.49.22-.11.44.02.66-.07-.06-.04-.11-.06-.15-.09-.24-.15-.46-.32-.68-.5-.2-.16-.27-.37-.18-.62.07-.18.11-.36.11-.55,0-.09.04-.11.13-.1.17.03.24.09.26.27,0,.11,0,.22.02.33,0,.09.05.17.16.21ZM913.47,25.9c-.27-.19-.64-.11-.79.16-.09.17-.07.34.06.48.2.2.41.22.65.06.06-.04.08-.09.03-.15-.05-.06-.11-.11-.17-.15-.03-.02-.07-.08-.11-.03-.05.04,0,.08.01.12.04.09.02.12-.08.13-.12.01-.21-.06-.24-.19-.04-.15,0-.23.12-.28.17-.07.34-.09.53-.14ZM912.57,26.9c.07.13.15.23.24.33.18.22.34.23.54.02.07-.07.13-.14.1-.25-.03-.11-.12-.15-.22-.17-.22-.04-.43.02-.66.05Z"/>
  <path class="cls-1" d="M908.16,41.15c-.12.02-.22.09-.32.15-.06.03-.12.06-.17.11-.58.5-1.29.69-2.02.81-.21.03-.41.07-.61.11-.04,0-.09,0-.13,0-.1,0-.13-.07-.14-.15,0-.08.06-.09.12-.1.53-.1,1.05-.21,1.57-.37,1.63-.51,2.41-2.11,2.31-3.42-.04-.51-.2-.99-.39-1.46-.21-.54-.51-1.03-.89-1.47-.23-.26-.41-.56-.59-.86-.1-.17-.07-.24.13-.29.11-.03.22-.05.32-.07,0-.03-.01-.04-.03-.06-.22-.3-.23-.63-.08-.96.09-.19.14-.38.08-.59-.03-.12-.09-.21-.19-.28-.27-.19-.53-.08-.59.24-.02.13-.03.26-.07.38-.05.14-.16.21-.31.21-.09,0-.15-.05-.13-.14.07-.28-.06-.51-.19-.74-.06-.11-.12-.23-.14-.36-.03-.19.05-.33.24-.42.18-.09.34-.06.46.08.11.13.16.29.21.45.13-.2.07-.47-.04-.6-.24-.29-.54-.34-.94-.17-.03-.21.06-.33.26-.35.08,0,.17-.02.25-.03.07-.01.07-.04.02-.09-.13-.13-.29-.16-.46-.11-.05.01-.11.04-.16.03-.08,0-.13-.05-.15-.13-.02-.08.02-.13.09-.16.23-.07.46-.18.7-.22.38-.07.78.15.87.49.04.15.04.15.18.09.08-.04.17-.08.25-.12.46-.25,1.11.06,1.2.58.03.19-.02.36-.11.52-.12.2-.16.41-.1.64.07.31-.03.58-.18.84-.08.14-.17.28-.15.45.03.22.11.42.26.58.13.14.3.17.43.09.11-.07.13-.17.06-.29-.04-.06-.08-.11-.12-.18-.05-.08-.05-.17.02-.25.06-.08.14-.12.25-.1.03,0,.06.01.08.03.15.1.31.17.47.23.1.04.14.12.13.22-.03.29-.13.54-.36.73-.12.09-.25.15-.4.14-.15,0-.29.04-.41.14-.22.17-.41.14-.57-.09-.03-.05-.06-.09-.11-.13-.06-.04-.11-.04-.16,0-.06.05-.04.11,0,.15.22.21.33.48.48.73.1.16.21.32.41.43-.11-.32-.31-.55-.47-.82.54-.19,1.12.04,1.39.56.27.53.35,1.09.2,1.66-.17.63-.08,1.22.3,1.75.13.19.15.36.06.57-.58,1.43-1.62,2.36-3.06,2.86-.58.2-1.16.35-1.75.5-.19.05-.3,0-.37-.18-.15-.35-.1-.42.27-.48.64-.1,1.27-.23,1.87-.49.29-.13.58-.28.82-.49.12-.11.23-.23.3-.38.06.02.1-.02.14-.06.63-.64.95-1.42,1-2.31.04-.8-.15-1.55-.5-2.27-.01-.02-.01-.06-.05-.06,0,.02,0,.03,0,.05.09.53.18,1.06.28,1.59.08.45.09.91-.01,1.36-.1.44-.3.83-.58,1.18-.13.16-.23.33-.27.53ZM907.71,32.05c-.1.19-.19.36-.27.53-.05.1-.02.2.03.29.06.1.12.19.19.29.03.05.08.06.13.03.14-.07.26-.34.22-.49-.06-.23-.19-.42-.3-.65ZM908.32,31.46c0-.17-.19-.43-.34-.46-.08-.02-.16,0-.21.06-.06.07-.09.14-.06.24.02.07.06.13.11.18.02.02.03.08.08.05.04-.03.05-.06.04-.11-.01-.04-.03-.07-.04-.1-.01-.04,0-.07.04-.09.09-.03.17.01.2.1.01.04.01.09.03.13.02.06.02.17.08.16.06,0,.07-.11.08-.16Z"/>
  <path class="cls-1" d="M918.76,16.52c.19.09.37.07.53-.02.09-.05.18-.11.27-.17.25-.17.51-.18.78-.05,1.66.76,2.67,2.05,3.09,3.82.06.24.1.49.14.73,0,.07.04.13.07.19.08.17.04.25-.13.31-.34.12-.45.04-.5-.31-.13-.88-.38-1.71-.94-2.42-.78-1-1.8-1.57-3.09-1.58-.76,0-1.47.24-2.13.61-.48.27-.92.59-1.35.93-.03.02-.05.04-.09.06.07-.19.1-.38.1-.58,0-.1,0-.21,0-.31.01-.28.09-.53.33-.7-.09-.05-.1-.05-.24.03-.13.08-.25.05-.31-.08-.05-.09-.03-.14.07-.16.19-.06.36-.16.5-.29.24-.23.2-.59-.08-.78-.05-.04-.11-.06-.18-.04-.13.04-.16.12-.08.24.06.09.13.16.14.27.01.18-.09.29-.23.37-.13.08-.27.08-.4-.01-.32-.22-.41-.66-.19-.99.04-.06.08-.12.12-.17.17-.21.37-.29.64-.21.51.15,1.02.11,1.51-.05.49-.16.96-.09,1.42.11.28.13.56.25.86.31.15.03.29.05.44.03.1,0,.09.03.06.1-.09.19-.22.33-.4.44-.17.11-.37.18-.55.27-.06.03-.12.06-.2.1ZM916.2,16.74c.55-.24,1.13-.27,1.72-.27-.62-.18-1.19-.1-1.72.27Z"/>
  <path class="cls-1" d="M912.99,19.86c-.03-.07-.08-.11-.12-.17-.09-.12-.17-.24-.09-.38.1-.16.24-.26.44-.25.09,0,.18.03.27.07.43.2.87.17,1.3,0,.54-.22,1.03-.55,1.5-.89.18-.13.36-.27.54-.4,1.16-.82,2.39-.89,3.66-.32.79.35,1.33.98,1.76,1.71.34.58.55,1.21.62,1.88.02.22-.06.33-.23.33-.11,0-.15-.04-.16-.15-.1-1.1-.5-2.07-1.28-2.85-.49-.48-1.06-.83-1.74-.95-.63-.11-1.23,0-1.81.26-.61.27-1.14.66-1.67,1.06-.19.14-.37.28-.56.42-.4.29-.84.46-1.34.47-.06,0-.12.01-.18.03-.16.05-.2.17-.11.31.05.07.11.13.18.18.07.05.14.09.21.14-.11.14-.31.19-.5.14-.07-.02-.14-.05-.21-.08-.29-.14-.57-.12-.85.04-.11.07-.22.14-.35.17-.19.06-.31,0-.37-.19-.02-.07-.04-.15-.04-.23,0-.09-.04-.09-.1-.05-.12.08-.16.13-.12.28.03.12.06.24.09.37-.34-.09-.44-.29-.34-.68-.1.07-.13.17-.15.28-.02.11-.03.23-.05.34-.03.16-.16.26-.32.26-.04,0-.06,0-.08-.05-.08-.28-.21-.54-.25-.83-.03-.17.02-.32.12-.46.11-.15.26-.28.41-.4.07-.06.05-.08-.02-.11-.07-.03-.15-.05-.22-.08-.09-.03-.17-.09-.16-.18.01-.07.12-.07.19-.09.12-.02.22.03.29.12.02.02.04.05.05.07.1.18.25.29.46.26.23-.03.43-.14.53-.36.09-.18,0-.34-.12-.52-.01.14-.02.26-.03.37-.02.21-.11.3-.34.35-.23.05-.31.01-.43-.17-.06-.1-.14-.2-.2-.31-.08-.13-.08-.26.02-.39.08-.11.14-.23.22-.33.13-.18.31-.28.52-.21.44.14.9.11,1.35.13.22,0,.43.04.63.14.2.1.39.08.59-.02.15-.07.28-.17.39-.29.08-.08.12-.17.07-.28-.06-.13-.15-.24-.31-.24-.13,0-.23.06-.28.18,0,0,0,.01,0,.02-.06.15-.11.18-.22.13-.12-.06-.17-.19-.11-.3.06-.1.1-.2.14-.31.05-.13.14-.18.28-.18.27,0,.5.11.67.32.37.44.39,1.16.06,1.62-.34.47-1.04.62-1.56.33-.35-.19-.7-.12-.89.18-.02.03-.04.07-.06.11-.15.37-.02.6.38.65ZM913.1,18.66s0,0,0,0c.06,0,.11,0,.17,0,.11,0,.18-.06.21-.17.03-.13,0-.25-.08-.3-.21-.14-.58,0-.64.25-.03.11,0,.17.11.19.08.02.15.02.23.03ZM912.26,18.13c-.35-.1-.58,0-.71.27-.02.03-.03.07-.02.11,0,.09.1.16.19.14.13-.02.04-.1.03-.14-.03-.16,0-.21.16-.25.04,0,.08,0,.12-.02.08-.02.17-.03.23-.11Z"/>
  <path class="cls-1" d="M892.27,26.38c.21-.06.4,0,.58.11.1.06.2.12.3.18.08.04.07.09,0,.13-.06.04-.12.07-.18.11-.12.07-.13.14-.06.26.1.15.26.21.45.15.15-.04.29-.11.45-.13.05,0,.1-.03.11-.08,0-.04-.05-.06-.08-.08-.1-.07-.22-.1-.31-.19-.09-.09-.08-.1.02-.17.2-.13.26-.27.21-.47-.05-.18-.19-.27-.36-.27-.27,0-.47-.11-.63-.32-.08-.1-.19-.19-.31-.25.14-.14.29-.15.46-.11.21.05.42.1.64.05.1-.03.2-.06.29-.11.11-.05.21-.1.33-.13.2-.04.33.03.38.22.02.07.03.15.03.22,0,.08.04.08.09.04.09-.05.12-.12.1-.22-.02-.08-.04-.16-.06-.24-.02-.07.01-.09.08-.07.12.02.19.09.22.21.02.08.03.16.04.24,0,.05.03.06.08.04.07-.03.11-.07.12-.15,0-.04,0-.09,0-.13-.01-.17.04-.26.2-.32.05-.02.11-.04.16-.05.14-.04.19-.01.22.13.05.23.11.46.22.68.03.07.13.12.1.19-.02.05-.13.07-.19.1-.09.04-.16.11-.21.2-.1.18-.23.24-.42.14-.37-.19-.68.02-.94.35-.09.11-.04.3.09.45.12.13.22.15.38.08.09-.04.17-.08.25.03.04.06.09,0,.1-.05.03-.07.01-.14-.04-.2-.06-.06-.13-.08-.2-.05-.05.02-.1.05-.15.08-.09.04-.17.07-.25-.02-.07-.09-.08-.19-.02-.29.19-.27.55-.32.8-.11.14.12.27.25.31.44.06.26-.05.52-.29.68-.32.21-.67.26-1.03.1-.15-.07-.3-.08-.45-.04-.22.06-.44.04-.65-.06-.05-.02-.09-.04-.14-.07-.45-.28-.77-.24-1.24.15-.07.06-.09.13-.06.22.04.11.08.22.04.35-.01.04.03.08.06.09.1.04.2.07.3.07.08,0,.14-.04.17-.12.01-.03.02-.06.03-.08.02-.09.05-.17.15-.16.1,0,.17.06.19.17.08.33-.17.62-.54.64-.13,0-.27,0-.4-.05-.32-.09-.53-.32-.54-.67-.01-.64.12-1.24.71-1.62.04-.02.07-.05.11-.08q.13-.1.03-.23c-.19-.25-.28-.25-.41.03-.09.21-.23.32-.44.4-.4.15-.72.44-1.05.71-.32.27-.62.55-.99.73-1,.51-2.01.49-3,.01-1.37-.66-2.11-1.79-2.35-3.27-.03-.18-.04-.37-.06-.55-.01-.12.02-.17.12-.19.09-.02.16.02.18.13.07.31.14.62.23.93.17.56.37,1.11.73,1.58,1.18,1.55,3.37,1.76,4.83.47.34-.31.68-.63,1.07-.87.46-.29.97-.45,1.49-.55.3-.06.56.08.79.27.07.06.06.14.02.21-.05.08-.11.06-.18.04-.19-.06-.38-.12-.59-.09-.08.01-.16.04-.21.11Z"/>
  <path class="cls-1" d="M892.61,20.42c.08-.11.16-.2.21-.31.07-.15.03-.25-.13-.3-.11-.03-.22-.05-.33-.07-.19-.04-.34-.13-.4-.33-.01-.04-.04-.05-.07-.06-.44-.09-.8-.34-1.15-.62-.32-.25-.61-.53-.97-.73-.68-.37-1.4-.51-2.17-.46-.71.04-1.38.23-2,.6-.59.35-.95.87-1.21,1.48-.21.51-.32,1.05-.37,1.6,0,.05,0,.1,0,.14,0,.07,0,.15-.07.18-.07.03-.15.03-.21-.01-.07-.04-.07-.12-.06-.19.08-.41.14-.83.24-1.25.15-.6.36-1.16.74-1.65.55-.71,1.29-1.11,2.16-1.25,1.03-.17,2.01-.03,2.95.42.55.27,1.04.62,1.48,1.04.11.1.23.18.34.26.14.1.26.21.32.38.01.04.04.05.07.03.19-.09.39-.1.6-.1.2,0,.4,0,.59-.07.02,0,.05,0,.06,0,.07.03.13.02.2-.02.06-.04.13-.03.16.04.03.07.06.18-.03.2-.2.04-.33.18-.49.28-.02.01-.05.02-.08.04.06.04.12.05.18.05.16.01.3-.03.44-.1.22-.12.29-.47.14-.67-.07-.09-.17-.11-.28-.11-.13,0-.26,0-.38.05-.33.11-.66.16-1.01.07-.51-.14-.78-.51-.94-.99-.04-.13-.07-.26-.09-.39-.02-.12,0-.24.06-.36.15-.29.37-.51.67-.64.24-.11.38-.07.57.12.07.07.13.15.17.25.03.07.04.14.01.22-.04.11-.1.13-.2.07-.05-.03-.1-.08-.15-.12-.09-.07-.18-.08-.28-.02-.11.06-.19.14-.17.28.03.21.09.41.22.58.13.18.31.22.52.19.11-.02.22-.05.32-.09.42-.2.86-.22,1.31-.16.22.03.45.05.67.1.26.06.35.18.36.45,0,.17-.01.33-.03.5-.01.16.02.21.16.26.47.14.64.63.52,1.08-.04.15-.1.3-.14.44-.02.06-.05.07-.11.05-.18-.06-.24-.13-.24-.33,0-.04,0-.09,0-.13,0-.06,0-.12-.04-.17-.03-.05-.08-.11-.14-.1-.05.01-.04.09-.04.14,0,.06,0,.12,0,.18,0,.06-.01.11-.05.16-.04.05-.1.1-.17.08-.05-.01-.04-.09-.04-.14-.01-.1,0-.21-.03-.31-.02-.08-.06-.15-.13-.21-.06-.05-.09-.03-.1.04,0,.03,0,.07.01.1.03.1.04.2.01.31-.04.16-.16.22-.31.17-.04-.01-.08-.03-.11-.05-.49-.3-1-.35-1.54-.15-.02,0-.03,0-.07.02ZM894.02,18.48c-.19-.18-.38-.3-.61-.34-.16-.02-.3-.02-.41.13-.09.13-.09.16.04.24.03.02.06.04.08.06.17.18.27.2.49.08.12-.07.24-.15.41-.17Z"/>
  <path class="cls-1" d="M917.09,23.09c-.28.16-.54.34-.83.49-.07.04-.13.06-.21.08-.1.02-.19,0-.26-.07-.32-.33-.73-.51-1.15-.68-.06-.02-.12-.05-.2-.08.17-.09.32-.16.47-.24.33-.16.66-.31.96-.52.12-.09.26-.08.39-.03.16.07.29.18.38.32.3.46.74.6,1.26.58.38-.01.76-.02,1.14-.02.72,0,1.43,0,2.15,0,.6,0,1.2-.02,1.8-.05.21-.01.41.04.59.13.48.23.87.56,1.06,1.07.05.14.02.19-.14.18-.1,0-.19-.04-.28-.07-.96-.29-1.94-.38-2.93-.36-1.58.03-3.13.28-4.64.74-.05.02-.11.03-.16.03-.17.02-.26-.04-.32-.2-.05-.14-.08-.28-.16-.41-.06-.1-.02-.17.09-.2.28-.06.5-.22.72-.38.11-.08.2-.18.25-.31Z"/>
  <path class="cls-1" d="M910.02,24.64c-.1.27-.18.52-.26.78-.05.17-.15.23-.32.21-.1-.01-.16-.07-.16-.16,0-.13-.04-.26-.07-.38-.05-.2,0-.37.17-.49.02-.01.03-.03.08-.07-.31.08-.48-.08-.62-.29-.07-.1-.15-.18-.29-.23.18-.04.33-.05.49-.1.09-.03.17-.06.25-.12.24-.16.31-.33.25-.62-.01-.07-.03-.13-.05-.2-.05.04-.06.09-.07.14-.09.4-.36.59-.76.63-.23.02-.45.01-.69-.03.08-.1.19-.13.29-.16.12-.03.25-.05.35-.13.06-.05.12-.1.15-.19-.18.07-.34.14-.52.17-.15.02-.3,0-.45-.04-.07-.02-.13-.04-.2-.06-.17-.04-.33-.1-.36-.3-.03-.22-.01-.43.19-.57.06-.04.14-.08.21-.11.07-.03.13-.06.2-.11-.07-.05-.14-.02-.2,0-.06.02-.11.06-.17.08-.07.03-.14.02-.22-.04.36-.28.71-.55,1.18-.61.32-.04.55.09.73.36.12.19.19.4.24.62,0,.03,0,.06.03.09.13-.16.16-.34.11-.52-.04-.19-.11-.37-.17-.55-.02-.06-.07-.07-.12-.08-.2-.03-.4-.06-.62-.1.13-.17.24-.34.43-.42.21-.1.38.03.54.15,0-.12-.04-.2-.14-.24-.27-.11-.36-.3-.3-.61.02-.11.04-.22.03-.33,0-.05.02-.08.07-.11.12-.06.36.04.38.18.03.23.14.43.24.64.09-.08.09-.18.1-.28,0-.22.03-.24.22-.12.15.09.22.23.27.38.14.44.23.89.29,1.35.1.77.07,1.54-.06,2.31-.05.28-.17.53-.43.68-.02.01-.05.04-.06.06-.03.04-.02.08,0,.11.03.04.06.04.1.02.04-.02.1-.07.13,0,.04.07-.04.09-.08.12-.04.04-.08.09-.11.14-.04.06-.09.12-.17.08-.08-.04-.12-.11-.11-.2.01-.09.06-.18.09-.26.06-.15.05-.3-.03-.47Z"/>
  <path class="cls-1" d="M905.78,11.9c.28.15.43.38.47.67.03.18.06.36.15.52.1.19.26.28.47.28.12,0,.21-.05.27-.15.19-.31.13-.73-.13-.99-.05.11-.03.21,0,.31.05.13.07.26.03.39-.05.15-.13.21-.3.21-.14,0-.25-.08-.26-.22-.02-.35-.08-.71-.02-1.07.02-.12.07-.23.12-.35.02-.05.06-.09.12-.08.07.01.1.05.11.12,0,.05-.01.09-.03.14-.06.18-.02.3.16.43-.05-.34.12-.58.28-.84.06-.09.12-.18.14-.29.02-.12.1-.18.2-.22.42-.16.85-.23,1.29-.05.11.05.22.11.33.16.3.15.37.41.36.72,0,.14-.08.24-.18.32-.11.1-.24.17-.35.28-.05.05-.11.03-.16,0-.07-.05-.11-.12-.07-.21.03-.07.08-.14.12-.21.1-.22,0-.4-.25-.41-.07,0-.14,0-.18.07-.14.24-.28.48-.22.78,0,.02,0,.04.02.06.2.45.18.91.11,1.38-.03.22-.07.45-.08.67-.01.21-.09.31-.3.37-.15.04-.29.07-.43.14-.09.04-.18.02-.25-.04-.14-.11-.25-.25-.38-.37-.08-.08-.06-.19-.03-.29.04-.12.1-.22.18-.32-.15.06-.3.12-.39.27-.06.09-.04.19,0,.29.03.08.08.15.13.22.09.13.09.27,0,.41-.07.11-.13.21-.2.32-.08.14-.21.18-.35.15-.24-.05-.48-.08-.71-.17-.2-.08-.24-.19-.14-.38.08-.13.1-.27.07-.42-.06-.4,0-.75.29-1.06.16-.17.17-.39.07-.6-.13-.29-.13-.6-.08-.92ZM907.55,12.43c-.05,0-.1.02-.14.06-.11.11-.13.32-.03.45.05.07.12.12.16.2.03.06.05.04.09.02.11-.08.19-.19.25-.32.05-.1.02-.19-.04-.27-.08-.09-.18-.12-.3-.14ZM907.83,13.63c-.05.07-.06.14-.07.21-.01.07-.01.14-.05.2-.03.07-.1.09-.16.1-.07,0-.08-.06-.1-.1-.02-.05-.03-.1-.08-.13-.08.14-.06.25.04.34.12.1.24.09.36-.01.19-.17.21-.38.06-.6Z"/>
  <path class="cls-1" d="M903.18,5.72c.03.51.04,1.15.02,1.78-.01.3-.02.61-.06.91-.03.22-.12.41-.29.56-.23.21-.43.44-.5.76-.02.11-.11.15-.21.09-.15-.09-.32-.13-.49-.17-.18-.04-.25-.15-.2-.34.11-.4.22-.8.3-1.21.22-1.02.33-2.06.38-3.1.03-.62.03-1.23-.03-1.85-.03-.38-.09-.75-.16-1.12-.01-.05-.02-.09-.02-.14-.02-.24.14-.35.36-.24.32.16.57.38.72.72.14.33.15.67.16,1.02.04.74.02,1.49.02,2.35Z"/>
  <path class="cls-1" d="M924.71,21.34c-.12.32-.31.6-.58.81-.34.26-.73.37-1.14.45-.37.07-.75.09-1.13.09-.93-.01-1.86.02-2.79.02-.41,0-.82,0-1.24.02-.36.01-.67-.09-.92-.37-.21-.23-.47-.39-.77-.47-.1-.03-.11-.07-.08-.15.01-.03.03-.07.05-.1.06-.08.08-.18.09-.28,0-.06,0-.12.02-.18.02-.12.09-.17.21-.18.12,0,.23.03.34.07.76.28,1.55.44,2.35.56.58.09,1.17.12,1.76.13.65,0,1.3-.07,1.94-.16.62-.09,1.23-.17,1.85-.27,0,0,.01,0,.03,0Z"/>
  <path class="cls-1" d="M900.69,11.81c.07.05.08.11.07.18-.02.5-.01,1,.13,1.49.03.11.07.23.11.34.04.1.02.19-.07.24-.15.1-.3.15-.48.08-.07-.03-.18-.08-.21,0-.03.08.06.15.14.19.17.09.35.06.52.01.07-.02.15-.08.19.04.04.12,0,.23-.11.26-.09.03-.18.02-.27.02-.08,0-.16,0-.24.03-.06.02-.08.04-.02.09.19.16.4.18.62.07.19-.1.3-.06.37.14.05.13.02.18-.11.22-.36.1-.72.19-1.08.31-.16.05-.27.01-.37-.11-.07-.08-.13-.16-.19-.25-.07-.12-.11-.23-.07-.38.07-.27.02-.55-.07-.81-.1-.29-.34-.39-.63-.29-.09.03-.18.06-.27.11-.17.11-.22.28-.15.5.06.19.23.3.42.28.18-.02.27-.19.18-.35-.02-.03-.04-.06-.07-.09-.08-.12-.08-.21.02-.28.1-.08.19-.07.28.05.16.21.12.44.09.67-.05.35-.65.63-.97.38-.3-.23-.41-.43-.31-.8.11-.41.09-.82.09-1.23,0-.3.04-.59.14-.87.12-.33-.02-.64-.32-.74-.21-.07-.37,0-.45.21-.02.07-.04.14-.06.2-.03.1-.1.15-.21.14-.12-.01-.18-.06-.19-.17,0-.11-.05-.2-.09-.3-.1-.23-.05-.41.14-.57.14-.12.3-.21.45-.33.1-.08.23-.05.35-.02.51.12.94.38,1.31.75.23.23.26.5.16.8-.04.11-.09.21-.14.31-.15.29-.08.56.1.82.07.1.18.14.3.14.11,0,.21-.02.3-.07.14-.06.17-.12.16-.27-.02-.19.04-.37.13-.53.12-.22.29-.4.4-.63ZM899.2,13.29c0-.32-.17-.57-.44-.65-.11-.03-.16-.01-.19.08-.11.31.05.65.36.76.19.07.28.01.28-.2Z"/>
  <path class="cls-1" d="M904.98,44.14c-.16-.02-.29-.06-.42-.13-.52-.3-.89-.71-1.03-1.31-.01-.06-.02-.13-.02-.19,0-1.81,0-3.62,0-5.43,0-.17.05-.3.2-.39.29-.19.47-.47.59-.79.01-.03.02-.06.03-.08.06-.16.11-.18.27-.09.12.07.25.1.39.14.19.05.24.14.17.32-.33.78-.51,1.6-.59,2.45-.04.43-.06.86-.07,1.29-.01.66-.01,1.33.03,1.99.05.7.16,1.38.4,2.04.02.06.04.12.06.2Z"/>
  <path class="cls-1" d="M903.41,5.76c0-.68,0-1.35,0-2.03,0-.36-.01-.73.06-1.09.1-.5.4-.85.87-1.05.02,0,.04-.02.06-.02.16-.05.24.01.22.18-.03.27-.07.53-.11.79-.08.61-.12,1.23-.14,1.84-.03.97.03,1.94.15,2.9.07.55.16,1.1.27,1.65.02.09.06.17.09.25.03.07.06.14.07.21.04.16-.01.27-.15.35-.13.08-.28.12-.43.12-.12,0-.2-.06-.26-.16-.07-.12-.13-.24-.19-.36-.1-.19-.23-.35-.4-.49-.1-.08-.11-.19-.11-.3,0-.93,0-1.86,0-2.8Z"/>
  <path class="cls-1" d="M886.45,22.93c.81,0,1.61,0,2.42,0,.31,0,.58.11.77.37.09.12.22.2.37.25.23.08.29.18.24.42-.02.1-.04.2-.07.29-.07.2-.17.26-.38.21-.33-.08-.66-.18-.99-.26-1.16-.28-2.33-.45-3.52-.38-1.1.06-2.21.15-3.28.46-.08.02-.08-.01-.07-.07.04-.46.28-.78.7-.96.56-.25,1.15-.35,1.77-.34.68.01,1.35,0,2.03,0Z"/>
  <path class="cls-1" d="M886.31,22.66c-.8,0-1.6.02-2.41,0-.5-.01-.98-.09-1.41-.38-.17-.11-.31-.25-.43-.4-.03-.04-.06-.08-.08-.12-.03-.06-.03-.13.01-.19.05-.06.11-.06.17-.04.16.05.33.07.5.09.61.09,1.23.14,1.85.16,1.79.05,3.55-.17,5.28-.61.07-.02.14-.04.22-.05.1-.02.17.02.19.12.03.19.12.35.21.51.09.16.04.23-.14.24-.3.01-.55.12-.72.39-.14.22-.36.28-.61.28-.52,0-1.04,0-1.56,0-.36,0-.72,0-1.08,0Z"/>
  <path class="cls-1" d="M901.94,44.2c.35-.93.46-1.9.5-2.88.04-1.19-.04-2.37-.26-3.54-.11-.57-.24-1.12-.5-1.65-.09-.19-.09-.19.1-.29.12-.06.23-.13.36-.18.22-.09.34-.03.39.2.04.18.14.32.22.48.02.03.04.05.07.07.34.21.48.53.49.92,0,.28-.02.55-.03.82-.02.98.06,1.96.04,2.94-.01.52,0,1.05-.08,1.57-.08.48-.27.91-.61,1.27-.18.19-.4.31-.68.27Z"/>
  <path class="cls-1" d="M897.05,21.43c.05.17.17.29.13.47.09-.01.15-.06.21-.1.14-.08.26-.17.41-.22.15-.06.29-.06.45-.03.26.05.51.14.75.27.23.13.28.28.14.5-.12.19-.12.38-.04.58.09.2.05.29-.15.38-.1.05-.21.08-.3.14-.02.01-.04.02-.04.05,0,.02.03.03.05.03.09.02.16-.03.23-.07.06-.04.13-.08.21-.05.06.02.09.05.03.11-.39.45-1.23.54-1.71.17-.21-.16-.26-.36-.2-.6.08-.37.02-.74-.04-1.13-.07.1-.09.2-.11.29-.09.44-.1.88,0,1.32.03.15.11.27.23.36.08.06.16.13.23.2.13.14.16.28.05.44-.13.19-.17.37-.15.6.01.2-.06.3-.2.32-.09.02-.17,0-.23-.08-.02-.03-.05-.06-.06-.09-.22-.57-.49-1.12-.55-1.74-.06-.63-.05-1.26.03-1.89.06-.46.17-.9.32-1.34.02-.06.03-.12.05-.18.04-.13.16-.16.26-.08.09.06.13.15.13.26,0,.13.03.24.08.35.09.17.13.37.26.53.08.1-.04.28-.2.3-.09.01-.18-.02-.28-.05ZM897.82,22.45c0,.09,0,.18-.01.28-.02.11-.04.22-.05.33-.02.18.05.32.18.39-.03-.1-.04-.2-.04-.3,0-.13.02-.27.02-.4,0-.11-.03-.21-.1-.3Z"/>
  <path class="cls-1" d="M901.76,17.51c-.19-.45-.55-.57-.96-.6-.06,0-.13,0-.19-.01-.12-.01-.19-.08-.21-.19-.02-.1.05-.14.11-.19.14-.12.31-.18.48-.24.12-.04.24-.09.34-.22-.24,0-.45,0-.66,0-.19,0-.35.09-.47.24-.05.07-.1.08-.13-.02,0,0,0-.01,0-.02-.1-.19-.1-.2.09-.31.62-.36,1.29-.56,1.99-.67,1.01-.15,2.01-.1,3.01.13.17.04.32.11.47.19.21.11.42.22.67.22.12,0,.21.21.16.32-.02.04-.06.04-.1.04-.07,0-.13,0-.19.04-.1.05-.2.02-.3-.02-.1-.04-.19-.1-.3-.12-.06,0-.14-.02-.16.03-.02.06.06.11.12.12.06.02.12.02.19.03.19.04.35.23.33.39-.01.11-.05.16-.17.14-.09-.01-.17,0-.25.03-.2.08-.38.03-.54-.1-.11-.09-.2-.21-.31-.33.01.12.07.2.12.28.11.21,0,.47-.22.55-.1.04-.16-.03-.21-.11-.06-.1-.05-.21-.04-.32,0-.08-.02-.11-.1-.12-.22-.04-.44-.02-.66-.01-.27.01-.54.01-.8-.11-.09-.04-.18-.02-.27.02-.13.05-.25.09-.4.07-.13-.01-.16.05-.18.2-.02.23-.1.45-.26.66ZM901.43,16.04c.15.06.3.05.45.03.34-.05.68-.15,1.03-.18.48-.03.96-.04,1.43.11.08.03.17.04.25.03.11-.01.2-.05.28-.15-1.17-.17-2.32-.26-3.44.15Z"/>
  <path class="cls-1" d="M894.45,22.81c.29,0,.59.01.88.03.24.02.33-.06.34-.3.01-.35,0-.7.06-1.05.04-.28.12-.56.21-.83.06-.17.14-.33.22-.48.04-.08.1-.13.2-.12.13.02.17.11.14.26-.09.39-.19.79-.25,1.19-.06.45-.04.91-.04,1.37,0,.53.05,1.06.19,1.58.05.18.1.35.16.52,0,.01.01.03.02.04.03.09.07.19-.02.27-.06.05-.21.03-.3-.03-.04-.03-.08-.07-.1-.11-.14-.35-.33-.69-.41-1.07-.04-.18-.05-.37-.03-.55.02-.15,0-.3-.11-.41-.04-.04-.07-.05-.08.02-.02.1-.04.2-.07.29-.04.13-.12.2-.26.22-.29.04-.59.05-.89.06-.69.04-1.38.09-2.05.29-.5.15-.96.36-1.36.69-.07.06-.14.12-.2.19-.05.05-.06.04-.1-.01-.25-.39-.2-.84.13-1.17.38-.38.84-.61,1.37-.69.78-.12,1.55-.2,2.34-.19Z"/>
  <path class="cls-1" d="M898.93,10.53c-.2-.08-.38-.06-.56-.06-.14,0-.26-.03-.39-.09-.52-.26-.88-.64-.97-1.24-.04-.25,0-.5.04-.74.12-.76.03-1.48-.42-2.13-.14-.2-.11-.42-.02-.63.29-.67.7-1.26,1.3-1.7.86-.63,1.82-1.03,2.85-1.25.22-.05.45-.09.68-.13.12-.02.26-.04.35.08.09.14.12.3.07.46-.02.07-.09.09-.16.1-1.07.08-2.06.39-2.91,1.05-.77.6-1.3,1.37-1.49,2.35-.13.68,0,1.32.31,1.93.17.36.38.7.62,1.01.24.3.45.63.69.97Z"/>
  <path class="cls-1" d="M888.45,28.97c-.22,0-.57-.04-.92.04-.17.04-.33.09-.48.17-.32.18-.64.18-.96.02-1.22-.6-2.15-1.49-2.66-2.78-.23-.58-.37-1.19-.44-1.81-.03-.27.06-.39.3-.4.2,0,.29.07.31.28.03.33.06.67.16.99.36,1.24,1.07,2.22,2.22,2.81,1.31.67,2.6.52,3.82-.3.45-.3.88-.63,1.32-.95.06-.04.1-.05.15,0,.03.03.03.05,0,.08-.11.15-.16.33-.19.52-.11.77-.68,1.17-1.37,1.27-.38.06-.76.05-1.27.05Z"/>
  <path class="cls-1" d="M891.06,18.1c-.19-.04-.33-.13-.47-.22-.71-.49-1.51-.78-2.36-.91-1.23-.18-2.32.14-3.26.95-.69.58-1.06,1.34-1.26,2.2-.08.36-.13.73-.18,1.1,0,.03-.01.06-.02.09-.05.17-.14.24-.28.24-.21-.01-.33-.11-.35-.29-.02-.18.02-.36.04-.53.13-.87.38-1.7.84-2.46.49-.82,1.2-1.41,2.04-1.85.18-.09.36-.17.54-.26.12-.06.24-.05.35.03.48.38,1.04.49,1.63.43.63-.06,1.23.04,1.82.26.27.1.48.28.61.54.11.22.2.43.3.68Z"/>
  <path class="cls-1" d="M907.92,10.57c.23-.31.43-.61.62-.92.46-.75.69-1.56.66-2.45-.07-1.99-1.33-3.32-2.94-3.87-.45-.16-.92-.22-1.39-.22-.19,0-.25-.04-.26-.17-.02-.21.08-.37.24-.4.15-.02.29,0,.43.03,1.09.15,2.1.52,3.01,1.14.73.5,1.21,1.17,1.51,1.98.04.11.08.22.12.34.03.09.01.19-.05.26-.5.56-.59,1.22-.5,1.93.06.45.1.9-.03,1.35-.08.25-.18.5-.31.72-.1.17-.17.2-.35.13-.15-.05-.3-.02-.45.03-.1.03-.19.07-.32.12Z"/>
  <path class="cls-1" d="M904.24,18.49c.18-.14.25-.32.29-.52.11-.51.55-.92,1.06-.99.09-.01.17,0,.25.01.08.01.12.07.09.14-.11.24-.22.49-.5.59-.21.08-.33.25-.42.47.17-.11.3-.23.46-.32.22-.13.42-.11.61.04.05.04.08.07,0,.12-.18.12-.3.28-.43.45-.2.26-.43.46-.77.54-.19.04-.24.02-.24-.17,0-.15-.04-.16-.16-.09-.03.01-.05.03-.08.04-.08.03-.12,0-.13-.08,0-.06.03-.15-.02-.18-.06-.04-.09.06-.14.09-.2.11-.42.1-.63.1-.29,0-.58-.08-.88-.06-.07,0-.12-.05-.16-.1-.24-.28-.33-.62-.32-.98,0-.14.02-.28.06-.42.06-.27.22-.4.5-.39.22,0,.43.03.64.04.13,0,.27,0,.4,0,.39,0,.6.19.65.58.04.33-.02.65-.09.97,0,.04-.03.07-.01.12Z"/>
  <path class="cls-1" d="M910.62,6.1c-.04.14-.08.26-.1.39-.02.23.03.44.13.65.14.31.29.63.35.97.08.44.02.85-.2,1.23-.14.24-.14.26.04.48.33.42.23,1.01-.21,1.29-.23.15-.48.16-.73.07-.22-.08-.33-.26-.35-.49-.01-.16.1-.28.3-.33.12-.03.21-.08.24-.21,0-.04.01-.08,0-.11-.03-.05-.05-.1-.12-.04-.06.06-.15.06-.23.07-.18.02-.24.07-.28.25-.02.08-.03.15-.05.23-.03.1-.12.16-.2.12-.07-.03-.1-.12-.05-.22.03-.07.07-.14.11-.2.34-.54.42-1.12.31-1.74-.07-.42-.08-.83-.01-1.25.03-.2.11-.38.23-.53.22-.27.51-.45.82-.63Z"/>
  <path class="cls-1" d="M915.56,29.9c.22.13.39.07.46-.15.05-.17.09-.34.09-.51,0-.15-.07-.26-.21-.33-.12-.06-.26-.1-.39-.12-.08-.01-.08-.04-.05-.1.05-.1.05-.22.13-.32.04-.05.07-.07.13-.01.7.68,1.55.85,2.48.68.29-.05.57-.11.86-.04.28.07.53.2.77.37.09.07.12.18.16.28.01.04,0,.05-.03.06-.07.03-.15.07-.22.07-.34.03-.63.17-.91.33-.31.17-.62.31-.98.36-.24.03-.48.03-.7-.09-.29-.16-.59-.17-.9-.06-.19.07-.39.13-.6.08-.42-.09-.66-.48-.6-.98.03-.26.21-.41.46-.39.18.01.29.1.35.29.06.19.02.36-.11.46-.06.04-.12.08-.18.12Z"/>
  <path class="cls-1" d="M909.92,38.14c.01-.41.07-.79.06-1.18-.01-.54-.14-1.04-.49-1.46-.07-.09-.16-.17-.24-.25-.08-.09-.07-.14.03-.21.09-.06.19-.12.28-.18.1-.07.19-.15.27-.24.2-.25.47-.31.77-.19.49.2.62.64.58,1.05,0,.05-.02.1-.05.15-.23.37-.18.74,0,1.1.07.15.12.3.12.47,0,.13-.02.26-.09.38-.1.18-.14.37-.16.56-.03.26-.1.5-.36.64-.06.03-.06.11-.05.17,0,.05.02.09.04.14.03.15-.02.21-.17.2-.16-.01-.26-.11-.32-.24-.15-.29-.22-.6-.22-.9ZM909.69,35.07c-.06.16-.03.29.1.39.08.06.16.1.25.14.18.08.49-.02.59-.19,0-.02.02-.03.02-.05.02-.08,0-.15-.07-.2-.06-.05-.1.01-.14.05-.13.11-.28.12-.42.04-.11-.06-.21-.12-.32-.18Z"/>
  <path class="cls-1" d="M894.13,22.66c-.66.04-1.37-.11-2.1-.14-.69-.02-1.39-.6-1.55-1.25-.03-.12-.04-.24-.03-.36.02-.16.09-.2.24-.14.15.06.29.15.44.22.76.37,1.57.56,2.41.62.57.04,1.14.07,1.71.1.04,0,.07,0,.11.01.11.02.15.08.13.18-.02.11-.01.22,0,.33.04.23-.03.32-.26.36-.34.06-.69.1-1.11.06Z"/>
  <path class="cls-1" d="M903.27,13.64c-.01.37-.02.76-.03,1.15,0,.17-.08.24-.26.22-.14-.01-.27-.03-.41.01-.08.03-.14-.02-.17-.1-.02-.06-.02-.12-.02-.19.01-.86-.04-1.71-.23-2.55-.16-.71-.42-1.38-.83-1.98-.04-.06-.08-.1-.13-.15-.12-.11-.09-.23.05-.3.09-.04.17-.02.25,0,.61.19,1.07.57,1.36,1.14.25.49.37,1.02.4,1.57.03.37.03.75,0,1.15Z"/>
  <path class="cls-1" d="M895.61,10.24s0-.12,0-.2c0-.11.06-.2.15-.24.18-.08.17-.25.09-.37-.12-.21-.21-.43-.24-.68-.07-.46.04-.9.19-1.33.06-.15.11-.31.13-.47.02-.22-.03-.41-.16-.58-.03-.04-.06-.07-.08-.11-.03-.07-.04-.14.02-.2.05-.06.12-.07.19-.04.16.06.3.14.41.26.41.43.63.93.57,1.53-.02.21-.09.41-.12.62-.06.61.09,1.15.43,1.66.06.08.11.17.16.25.05.08.08.15-.02.22-.1.07-.2.07-.27-.02-.05-.07-.1-.15-.15-.22-.08-.12-.18-.24-.32-.3-.16-.07-.29-.03-.41.07-.12.1-.16.23-.13.38.02.09.08.11.16.07.06-.03.11-.09.16-.14.14-.13.24-.12.37.02.12.14.12.32,0,.46-.13.16-.29.28-.51.23-.27-.05-.49-.17-.59-.45-.05-.13-.05-.26-.06-.42Z"/>
  <path class="cls-1" d="M896.43,35.5c.11.14.23.17.38.11.12-.05.22-.12.33-.19.09-.06.11-.15.08-.25-.02-.08-.04-.17-.06-.25-.01-.06,0-.09.07-.08.1.02.2.04.3.07.13.04.15.12.06.22-.08.09-.18.18-.26.28-.42.51-.52,1.11-.41,1.74.05.31.13.62.1.94,0,.11-.03.2-.13.27-.06.04-.11.09-.17.14-.11.09-.17.2-.14.34.02.11-.03.1-.1.07-.4-.14-.64-.45-.78-.83-.12-.32-.14-.66-.08-1,.02-.12.04-.25.06-.37.02-.12.05-.24.12-.33.1-.13.08-.24,0-.37-.17-.25-.22-.52-.19-.82.05-.4.48-.72.88-.66.26.04.48.41.39.65-.04.11-.14.17-.24.22-.07.03-.14.06-.22.09Z"/>
  <path class="cls-1" d="M902.78,30.62c.09,0,.17,0,.26,0,.16.04.24.13.23.31-.04.8.04,1.6-.06,2.39-.06.47-.15.93-.38,1.35-.27.5-.69.8-1.22.97-.17.05-.25-.03-.2-.2,0-.04.02-.07.04-.1.35-.69.54-1.42.67-2.17.11-.6.2-1.21.2-1.82,0-.13-.01-.27-.02-.4,0-.24.09-.33.33-.34.05,0,.1,0,.16,0Z"/>
  <path class="cls-1" d="M911.93,23.05c.23,0,.45,0,.68,0,.04,0,.09.01.1-.05,0-.04.05-.02.08-.02.35,0,.7,0,1.06-.02.64-.03,1.16.27,1.61.7.18.17.34.36.5.55.09.11.15.24.12.39-.04.16-.15.22-.29.13-.54-.34-1.14-.5-1.75-.62-.57-.11-1.15-.12-1.73-.15-.34-.01-.68-.01-1.02,0-.09,0-.19,0-.26-.07-.06-.05-.08-.12-.08-.2,0-.12,0-.24.01-.36,0-.19.1-.28.3-.28.23,0,.46,0,.69,0,0,0,0,0,0,0Z"/>
  <path class="cls-1" d="M903.5,31.92c0-.31,0-.62,0-.94,0-.23.06-.3.29-.35.11-.02.21-.04.32-.05.16-.01.22.03.23.19.02.17.02.34.02.51.02.86.11,1.72.37,2.55.15.5.36.96.64,1.4.04.06.08.12.09.19.04.16-.08.32-.24.28-.4-.1-.78-.25-1.04-.59-.21-.27-.32-.58-.41-.91-.17-.6-.29-1.21-.27-1.84,0-.15,0-.3,0-.45,0,0,0,0,.01,0Z"/>
  <path class="cls-1" d="M891.59,15.93c0,.09-.01.18-.04.27-.08.26-.3.39-.57.35-.04,0-.07-.02-.1-.04-.22-.13-.22-.51-.02-.65.04-.03.09-.04.08-.11,0-.06-.06-.08-.11-.1-.22-.08-.42.01-.51.23-.16.39,0,.69.4.8.05.01.1.03.15.05.17.07.24.23.17.4-.02.04-.03.04-.07.03-.12-.05-.24-.12-.32-.21-.37-.41-.86-.51-1.37-.53-.28-.01-.56-.01-.83.02-.27.03-.55-.02-.82-.01-.17,0-.23-.08-.18-.25.04-.12.02-.22-.04-.32-.08-.16-.05-.23.11-.3.3-.14.61-.28.9-.44.17-.09.35-.11.54-.04.32.11.65.12.98.12.34,0,.68,0,1.02.04.39.05.64.32.65.7Z"/>
  <path class="cls-1" d="M903.49,13.26c-.03-.45-.06-.89-.03-1.34.05-.82.43-1.45,1.14-1.87.21-.13.45-.15.7-.1.08.02.1.04.05.12-.2.35-.42.7-.57,1.08-.19.46-.27.94-.35,1.42-.1.62-.13,1.24-.16,1.86,0,.13,0,.26.02.39,0,.14-.03.18-.17.16-.09-.01-.19,0-.28,0-.24,0-.34-.09-.35-.33,0-.29,0-.59,0-.88,0-.17,0-.35,0-.52Z"/>
  <path class="cls-1" d="M912.37,22.77c-.33.02-.67.04-1,.06-.22.01-.32-.06-.34-.28,0-.13,0-.27,0-.4,0-.14.07-.2.21-.22.2-.03.39,0,.59,0,1.2.03,2.35-.19,3.46-.63.2-.08.4-.18.59-.28.07-.03.14-.08.22,0,.07.07.05.15.02.23-.29.7-.83,1.09-1.54,1.29-.54.15-1.1.21-1.66.22-.18,0-.36,0-.55,0h0Z"/>
  <path class="cls-1" d="M887.47,29.74s.1-.05.14-.06c.08-.03.1-.09.08-.17-.02-.09-.09-.07-.15-.06-.04.01-.08.02-.15,0,.13-.13.27-.2.42-.26.24-.09.49-.1.74-.08.31.02.63.07.94.02.51-.08.99-.27,1.41-.57.13-.09.21-.07.26.07.04.09.01.14-.08.15-.3.04-.45.24-.54.51-.05.15-.01.29.09.41.06.07.13.12.22.12.08,0,.16,0,.2-.07.05-.07-.02-.12-.06-.18-.16-.25-.13-.44.09-.57.08-.05.16-.05.25-.01.31.13.43.38.33.7-.02.06-.04.13-.07.19-.14.3-.39.42-.71.35-.14-.03-.26-.08-.39-.14-.16-.08-.31-.08-.48-.01-.47.18-.95.27-1.45.19-.41-.07-.76-.25-1.09-.53Z"/>
  <path class="cls-1" d="M902.08,28.34c.03.08.05.17.09.25.13.29.38.41.68.39.4-.03.81-.01,1.21-.02.12,0,.23-.03.34-.07.08-.03.14-.02.19.06.05.1.15.14.25.17.12.04.21,0,.3-.16-.19.08-.33.03-.46-.11-.11-.12-.12-.21-.04-.35.06-.11.14-.2.14-.34.05.02.07.07.1.1.28.3.64.41,1.02.46.08.01.17.02.25.04.09.02.15.07.14.17,0,.09-.08.09-.15.1-.03,0-.07.01-.09.03-.53.29-1.1.43-1.69.5-.6.07-1.21.09-1.82.11-.42.02-.81-.11-1.19-.26-.18-.07-.36-.16-.54-.24-.04-.02-.08-.04-.11-.07-.07-.06-.09-.14-.06-.23.03-.09.11-.09.18-.09.22,0,.44,0,.65-.07.21-.06.39-.17.53-.33.02-.02.03-.05.07-.06Z"/>
  <path class="cls-1" d="M899.7,11.56c-.44-.88-1.07-1.6-1.57-2.42-.28-.47-.52-.96-.61-1.51-.16-.97.1-1.83.72-2.58.67-.81,1.55-1.28,2.56-1.52.28-.07.57-.12.86-.18.05,0,.1-.01.14,0,.06.02.09.08.09.14,0,.07-.05.11-.11.12-.2.03-.4.05-.59.09-1.12.23-2.07.75-2.75,1.68-.39.53-.61,1.12-.61,1.78,0,.62.2,1.18.55,1.69.16.24.37.44.55.65.38.45.66.96.84,1.53.05.18.05.34-.06.52Z"/>
  <path class="cls-1" d="M906.88,11.04c.23-.31.45-.61.69-.91.48-.6.84-1.27.98-2.03.17-.87.1-1.72-.25-2.54-.21-.49-.58-.84-1.01-1.14-.68-.47-1.44-.74-2.27-.82-.08,0-.17,0-.26-.01-.09,0-.13-.06-.12-.15,0-.08.05-.13.14-.13,1.38.04,2.58.47,3.45,1.6.59.76.82,1.64.76,2.59-.05.81-.32,1.55-.72,2.25-.2.36-.47.65-.83.85-.11.06-.16.17-.24.26-.08.1-.18.18-.33.18Z"/>
  <path class="cls-1" d="M883.22,22.82c-.23.1-.44.19-.65.3-.33.18-.62.41-.78.76-.05.1-.13.08-.21.05-.26-.08-.48-.21-.68-.39-.2-.18-.36-.39-.51-.61-.05-.08-.05-.15,0-.21.28-.36.6-.68,1.02-.88.23-.11.31-.09.45.12.23.34.55.54.92.69.14.05.28.1.44.16Z"/>
  <path class="cls-1" d="M923.37,22.76c.14-.07.28-.14.41-.21.35-.19.68-.4.94-.72.09-.11.2-.12.32-.08.12.04.22.11.32.18.25.2.47.42.62.71.08.15.09.3,0,.44-.21.34-.49.6-.86.76-.19.08-.3.05-.41-.13-.3-.5-.73-.81-1.29-.94,0,0-.02,0-.04-.02Z"/>
  <path class="cls-1" d="M902.77,27.26c-.08.16-.13.32-.13.5,0,.24.1.39.32.46.3.09.6.08.9-.02.23-.08.33-.24.31-.49-.02-.23-.1-.45-.23-.64-.04-.06-.08-.12,0-.18.07-.06.14-.05.22.03.36.37.41.82.32,1.29-.02.12-.06.23-.11.34-.11.21-.26.3-.5.27-.01,0-.02,0-.03,0-.28-.09-.56-.09-.85-.06-.24.03-.45-.04-.58-.26-.08-.13-.07-.27-.05-.4.03-.32.11-.62.25-.91.02-.05.05-.1.09-.14.1-.12.2-.11.29.01.17.24.26.24.39-.02.08-.15.24-.17.34-.04.15.19.28.38.3.63,0,.1,0,.19-.04.28-.05.14-.15.22-.3.22-.23.01-.46-.04-.68-.1-.11-.03-.18-.12-.19-.23-.02-.18,0-.36,0-.53Z"/>
  <path class="cls-1" d="M903.12,30.43c-.27.02-.65.03-1.02-.05-.4-.09-.78-.23-1.15-.41-.15-.07-.26-.35-.21-.5.02-.07.06-.02.09,0,.3.11.6.2.91.28.64.16,1.29.17,1.95.11.82-.08,1.62-.22,2.4-.47.09-.03.16-.07.24-.11.09-.04.15-.02.18.07.04.09.01.15-.09.17-.1.02-.17.08-.25.14-.49.39-1.07.59-1.68.68-.42.06-.84.08-1.37.1Z"/>
  <path class="cls-1" d="M903.38,42.98c.09.27.21.52.41.72.16.17.34.3.53.42.06.04.12.08.18.13.1.09.12.2.08.32-.05.15-.14.27-.25.38-.28.28-.59.49-1,.5-.07,0-.12-.01-.18-.05-.31-.21-.57-.48-.78-.79-.1-.14-.07-.19.08-.29.45-.29.74-.7.89-1.21.01-.04.03-.09.04-.13Z"/>
  <path class="cls-1" d="M903.26,2.36c-.06-.1-.12-.21-.19-.31-.19-.28-.44-.5-.77-.62-.17-.06-.19-.12-.13-.29.09-.25.25-.45.45-.63.18-.16.37-.31.55-.47.07-.06.13-.07.2-.01.31.25.64.49.86.83.15.22.14.38-.06.54-.34.25-.62.56-.85.91-.01.02-.03.05-.06.05Z"/>
  <path class="cls-1" d="M903.4,33.84c.07.18.12.33.19.49.14.36.33.69.56,1,.11.14.11.28.03.44-.09.16-.16.33-.33.44-.08.06-.13.15-.19.23-.18.24-.38.25-.57.03-.22-.25-.38-.55-.47-.87-.03-.11-.03-.23.06-.31.27-.26.42-.59.54-.93.06-.16.11-.32.18-.5Z"/>
  <path class="cls-1" d="M908.23,24.96c0,.12,0,.23,0,.34,0,.11-.05.21-.13.29-.02.02-.05.05-.07,0-.14-.26-.37-.45-.59-.63-.3-.26-.4-.56-.28-.94.03-.09.05-.19.07-.29.01-.09.07-.11.13-.08.46.22.94.39,1.3.77.2.22.31.47.37.76.03.16-.04.31-.08.46-.01.06-.06.03-.09.02-.31-.11-.53-.3-.6-.63,0-.02-.01-.04-.02-.06,0,0,0,0-.02,0Z"/>
  <path class="cls-1" d="M901.62,27.24c-.1.12-.21.24-.31.36-.06.07-.13.13-.2.17-.26.16-.48.05-.66-.1-.03-.03-.03-.05,0-.07.24-.21.43-.47.67-.68.14-.12.3-.24.49-.28.05-.01.09-.02.14,0,.18.03.21.1.13.26-.02.04-.06.08-.04.14.09-.04.17-.09.24-.15.07-.05.13-.09.22-.1.08-.01.15.01.2.08.05.06.04.13,0,.19-.22.28-.34.62-.52.93-.21.35-.52.53-.93.53-.12,0-.24,0-.35.04-.06.02-.12.04-.17-.02-.05-.06-.05-.14-.02-.2.07-.13.16-.25.32-.28.42-.09.68-.37.84-.75-.02-.02-.03-.03-.05-.05Z"/>
  <path class="cls-1" d="M906.61,22.35c-.1.12-.12.26-.1.4.04.23.02.46-.05.68-.04.16-.08.32-.11.49-.02.13-.08.2-.19.2-.17,0-.25-.1-.2-.26.06-.19.11-.38.13-.57.05-.46-.02-.92-.1-1.37-.01-.08-.04-.15-.05-.23-.02-.11.02-.18.13-.21.1-.02.13,0,.18.13.06.15.14.28.17.44,0,.03.04.07.08.07.03,0,.04-.05.05-.08.04-.1.02-.21-.02-.3-.05-.14-.04-.29-.03-.43,0-.08.05-.12.13-.13.07,0,.11.03.13.1.17.58.32,1.16.31,1.77,0,.29-.04.58-.12.87-.03.11-.08.22-.13.32-.07.12-.2.14-.3.05-.02-.02-.03-.04-.02-.06.1-.19.07-.41.1-.61.05-.38.09-.75.03-1.13,0-.04,0-.08-.03-.12Z"/>
  <path class="cls-1" d="M903.28,11.36c-.04-.09-.08-.18-.12-.26-.11-.23-.24-.45-.4-.65-.22-.29-.22-.59-.1-.9.08-.22.2-.42.41-.55.19-.12.28-.1.42.07.12.15.24.3.36.45.08.1.14.22.18.34.05.21-.02.39-.17.54-.17.16-.28.36-.38.57-.06.13-.12.26-.21.39Z"/>
  <path class="cls-1" d="M904.36,26.85c.55-.3.99-.23,1.41.21.07.08.14.16.2.25.08.12.17.22.31.28.1.04.09.11,0,.17-.02.02-.05.03-.08.05-.08.06-.09.12-.01.2.04.04.09.07.12.11.06.06.06.13,0,.2-.08.08-.18.15-.29.13-.41-.06-.78-.19-1.04-.53-.07-.09-.13-.19-.17-.3-.09-.29-.22-.55-.45-.77Z"/>
  <path class="cls-1" d="M900.82,17.17c.29-.01.51.13.7.34.23.26.43.54.54.88.03.08.09.14.14.21.07.1.07.15-.03.23-.04.03-.09.07-.14.1-.27.18-.43.15-.68-.05-.28-.22-.56-.43-.82-.66-.05-.04-.1-.08-.16-.09-.11-.03-.06-.08-.01-.12.07-.06.16-.07.25-.09.07-.01.14-.03.19-.08.03-.03.05-.06-.01-.07-.23-.05-.32-.23-.39-.43-.02-.05,0-.08.05-.1.13-.04.26-.07.39-.07Z"/>
  <path class="cls-1" d="M907.99,19.82c.28.35.14.68-.03,1.02.18-.04.24-.16.29-.28.05-.15.13-.26.24-.37.05-.05.12-.09.19-.1.13-.03.23.05.24.18.04.47-.25.97-.67,1.16-.22.1-.43.22-.63.36-.3.21-.48.12-.51-.24-.04-.36.06-.66.33-.9.13-.12.25-.24.35-.38.09-.13.15-.27.2-.43Z"/>
  <path class="cls-1" d="M898.27,20.66c-.02-.32-.04-.63.22-.88.03.3.24.46.47.58.27.14.4.38.52.63.02.04.03.09.02.13-.01.07-.05.12-.12.15-.06.02-.11-.02-.14-.06-.09-.11-.2-.15-.36-.13.18.22.47.39.4.73,0,0-.02,0-.02,0-.2-.23-.46-.35-.74-.42-.33-.08-.6-.25-.82-.51-.11-.13-.19-.27-.23-.44-.04-.17.04-.31.12-.45.03-.04.07-.04.11-.01.1.07.21.15.31.22.09.07.15.16.16.28,0,.08.04.12.12.18Z"/>
  <path class="cls-1" d="M898.51,24.8c-.17.07-.24.19-.27.34,0,.04-.01.09-.02.13-.03.13-.1.19-.22.19-.12,0-.19-.05-.23-.18-.05-.16-.04-.33.03-.48.2-.41.49-.7.95-.79.09-.02.15-.08.22-.12.13-.08.18-.07.26.06.08.14.15.28.17.44.02.15-.03.28-.13.4-.18.23-.4.42-.59.64-.05.05-.1.09-.18.07-.08-.02-.12-.09-.13-.17-.02-.14.02-.27.07-.4.02-.04.03-.08.06-.14Z"/>
  <path class="cls-1" d="M891.97,22.81c-.43.06-.77.27-1.11.48-.1.07-.21.1-.34.1-.29.01-.55-.07-.78-.24-.09-.07-.16-.15-.21-.26-.03-.08-.02-.14.04-.19.29-.24.63-.41.97-.56.06-.03.14-.02.19.03.29.26.66.39,1.02.54.06.02.12.05.21.09Z"/>
  <path class="cls-1" d="M903.22,18.94c.52-.01,1,.11,1.48.3.18.07.23.14.21.29-.02.12-.08.16-.19.13-.61-.17-1.23-.22-1.86-.15-.17.02-.33.08-.49.13-.19.05-.38.08-.57.01-.02,0-.05,0-.08,0-.05,0-.11,0-.13-.06-.02-.07,0-.12.06-.15.27-.16.54-.31.84-.4.24-.07.49-.11.73-.09Z"/>
  <path class="cls-1" d="M903.54,26.12c-.22-.02-.44.02-.66,0-.33-.03-.64-.13-.94-.27-.08-.04-.09-.09-.06-.16.02-.04.04-.07.05-.11.04-.1.12-.14.23-.12.48.08.97.12,1.46.1.26-.01.52-.05.77-.1.16-.03.19-.01.23.14,0,.02.01.04.02.06.05.14.03.17-.09.24-.32.17-.67.23-1.03.22Z"/>
  <path class="cls-1" d="M904.47,20.24s-.06,0-.09-.02c-.59-.19-1.19-.16-1.79-.05-.08.02-.17.03-.25.05-.16.03-.29-.09-.29-.26,0-.1.06-.14.14-.16.43-.17.87-.24,1.33-.21.35.02.68.09,1.01.21.17.06.22.19.13.33-.04.07-.1.11-.19.1Z"/>
  <path class="cls-1" d="M900.14,24.25c-.31-.19-.52-.45-.63-.79-.24-.73-.11-1.42.26-2.08.09-.16.2-.31.34-.46-.05.31-.1.6-.15.89-.11.76-.14,1.51.12,2.24.02.06.04.12.06.18,0,0,0,0-.01.02Z"/>
  <path class="cls-1" d="M901.59,26.05c.41.1.79.17,1.19.22.73.08,1.44.03,2.14-.23.09-.03.11-.01.1.07-.02.2-.11.3-.3.35-.6.15-1.19.27-1.81.22-.5-.04-.94-.23-1.31-.63Z"/>
  <path class="cls-1" d="M900.7,21.56s-.01.06-.03.09c-.21.56-.22,1.13-.15,1.71.02.13.04.26.07.38.01.07.01.14-.06.17-.08.03-.16.02-.21-.05-.02-.03-.04-.07-.05-.11-.25-.81-.25-1.6.12-2.38.04-.09.07-.11.15-.04.07.06.17.1.17.23Z"/>
  <path class="cls-1" d="M907.05,34.07c-.31,0-.47-.15-.47-.44,0-.37.06-.72.18-1.07.03-.08.06-.15.17-.15.16,0,.23.07.19.23-.06.34-.14.67-.19,1.01-.03.19,0,.27.13.43Z"/>
  <path class="cls-1" d="M900.02,12.29c0,.07,0,.15,0,.22,0,.14-.07.2-.21.2-.15,0-.28-.08-.28-.2,0-.18.04-.36.12-.53.05-.1.16-.14.25-.12.11.03.11.12.12.21,0,.07,0,.13,0,.2Z"/>
  <path class="cls-1" d="M906.95,15.56c.01-.12.06-.2.11-.28.05-.09.11-.18.08-.29,0-.03,0-.04.03-.04.11-.02.22.09.22.2-.01.19-.18.4-.37.45-.05.01-.07,0-.07-.03Z"/>
  <path class="cls-1" d="M869.65,22.05c-1.84.99-39.17,1.59-75.7,1.39-66.11-.34-132.11-.59-197.55-1.31-92.51-1.02-188.74-.17-281.2-1.51-4.77-.08-11.35,0-16.55.06-70.98.8-140.02-1.1-210.98-.86-2.84,0-5.35,0-7.54-.04-2.84-.04-5.16-.11-7.04-.21v-1.24l.04-.13c2.08-.03,4.46-.05,7-.05,1.29,0,2.62,0,3.96,0,35.9.17,74.48.1,106.97.63,47.39.78,95.44.99,140.32.78,97.65-.47,196.07.06,303.69.1,47.2.15,104.12.41,160.74.48,38.37.04,76.54.45,73.84,1.91Z"/>
  <path class="cls-1" d="M935.87,24.01c1.84.99,39.17,1.59,75.7,1.39,66.11-.34,132.11-.59,197.55-1.31,92.51-1.02,188.74-.17,281.2-1.51,4.77-.08,11.35,0,16.55.06,70.98.8,140.02-1.1,210.98-.86,2.84,0,5.35,0,7.54-.04,2.84-.04,5.16-.11,7.04-.21v-1.24s-.04-.13-.04-.13c-2.08-.03-4.46-.05-7-.05-1.29,0-2.62,0-3.96,0-35.9.17-74.48.1-106.97.63-47.39.78-95.44.99-140.32.78-97.65-.47-196.07.06-303.69.1-47.2.15-104.12.41-160.74.48-38.37.04-76.54.45-73.84,1.91Z"/>
</svg>