<svg width="1812" height="46" viewBox="0 0 1812 46" fill="none" xmlns="http://www.w3.org/2000/svg">
<g clip-path="url(#clip0_1189_430)">
<path d="M1751.86 11.8309C1753.06 9.99087 1754.23 8.26087 1757.06 8.53087C1759.05 8.71087 1760.86 9.00087 1761.95 10.7209C1762.62 11.7909 1763.53 12.9509 1762.09 13.9209C1760.51 14.9909 1760.09 13.4409 1759.36 12.6609C1757.58 10.7509 1756.71 11.0709 1755.33 13.2509C1753.78 15.6709 1754.41 18.1809 1754.45 20.6009C1754.5 23.8609 1753.29 26.0609 1750.11 27.7409C1749.12 28.2609 1748.24 28.4209 1747.44 28.3409C1745.94 28.1909 1744.94 27.2009 1744.39 26.7109C1740.28 23.0009 1734 22.1209 1731.78 21.8209C1730.58 21.6509 1729.58 21.6109 1728.89 21.6009C1728.82 21.1309 1728.76 20.6509 1728.69 20.1809C1729.94 20.1809 1730.93 20.1209 1731.5 20.0809C1733.06 19.9709 1742.7 19.2409 1745.69 18.8009C1745.91 18.7709 1746.54 18.7009 1746.86 19.0209C1746.99 19.1509 1747.02 19.4009 1747 19.9009C1746.97 20.8209 1747.85 21.9709 1749.27 21.3709C1750.43 20.8809 1750.9 20.0509 1749.36 19.1809C1748.76 18.8509 1748.87 18.0709 1749.46 17.6009C1749.77 17.3609 1750.51 17.0509 1750.61 17.1509C1751.04 17.5609 1751.49 18.0709 1751.6 18.6009C1752.22 21.4609 1750.48 22.7709 1747.1 23.0409C1749.44 24.0209 1750.28 23.9209 1751.41 22.8009C1753.59 20.6309 1752.91 17.6609 1750.94 15.0909C1749.3 12.9409 1749.62 10.0009 1750.84 7.55087C1751.97 5.29087 1754.2 4.02087 1757.11 4.16087C1761.05 4.36087 1765.4 6.13087 1765.75 11.1009C1763.55 7.42087 1760.99 4.50087 1755.56 5.95087C1752.21 6.84087 1751.37 8.89087 1751.85 11.8309H1751.86Z" fill="white"/>
<path d="M1772.01 16.7891C1772.57 15.4591 1772.98 14.0291 1773.73 12.8091C1774.9 10.9091 1777.48 11.2291 1779.28 13.4191C1780.21 14.5491 1780.8 16.0291 1782.44 16.4991C1783.54 15.7191 1781.87 14.0791 1783.46 13.4491C1784.63 12.9791 1785.76 13.1891 1786.64 13.7391C1790.43 16.0791 1794.57 15.3191 1798.63 15.3491C1799.33 15.3491 1800.03 15.2591 1800.73 15.2091C1801.64 15.1491 1802.57 15.4791 1802.47 16.3891C1802.32 17.7791 1801.34 16.7391 1800.68 16.7891C1798.29 16.9891 1795.91 17.3091 1793.55 17.7291C1791.94 18.0091 1790.35 18.1791 1788.79 17.7391C1788.17 17.5691 1786.59 17.8791 1787.53 16.1191C1787.83 15.5591 1786.66 15.1891 1786.02 14.9791C1785.45 14.7891 1785.29 15.1491 1785.02 15.6791C1783.55 18.5791 1780.59 18.7491 1778.8 16.1091C1778.46 15.6091 1778.25 15.0291 1777.9 14.5491C1776.72 12.9391 1775.65 12.7091 1774.57 14.7191C1774.08 15.6291 1773.27 16.3791 1772.61 17.1991C1772.41 17.0691 1772.2 16.9291 1772 16.7991L1772.01 16.7891Z" fill="white"/>
<path d="M1785.89 17.8293C1786.63 21.1293 1785.6 22.3593 1783.13 21.5393C1781.83 21.1093 1781.33 20.7493 1781.09 22.5493C1780.89 24.0493 1778.67 24.0793 1778.24 25.6693C1777.44 25.2493 1778.82 22.8493 1776.29 24.2693C1774.17 25.4593 1772.89 23.2393 1771.98 20.7093C1773.68 21.4293 1773.91 23.5793 1776.12 23.1893C1774.75 22.0493 1773.57 20.9793 1774.31 19.2493C1775.01 17.6093 1777.29 16.9593 1778.91 18.1693C1779.79 18.8293 1780.73 19.3393 1781.66 19.8993C1784.26 21.4793 1784.73 21.3093 1785.88 17.8293H1785.89ZM1776 19.5393C1777.16 19.8293 1778.3 19.9893 1777.63 21.7093C1777.12 23.0193 1777.98 22.9493 1778.83 22.9293C1779.71 22.9093 1780.33 22.2993 1779.94 21.6493C1779.09 20.2393 1778.15 18.6293 1775.99 19.5393H1776Z" fill="white"/>
<path d="M1767.59 21.8398C1768.24 23.7198 1768.84 25.0998 1769.2 26.5498C1770.06 29.9898 1773.18 30.9898 1775.78 31.7898C1778.44 32.5998 1778.79 29.5598 1779.59 27.6998C1779.95 26.8498 1779.12 25.6798 1780.27 24.9898C1781.24 27.5698 1780.57 30.4898 1778.58 32.2298C1776.76 33.8098 1775.17 32.8098 1773.37 31.9098C1768.9 29.6698 1767.26 27.1598 1767.6 21.8398H1767.59Z" fill="white"/>
<path d="M1750.69 26.1799C1753 28.1099 1755.3 28.4899 1757.73 26.7999C1758.12 26.5299 1758.74 26.6699 1759.04 27.1599C1759.36 27.6899 1758.91 28.0799 1758.65 28.4799C1757.66 29.9399 1756.21 30.6599 1754.55 30.2899C1752.59 29.8599 1751.04 28.7599 1750.7 26.1699L1750.69 26.1799Z" fill="white"/>
<path d="M1761.25 17.3998C1762.3 14.9798 1766.71 16.6898 1766.6 12.3398C1767.34 13.6198 1767.84 14.4098 1768.26 15.2398C1768.5 15.7198 1768.25 16.6098 1767.99 16.5398C1765.61 15.9098 1763.72 19.0098 1761.26 17.3898L1761.25 17.3998Z" fill="white"/>
<path d="M1762.1 18.7402C1764.23 22.1802 1762.62 24.3402 1759.29 26.4802C1760.34 23.5902 1761.21 21.1902 1762.1 18.7402Z" fill="white"/>
<path d="M1803.68 15.5807C1806.24 15.0107 1808.75 15.0907 1811.37 16.0707C1808.53 18.1207 1806.15 16.1807 1803.68 15.5807Z" fill="white"/>
<path d="M1771.25 16.6605C1770.39 16.2905 1770.02 15.5505 1769.98 14.8005C1769.9 13.6005 1769.29 11.5205 1770.57 11.4505C1772.24 11.3605 1770.7 13.1605 1771.02 14.1105C1771.28 14.8805 1771.7 15.7505 1771.25 16.6605Z" fill="white"/>
<path d="M72.3304 18.2695V20.0395C72.2704 20.0395 72.2104 20.0395 72.1504 20.0195L72.3304 18.2695Z" fill="black"/>
<path d="M7.69 16.0006C5.13 15.4306 2.62 15.5106 0 16.4906C2.84 18.5406 5.22 16.6006 7.69 16.0006Z" fill="white"/>
<path d="M74.1606 18.1795C74.1606 18.6495 74.1606 19.1295 74.1606 19.5995C73.7306 19.6795 73.1906 19.7895 72.5806 19.9595C72.5806 19.9595 71.9206 20.1395 71.2306 20.3695C65.8606 22.1695 63.1806 23.0595 61.1606 25.0095C60.4606 25.6795 59.7206 26.5495 58.5306 26.6595C57.8906 26.7195 57.1806 26.5495 56.4006 26.0495C53.7406 24.3695 52.7406 22.1695 52.7806 18.8995C52.8106 16.4795 53.3406 13.9795 52.0406 11.5495C50.8906 9.36953 50.1606 9.04953 48.6806 10.9695C48.0706 11.7495 47.7306 13.2895 46.4106 12.2295C45.2106 11.2495 45.9706 10.0895 46.5306 9.01954C47.4406 7.29954 48.9506 7.00954 50.6106 6.82954C52.9606 6.55953 53.9406 8.28954 54.9406 10.1395C55.3406 7.19954 54.6406 5.13953 51.8506 4.24953C47.3306 2.79953 45.1806 5.71953 43.3506 9.39953C43.6406 4.42953 47.2706 2.65953 50.5606 2.46953C52.9706 2.32953 54.8406 3.58953 55.7806 5.84953C56.8006 8.29953 57.0606 11.2495 55.6906 13.3995C54.0606 15.9695 53.4806 18.9395 55.3106 21.0995C56.2506 22.2295 56.9506 22.3195 58.8906 21.3495C56.0806 21.0695 54.6306 19.7695 55.1506 16.9095C55.2406 16.3795 55.6106 15.8595 55.9806 15.4495C56.0506 15.3595 56.6706 15.6595 56.9306 15.9095C57.4206 16.3695 57.5106 17.1495 57.0206 17.4895C55.7306 18.3495 56.1206 19.1895 57.0906 19.6795C58.2806 20.2795 59.0106 19.1195 58.9806 18.2095C58.9606 17.6695 58.9906 17.4195 59.1206 17.2995C59.4006 17.0295 59.8906 17.0895 60.0806 17.1095C62.5706 17.4595 69.4806 18.1095 72.5806 18.1895C72.9206 18.1895 73.4706 18.2095 74.1606 18.1895V18.1795Z" fill="white"/>
<path d="M41.3502 17.209C40.7902 15.879 40.3802 14.449 39.6302 13.229C38.4602 11.329 35.8802 11.649 34.0802 13.839C33.1502 14.969 32.5602 16.449 30.9202 16.919C29.8202 16.139 31.4902 14.499 29.9002 13.869C28.7302 13.399 27.6002 13.609 26.7202 14.159C22.9302 16.499 18.7902 15.739 14.7302 15.769C14.0302 15.769 13.3302 15.679 12.6302 15.629C11.7202 15.569 10.7902 15.899 10.8902 16.809C11.0402 18.199 12.0202 17.159 12.6802 17.209C15.0702 17.409 17.4502 17.729 19.8102 18.149C21.4202 18.429 23.0102 18.599 24.5702 18.159C25.1902 17.989 26.7702 18.299 25.8302 16.539C25.5302 15.979 26.7002 15.609 27.3402 15.399C27.9102 15.209 28.0702 15.569 28.3402 16.099C29.8102 18.999 32.7702 19.169 34.5602 16.529C34.9002 16.029 35.1102 15.449 35.4602 14.969C36.6402 13.359 37.7102 13.129 38.7902 15.139C39.2802 16.049 40.0902 16.799 40.7502 17.619C40.9502 17.489 41.1602 17.349 41.3602 17.219L41.3502 17.209Z" fill="white"/>
<path d="M37.2403 23.6004C38.6103 22.4704 39.7803 21.3904 39.0403 19.6704C38.3403 18.0204 36.0703 17.3804 34.4403 18.5804C33.5603 19.2404 32.6203 19.7504 31.6903 20.3204C29.0903 21.9004 28.6303 21.7204 27.4703 18.2504C26.7403 21.5504 27.7703 22.7804 30.2403 21.9604C31.5403 21.5304 32.0403 21.1704 32.2803 22.9704C32.4703 24.4704 34.6903 24.5004 35.1203 26.0904C35.9203 25.6704 34.5403 23.2704 37.0703 24.6804C39.1903 25.8704 40.4703 23.6604 41.3803 21.1204C39.6803 21.8504 39.4503 23.9904 37.2403 23.6004ZM35.7303 22.1304C36.2403 23.4504 35.3803 23.3704 34.5303 23.3504C33.6503 23.3304 33.0203 22.7204 33.4203 22.0704C34.2603 20.6604 35.2103 19.0404 37.3603 19.9604C36.2003 20.2504 35.0603 20.4104 35.7303 22.1304Z" fill="white"/>
<path d="M45.7801 22.2598C45.1301 24.1398 44.5301 25.5198 44.1701 26.9698C43.3101 30.4098 40.1901 31.4098 37.5901 32.2098C34.9301 33.0198 34.5801 29.9798 33.7801 28.1198C33.4201 27.2698 34.2501 26.0998 33.1001 25.4098C32.1301 27.9898 32.8001 30.9098 34.7901 32.6498C36.6101 34.2298 38.2001 33.2298 40.0001 32.3298C44.4701 30.0898 46.1101 27.5798 45.7701 22.2598H45.7801Z" fill="white"/>
<path d="M62.6804 26.5901C60.3704 28.5201 58.0704 28.9001 55.6404 27.2101C55.2504 26.9401 54.6304 27.0801 54.3304 27.5701C54.0104 28.1001 54.4604 28.4901 54.7204 28.8901C55.7104 30.3501 57.1604 31.0701 58.8204 30.7001C60.7804 30.2701 62.3304 29.1701 62.6704 26.5801L62.6804 26.5901Z" fill="white"/>
<path d="M52.1206 17.8198C51.0706 15.3998 46.6606 17.1098 46.7706 12.7598C46.0306 14.0398 45.5306 14.8298 45.1106 15.6598C44.8706 16.1398 45.1206 17.0298 45.3806 16.9598C47.7606 16.3298 49.6506 19.4298 52.1106 17.8098L52.1206 17.8198Z" fill="white"/>
<path d="M51.2705 19.1602C49.1405 22.6002 50.7505 24.7602 54.0805 26.9002C53.0305 24.0102 52.1605 21.6102 51.2705 19.1602Z" fill="white"/>
<path d="M42.1204 17.0804C42.9804 16.7104 43.3504 15.9704 43.3904 15.2204C43.4704 14.0204 44.0804 11.9404 42.8004 11.8704C41.1304 11.7804 42.6704 13.5804 42.3504 14.5304C42.0904 15.3004 41.6704 16.1704 42.1204 17.0804Z" fill="white"/>
<path d="M903.3 20.2893C903.81 20.2893 904.29 20.3893 904.72 20.6593C905.38 21.0793 905.72 21.6993 905.81 22.4593C905.86 22.8793 905.87 23.2993 905.74 23.7093C905.55 24.2893 905.17 24.7093 904.64 24.9793C904.09 25.2593 903.51 25.3793 902.89 25.3193C902.34 25.2693 901.9 24.9893 901.51 24.6093C901.05 24.1393 900.72 23.5993 900.72 22.9293C900.71 21.9693 900.98 21.1293 901.87 20.6093C902.26 20.3793 902.69 20.2993 903.13 20.2793C903.19 20.2793 903.24 20.2793 903.3 20.2793V20.2893Z" fill="white"/>
<path d="M900.49 30.8204C900.62 30.8404 900.74 30.8304 900.85 30.8704C900.99 30.9104 901.05 31.0104 901.02 31.1404C901 31.2304 900.95 31.2604 900.87 31.2304C900.86 31.2304 900.85 31.2304 900.84 31.2204C900.55 31.1004 900.43 31.1404 900.25 31.4004C900.35 31.4404 900.45 31.4104 900.55 31.4004C900.87 31.3904 901.02 31.6004 900.89 31.9004C900.88 31.9304 900.86 31.9604 900.85 31.9904C900.65 32.3104 900.68 32.6304 900.83 32.9604C900.87 33.0304 900.9 33.1104 900.89 33.2004C900.89 33.2804 900.87 33.3504 900.78 33.3804C900.69 33.4004 900.62 33.3804 900.56 33.3004C900.5 33.2204 900.48 33.1304 900.48 33.0304C900.48 32.9304 900.48 32.8304 900.45 32.7304C900.39 32.5404 900.26 32.4304 900.08 32.3804C899.97 32.3404 899.87 32.3804 899.79 32.4704C899.58 32.6704 899.56 32.9804 899.73 33.2304C899.74 33.1504 899.8 33.0904 899.85 33.0304C899.95 32.9204 899.95 32.8604 899.85 32.7504C899.81 32.7004 899.81 32.6704 899.85 32.6304C899.93 32.5604 900.09 32.5504 900.18 32.6104C900.22 32.6404 900.25 32.6804 900.24 32.7304C900.22 32.8604 900.24 33.0004 900.27 33.1304C900.33 33.3704 900.27 33.6004 900.21 33.8304C900.2 33.8704 900.19 33.9204 900.18 33.9604C900.12 34.1004 899.98 34.1204 899.89 34.0004C899.84 33.9404 899.8 33.8704 899.75 33.8104C899.72 33.7804 899.69 33.7604 899.66 33.8104C899.45 34.2404 899.12 34.5604 898.71 34.8104C898.71 34.8104 898.71 34.8204 898.7 34.8304C899 34.8404 899.3 34.6804 899.45 34.4404C899.54 34.2904 899.77 34.2804 899.87 34.4404C899.89 34.4804 899.89 34.5204 899.85 34.5504C899.67 34.6904 899.57 34.8904 899.44 35.0604C899.29 35.2404 899.13 35.4104 898.97 35.5804C898.48 36.1104 898.22 36.7404 898.14 37.4504C898.05 38.2404 898.11 39.0104 898.45 39.7404C898.79 40.4804 899.27 41.1204 900 41.5204C900.5 41.7904 901.04 41.9204 901.59 42.0304C901.73 42.0604 901.88 42.0804 902.02 42.1004C902.16 42.1204 902.21 42.1904 902.2 42.3304C902.19 42.4404 902.1 42.4904 901.96 42.4704C901.54 42.4104 901.12 42.3204 900.71 42.1904C900.06 41.9904 899.47 41.7004 898.97 41.2404C898.52 40.8204 898.22 40.3004 898 39.7204C897.52 38.4504 897.57 37.2104 898.18 36.0004C898.25 35.8604 898.34 35.7204 898.36 35.5504C898.3 35.5804 898.27 35.6304 898.25 35.6704C897.76 36.3304 897.51 37.0804 897.5 37.9004C897.48 39.5704 898.12 40.9204 899.53 41.8504C900.17 42.2704 900.9 42.4704 901.66 42.5604C901.77 42.5704 901.88 42.5904 901.99 42.6204C902.11 42.6504 902.16 42.7304 902.14 42.8504C902.1 43.1304 901.98 43.2404 901.7 43.1904C900.71 43.0204 899.75 42.7604 898.92 42.1804C898 41.5504 897.3 40.7204 896.89 39.6704C896.82 39.5004 896.83 39.3504 896.95 39.2004C897.23 38.8204 897.29 38.3904 897.27 37.9304C897.26 37.6404 897.21 37.3504 897.17 37.0704C897.08 36.3904 897.31 35.8304 897.77 35.3404C897.89 35.2104 898.02 35.0904 898.16 34.9904C898.17 34.9804 898.19 34.9704 898.2 34.9504C898.23 34.9204 898.25 34.8904 898.24 34.8504C898.23 34.8104 898.18 34.8204 898.15 34.8204C897.94 34.8204 897.73 34.8204 897.52 34.7804C897.23 34.7304 897.1 34.5804 897.09 34.2804C897.09 34.2004 897.09 34.1204 897.09 34.0504C897.07 33.8704 897.15 33.7404 897.3 33.6504C897.42 33.5804 897.53 33.5104 897.65 33.4404C897.73 33.3904 897.82 33.4004 897.9 33.4404C898 33.4904 898.03 33.5804 897.96 33.6804C897.92 33.7504 897.86 33.8204 897.84 33.9004C897.82 33.9804 897.84 34.0404 897.9 34.0904C898.02 34.1804 898.16 34.1904 898.29 34.1404C898.41 34.1004 898.46 34.0004 898.46 33.8804C898.47 33.6804 898.49 33.4904 898.46 33.2904C898.44 33.1704 898.4 33.0504 898.33 32.9504C898.19 32.7304 898.16 32.4904 898.27 32.2504C898.36 32.0304 898.38 31.8104 898.35 31.5804C898.31 31.2404 898.4 30.9304 898.64 30.6804C898.84 30.4704 899.08 30.4504 899.33 30.6004C899.41 30.6504 899.48 30.6904 899.55 30.7404C899.69 30.8404 899.81 30.9604 899.86 31.1404C899.86 31.1604 899.86 31.1904 899.89 31.1904C899.91 31.1904 899.93 31.1604 899.94 31.1504C899.96 31.1004 899.94 31.0504 899.92 31.0004C899.75 30.7404 899.76 30.6004 899.99 30.3704C900.07 30.2904 900.15 30.2204 900.21 30.1204C900.26 30.0504 900.32 30.0304 900.4 30.0604C900.63 30.1504 900.86 30.2404 901.1 30.3304C901.22 30.3804 901.24 30.4204 901.18 30.5404C901.18 30.5404 901.18 30.5404 901.18 30.5504C901.09 30.7804 901.07 30.7904 900.84 30.6804C900.68 30.6004 900.6 30.6304 900.51 30.7904L900.49 30.8204ZM898.68 32.6604C898.68 32.7404 898.68 32.8204 898.68 32.8904C898.69 33.0004 898.73 33.1004 898.84 33.1304C898.96 33.1704 899.06 33.1104 899.14 33.0304C899.19 32.9804 899.22 32.9204 899.24 32.8504C899.28 32.6404 899.21 32.4504 899.11 32.2704C899.07 32.1904 899 32.1404 898.9 32.1504C898.79 32.1704 898.74 32.2304 898.71 32.3304C898.67 32.4404 898.68 32.5504 898.68 32.6604Z" fill="white"/>
<path d="M911.33 25.56C911.33 25.44 911.33 25.3401 911.33 25.2401C911.33 25.1801 911.33 25.11 911.35 25.05C911.36 24.97 911.41 24.9201 911.48 24.9001C911.54 24.8801 911.6 24.8901 911.64 24.9401C911.68 24.9901 911.64 25.0401 911.62 25.0801C911.5 25.2601 911.52 25.42 911.67 25.56C911.7 25.59 911.72 25.6301 911.77 25.6001C911.82 25.5801 911.83 25.5401 911.82 25.4901C911.82 25.4001 911.82 25.3 911.82 25.21C911.82 24.95 912.05 24.8201 912.28 24.9401C912.35 24.9801 912.42 25.0301 912.47 25.0901C912.72 25.4001 913.05 25.4 913.39 25.3C913.51 25.27 913.62 25.23 913.75 25.21C913.82 25.21 913.9 25.2101 913.97 25.2501C914.07 25.3101 914.08 25.39 914.01 25.48C913.96 25.54 913.9 25.5901 913.86 25.6601C913.81 25.7401 913.83 25.8101 913.91 25.8501C914.02 25.9101 914.15 25.9101 914.27 25.9201C914.4 25.9201 914.53 25.9501 914.63 26.0401C914.66 26.0701 914.69 26.09 914.71 26.14C914.55 26.18 914.4 26.2101 914.24 26.2501C914.43 26.3101 914.55 26.4501 914.68 26.5801C914.8 26.7001 914.92 26.8001 915.09 26.8401C915.15 26.8501 915.19 26.91 915.2 26.97C915.22 27.05 915.24 27.14 915.26 27.22C915.29 27.34 915.34 27.4301 915.46 27.4801C915.52 27.5001 915.54 27.5601 915.57 27.6001C915.61 27.6701 915.65 27.6801 915.7 27.6001C915.81 27.4301 915.81 27.4401 915.99 27.5401C916.08 27.5901 916.15 27.67 916.23 27.72C916.28 27.76 916.36 27.8201 916.41 27.7601C916.45 27.7201 916.38 27.6501 916.35 27.6001C916.29 27.5301 916.22 27.4801 916.14 27.4401C915.85 27.3201 915.62 27.12 915.42 26.89C915.34 26.8 915.26 26.72 915.17 26.63C915.07 26.53 915.06 26.4801 915.12 26.4201C915.19 26.3501 915.24 26.3601 915.34 26.4501C915.88 26.9801 916.5 27.3901 917.21 27.6501C918.09 27.9701 918.99 28.0801 919.91 27.8301C921.08 27.5201 921.85 26.7601 922.32 25.6601C922.48 25.2801 922.6 24.9 922.57 24.48C922.57 24.43 922.57 24.3801 922.58 24.3401C922.6 24.1601 922.71 24.09 922.89 24.13C922.97 24.15 923.01 24.1901 923.01 24.2801C922.98 24.6601 922.96 25.0501 922.84 25.4201C922.35 26.9601 921.31 27.8801 919.72 28.1701C919.2 28.2701 918.68 28.2201 918.16 28.1601C917.66 28.1001 917.17 27.9901 916.7 27.7801C916.63 27.7501 916.55 27.7201 916.45 27.7601C916.5 27.8001 916.54 27.8301 916.58 27.8601C916.98 28.1501 917.44 28.2801 917.92 28.3401C918.5 28.4101 919.08 28.4301 919.66 28.3501C921.04 28.1601 922.59 27.1501 923 25.3201C923.08 24.9801 923.14 24.64 923.12 24.3C923.12 24.17 923.17 24.1301 923.29 24.1501C923.36 24.1601 923.43 24.18 923.49 24.21C923.71 24.28 923.77 24.3701 923.72 24.6001C923.63 24.9801 923.55 25.3701 923.45 25.7501C923.28 26.3801 923.05 26.9901 922.65 27.5101C922.06 28.2901 921.33 28.8901 920.4 29.2401C920.21 29.3101 920.06 29.3001 919.91 29.1501C919.56 28.8101 919.13 28.7301 918.66 28.7501C918.37 28.7601 918.09 28.8301 917.8 28.8601C917.05 28.9501 916.39 28.7801 915.88 28.1801C915.81 28.1001 915.73 28.0401 915.68 27.9501C915.65 27.8901 915.6 27.8501 915.53 27.8701C915.46 27.8901 915.42 27.9501 915.42 28.0201C915.42 28.1101 915.42 28.1901 915.39 28.2701C915.25 28.8601 914.51 29.1101 914.06 28.7001C913.94 28.5901 913.9 28.4701 913.95 28.3601C914 28.2601 914.07 28.2301 914.18 28.2601C914.26 28.2901 914.33 28.35 914.4 28.39C914.53 28.47 914.62 28.4501 914.69 28.3101C914.78 28.1501 914.77 28.0101 914.64 27.8701C914.47 27.6701 914.25 27.6401 914.01 27.6601C913.75 27.6901 913.48 27.6901 913.22 27.7601C913.08 27.7901 912.94 27.76 912.84 27.64C912.77 27.57 912.7 27.5701 912.63 27.6201C912.43 27.7701 912.23 27.7601 912.01 27.6901C911.82 27.6301 911.65 27.5401 911.44 27.5401C911.38 27.5401 911.35 27.4901 911.34 27.4401C911.34 27.3401 911.3 27.2401 911.28 27.1501C911.24 26.9701 911.21 26.7801 911.01 26.6601C911.23 26.5501 911.45 26.6801 911.67 26.5901C911.61 26.5501 911.56 26.5301 911.52 26.5001C911.28 26.3501 911.06 26.1801 910.84 26.0001C910.64 25.8401 910.57 25.63 910.66 25.38C910.73 25.2 910.77 25.0201 910.77 24.8301C910.77 24.7401 910.81 24.7201 910.9 24.7301C911.07 24.7601 911.14 24.8201 911.16 25.0001C911.16 25.1101 911.16 25.2201 911.18 25.3301C911.18 25.4201 911.23 25.5001 911.34 25.5401L911.33 25.56ZM913.47 25.9001C913.2 25.7101 912.83 25.79 912.68 26.06C912.59 26.23 912.61 26.4001 912.74 26.5401C912.94 26.7401 913.15 26.7601 913.39 26.6001C913.45 26.5601 913.47 26.5101 913.42 26.4501C913.37 26.3901 913.31 26.34 913.25 26.3C913.22 26.28 913.18 26.2201 913.14 26.2701C913.09 26.3101 913.14 26.35 913.15 26.39C913.19 26.48 913.17 26.5101 913.07 26.5201C912.95 26.5301 912.86 26.4601 912.83 26.3301C912.79 26.1801 912.83 26.1 912.95 26.05C913.12 25.98 913.29 25.9601 913.48 25.9101L913.47 25.9001ZM912.57 26.9001C912.64 27.0301 912.72 27.1301 912.81 27.2301C912.99 27.4501 913.15 27.4601 913.35 27.2501C913.42 27.1801 913.48 27.1101 913.45 27.0001C913.42 26.8901 913.33 26.8501 913.23 26.8301C913.01 26.7901 912.8 26.85 912.57 26.88V26.9001Z" fill="white"/>
<path d="M908.159 41.1504C908.039 41.1704 907.94 41.2404 907.84 41.3004C907.78 41.3304 907.719 41.3604 907.669 41.4104C907.089 41.9104 906.38 42.1004 905.65 42.2204C905.44 42.2504 905.239 42.2904 905.039 42.3304C904.999 42.3304 904.949 42.3304 904.909 42.3304C904.809 42.3304 904.78 42.2604 904.77 42.1804C904.77 42.1004 904.83 42.0904 904.89 42.0804C905.42 41.9804 905.94 41.8704 906.46 41.7104C908.09 41.2004 908.87 39.6004 908.77 38.2904C908.73 37.7804 908.57 37.3004 908.38 36.8304C908.17 36.2904 907.87 35.8004 907.49 35.3604C907.26 35.1004 907.08 34.8004 906.9 34.5004C906.8 34.3304 906.83 34.2604 907.03 34.2104C907.14 34.1804 907.249 34.1604 907.349 34.1404C907.349 34.1104 907.34 34.1004 907.32 34.0804C907.1 33.7804 907.09 33.4504 907.24 33.1204C907.33 32.9304 907.38 32.7404 907.32 32.5304C907.29 32.4104 907.23 32.3204 907.13 32.2504C906.86 32.0604 906.599 32.1704 906.539 32.4904C906.519 32.6204 906.509 32.7504 906.469 32.8704C906.419 33.0104 906.309 33.0804 906.159 33.0804C906.069 33.0804 906.01 33.0304 906.03 32.9404C906.1 32.6604 905.97 32.4304 905.84 32.2004C905.78 32.0904 905.72 31.9704 905.7 31.8404C905.67 31.6504 905.75 31.5104 905.94 31.4204C906.12 31.3304 906.28 31.3604 906.4 31.5004C906.51 31.6304 906.559 31.7904 906.609 31.9504C906.739 31.7504 906.68 31.4804 906.57 31.3504C906.33 31.0604 906.03 31.0104 905.63 31.1804C905.6 30.9704 905.69 30.8504 905.89 30.8304C905.97 30.8304 906.06 30.8104 906.14 30.8004C906.21 30.7904 906.209 30.7604 906.159 30.7104C906.029 30.5804 905.87 30.5504 905.7 30.6004C905.65 30.6104 905.589 30.6404 905.539 30.6304C905.459 30.6304 905.41 30.5804 905.39 30.5004C905.37 30.4204 905.409 30.3704 905.479 30.3404C905.709 30.2704 905.94 30.1604 906.18 30.1204C906.56 30.0504 906.959 30.2704 907.049 30.6104C907.089 30.7604 907.089 30.7604 907.229 30.7004C907.309 30.6604 907.399 30.6204 907.479 30.5804C907.939 30.3304 908.59 30.6404 908.68 31.1604C908.71 31.3504 908.66 31.5204 908.57 31.6804C908.45 31.8804 908.409 32.0904 908.469 32.3204C908.539 32.6304 908.439 32.9004 908.289 33.1604C908.209 33.3004 908.12 33.4404 908.14 33.6104C908.17 33.8304 908.25 34.0304 908.4 34.1904C908.53 34.3304 908.7 34.3604 908.83 34.2804C908.94 34.2104 908.96 34.1104 908.89 33.9904C908.85 33.9304 908.81 33.8804 908.77 33.8104C908.72 33.7304 908.719 33.6404 908.789 33.5604C908.849 33.4804 908.929 33.4404 909.039 33.4604C909.069 33.4604 909.1 33.4704 909.12 33.4904C909.27 33.5904 909.43 33.6604 909.59 33.7204C909.69 33.7604 909.729 33.8404 909.719 33.9404C909.689 34.2304 909.589 34.4804 909.359 34.6704C909.239 34.7604 909.11 34.8204 908.96 34.8104C908.81 34.8104 908.669 34.8504 908.549 34.9504C908.329 35.1204 908.139 35.0904 907.979 34.8604C907.949 34.8104 907.92 34.7704 907.87 34.7304C907.81 34.6904 907.76 34.6904 907.71 34.7304C907.65 34.7804 907.67 34.8404 907.71 34.8804C907.93 35.0904 908.04 35.3604 908.19 35.6104C908.29 35.7704 908.399 35.9304 908.599 36.0404C908.489 35.7204 908.29 35.4904 908.13 35.2204C908.67 35.0304 909.25 35.2604 909.52 35.7804C909.79 36.3104 909.869 36.8704 909.719 37.4404C909.549 38.0704 909.64 38.6604 910.02 39.1904C910.15 39.3804 910.17 39.5504 910.08 39.7604C909.5 41.1904 908.46 42.1204 907.02 42.6204C906.44 42.8204 905.86 42.9704 905.27 43.1204C905.08 43.1704 904.97 43.1204 904.9 42.9404C904.75 42.5904 904.799 42.5204 905.169 42.4604C905.809 42.3604 906.439 42.2304 907.039 41.9704C907.329 41.8404 907.619 41.6904 907.859 41.4804C907.979 41.3704 908.089 41.2504 908.159 41.1004C908.219 41.1204 908.259 41.0804 908.299 41.0404C908.929 40.4004 909.249 39.6204 909.299 38.7304C909.339 37.9304 909.149 37.1804 908.799 36.4604C908.789 36.4404 908.79 36.4004 908.75 36.4004C908.75 36.4204 908.75 36.4304 908.75 36.4504C908.84 36.9804 908.93 37.5104 909.03 38.0404C909.11 38.4904 909.12 38.9504 909.02 39.4004C908.92 39.8404 908.72 40.2304 908.44 40.5804C908.31 40.7404 908.209 40.9104 908.169 41.1104L908.159 41.1504ZM907.71 32.0504C907.61 32.2404 907.52 32.4104 907.44 32.5804C907.39 32.6804 907.419 32.7804 907.469 32.8704C907.529 32.9704 907.589 33.0604 907.659 33.1604C907.689 33.2104 907.739 33.2204 907.789 33.1904C907.929 33.1204 908.05 32.8504 908.01 32.7004C907.95 32.4704 907.82 32.2804 907.71 32.0504ZM908.32 31.4604C908.32 31.2904 908.129 31.0304 907.979 31.0004C907.899 30.9804 907.82 31.0004 907.77 31.0604C907.71 31.1304 907.68 31.2004 907.71 31.3004C907.73 31.3704 907.77 31.4304 907.82 31.4804C907.84 31.5004 907.85 31.5604 907.9 31.5304C907.94 31.5004 907.95 31.4704 907.94 31.4204C907.93 31.3804 907.91 31.3504 907.9 31.3204C907.89 31.2804 907.9 31.2504 907.94 31.2304C908.03 31.2004 908.11 31.2404 908.14 31.3304C908.15 31.3704 908.149 31.4204 908.169 31.4604C908.189 31.5204 908.19 31.6304 908.25 31.6204C908.31 31.6204 908.32 31.5104 908.33 31.4604H908.32Z" fill="white"/>
<path d="M918.76 16.5205C918.95 16.6105 919.13 16.5905 919.29 16.5005C919.38 16.4505 919.47 16.3905 919.56 16.3305C919.81 16.1605 920.07 16.1505 920.34 16.2805C922 17.0405 923.01 18.3305 923.43 20.1005C923.49 20.3405 923.53 20.5905 923.57 20.8305C923.57 20.9005 923.61 20.9605 923.64 21.0205C923.72 21.1905 923.68 21.2705 923.51 21.3305C923.17 21.4505 923.06 21.3705 923.01 21.0205C922.88 20.1405 922.63 19.3105 922.07 18.6005C921.29 17.6005 920.27 17.0305 918.98 17.0205C918.22 17.0205 917.51 17.2605 916.85 17.6305C916.37 17.9005 915.93 18.2205 915.5 18.5605C915.47 18.5805 915.45 18.6005 915.41 18.6205C915.48 18.4305 915.51 18.2405 915.51 18.0405C915.51 17.9405 915.51 17.8305 915.51 17.7305C915.52 17.4505 915.6 17.2005 915.84 17.0305C915.75 16.9805 915.74 16.9805 915.6 17.0605C915.47 17.1405 915.35 17.1105 915.29 16.9805C915.24 16.8905 915.26 16.8405 915.36 16.8205C915.55 16.7605 915.72 16.6605 915.86 16.5305C916.1 16.3005 916.06 15.9405 915.78 15.7505C915.73 15.7105 915.67 15.6905 915.6 15.7105C915.47 15.7505 915.44 15.8305 915.52 15.9505C915.58 16.0405 915.65 16.1105 915.66 16.2205C915.67 16.4005 915.57 16.5105 915.43 16.5905C915.3 16.6705 915.16 16.6705 915.03 16.5805C914.71 16.3605 914.62 15.9205 914.84 15.5905C914.88 15.5305 914.92 15.4705 914.96 15.4205C915.13 15.2105 915.33 15.1305 915.6 15.2105C916.11 15.3605 916.62 15.3205 917.11 15.1605C917.6 15.0005 918.07 15.0705 918.53 15.2705C918.81 15.4005 919.09 15.5205 919.39 15.5805C919.54 15.6105 919.68 15.6305 919.83 15.6105C919.93 15.6105 919.92 15.6405 919.89 15.7105C919.8 15.9005 919.67 16.0405 919.49 16.1505C919.32 16.2605 919.12 16.3305 918.94 16.4205C918.88 16.4505 918.82 16.4805 918.74 16.5205H918.76ZM916.2 16.7405C916.75 16.5005 917.33 16.4705 917.92 16.4705C917.3 16.2905 916.73 16.3705 916.2 16.7405Z" fill="white"/>
<path d="M912.99 19.8599C912.96 19.7899 912.91 19.7499 912.87 19.6899C912.78 19.5699 912.7 19.4499 912.78 19.3099C912.88 19.1499 913.02 19.0499 913.22 19.0599C913.31 19.0599 913.4 19.0899 913.49 19.1299C913.92 19.3299 914.36 19.2999 914.79 19.1299C915.33 18.9099 915.82 18.5799 916.29 18.2399C916.47 18.1099 916.65 17.9699 916.83 17.8399C917.99 17.0199 919.22 16.9499 920.49 17.5199C921.28 17.8699 921.82 18.4999 922.25 19.2299C922.59 19.8099 922.8 20.4399 922.87 21.1099C922.89 21.3299 922.81 21.4399 922.64 21.4399C922.53 21.4399 922.49 21.3999 922.48 21.2899C922.38 20.1899 921.98 19.2199 921.2 18.4399C920.71 17.9599 920.14 17.6099 919.46 17.4899C918.83 17.3799 918.23 17.4899 917.65 17.7499C917.04 18.0199 916.51 18.4099 915.98 18.8099C915.79 18.9499 915.61 19.0899 915.42 19.2299C915.02 19.5199 914.58 19.6899 914.08 19.6999C914.02 19.6999 913.96 19.7099 913.9 19.7299C913.74 19.7799 913.7 19.8999 913.79 20.0399C913.84 20.1099 913.9 20.1699 913.97 20.2199C914.04 20.2699 914.11 20.3099 914.18 20.3599C914.07 20.4999 913.87 20.5499 913.68 20.4999C913.61 20.4799 913.54 20.4499 913.47 20.4199C913.18 20.2799 912.9 20.2999 912.62 20.4599C912.51 20.5299 912.4 20.5999 912.27 20.6299C912.08 20.6899 911.96 20.6299 911.9 20.4399C911.88 20.3699 911.86 20.2899 911.86 20.2099C911.86 20.1199 911.82 20.1199 911.76 20.1599C911.64 20.2399 911.6 20.2899 911.64 20.4399C911.67 20.5599 911.7 20.6799 911.73 20.8099C911.39 20.7199 911.29 20.5199 911.39 20.1299C911.29 20.1999 911.26 20.2999 911.24 20.4099C911.22 20.5199 911.21 20.6399 911.19 20.7499C911.16 20.9099 911.03 21.0099 910.87 21.0099C910.83 21.0099 910.81 21.0099 910.79 20.9599C910.71 20.6799 910.58 20.4199 910.54 20.1299C910.51 19.9599 910.56 19.8099 910.66 19.6699C910.77 19.5199 910.92 19.3899 911.07 19.2699C911.14 19.2099 911.12 19.1899 911.05 19.1599C910.98 19.1299 910.9 19.1099 910.83 19.0799C910.74 19.0499 910.66 18.9899 910.67 18.8999C910.68 18.8299 910.79 18.8299 910.86 18.8099C910.98 18.7899 911.08 18.8399 911.15 18.9299C911.17 18.9499 911.19 18.9799 911.2 18.9999C911.3 19.1799 911.45 19.2899 911.66 19.2599C911.89 19.2299 912.09 19.1199 912.19 18.8999C912.28 18.7199 912.19 18.5599 912.07 18.3799C912.06 18.5199 912.05 18.6399 912.04 18.7499C912.02 18.9599 911.93 19.0499 911.7 19.0999C911.47 19.1499 911.39 19.1099 911.27 18.9299C911.21 18.8299 911.13 18.7299 911.07 18.6199C910.99 18.4899 910.99 18.3599 911.09 18.2299C911.17 18.1199 911.23 17.9999 911.31 17.8999C911.44 17.7199 911.62 17.6199 911.83 17.6899C912.27 17.8299 912.73 17.7999 913.18 17.8199C913.4 17.8199 913.61 17.8599 913.81 17.9599C914.01 18.0599 914.2 18.0399 914.4 17.9399C914.55 17.8699 914.68 17.7699 914.79 17.6499C914.87 17.5699 914.91 17.4799 914.86 17.3699C914.8 17.2399 914.71 17.1299 914.55 17.1299C914.42 17.1299 914.32 17.1899 914.27 17.3099C914.27 17.3099 914.27 17.3199 914.27 17.3299C914.21 17.4799 914.16 17.5099 914.05 17.4599C913.93 17.3999 913.88 17.2699 913.94 17.1599C914 17.0599 914.04 16.9599 914.08 16.8499C914.13 16.7199 914.22 16.6699 914.36 16.6699C914.63 16.6699 914.86 16.7799 915.03 16.9899C915.4 17.4299 915.42 18.1499 915.09 18.6099C914.75 19.0799 914.05 19.2299 913.53 18.9399C913.18 18.7499 912.83 18.8199 912.64 19.1199C912.62 19.1499 912.6 19.1899 912.58 19.2299C912.43 19.5999 912.56 19.8299 912.96 19.8799L912.99 19.8599ZM913.1 18.6599C913.16 18.6599 913.21 18.6599 913.27 18.6599C913.38 18.6599 913.45 18.5999 913.48 18.4899C913.51 18.3599 913.48 18.2399 913.4 18.1899C913.19 18.0499 912.82 18.1899 912.76 18.4399C912.73 18.5499 912.76 18.6099 912.87 18.6299C912.95 18.6499 913.02 18.6499 913.1 18.6599ZM912.26 18.1299C911.91 18.0299 911.68 18.1299 911.55 18.3999C911.53 18.4299 911.52 18.4699 911.53 18.5099C911.53 18.5999 911.63 18.6699 911.72 18.6499C911.85 18.6299 911.76 18.5499 911.75 18.5099C911.72 18.3499 911.75 18.2999 911.91 18.2599C911.95 18.2599 911.99 18.2599 912.03 18.2399C912.11 18.2199 912.2 18.2099 912.26 18.1299Z" fill="white"/>
<path d="M892.27 26.3793C892.48 26.3193 892.67 26.3793 892.85 26.4893C892.95 26.5493 893.05 26.6093 893.15 26.6693C893.23 26.7093 893.22 26.7593 893.15 26.7993C893.09 26.8393 893.03 26.8693 892.97 26.9093C892.85 26.9793 892.84 27.0493 892.91 27.1693C893.01 27.3193 893.17 27.3793 893.36 27.3193C893.51 27.2793 893.65 27.2093 893.81 27.1893C893.86 27.1893 893.91 27.1593 893.92 27.1093C893.92 27.0693 893.87 27.0493 893.84 27.0293C893.74 26.9593 893.62 26.9293 893.53 26.8393C893.44 26.7493 893.45 26.7393 893.55 26.6693C893.75 26.5393 893.81 26.3993 893.76 26.1993C893.71 26.0193 893.57 25.9293 893.4 25.9293C893.13 25.9293 892.93 25.8193 892.77 25.6093C892.69 25.5093 892.58 25.4193 892.46 25.3593C892.6 25.2193 892.75 25.2093 892.92 25.2493C893.13 25.2993 893.34 25.3493 893.56 25.2993C893.66 25.2693 893.76 25.2393 893.85 25.1893C893.96 25.1393 894.06 25.0893 894.18 25.0593C894.38 25.0193 894.51 25.0893 894.56 25.2793C894.58 25.3493 894.59 25.4293 894.59 25.4993C894.59 25.5793 894.63 25.5793 894.68 25.5393C894.77 25.4893 894.8 25.4193 894.78 25.3193C894.76 25.2393 894.74 25.1593 894.72 25.0793C894.7 25.0093 894.73 24.9893 894.8 25.0093C894.92 25.0293 894.99 25.0993 895.02 25.2193C895.04 25.2993 895.05 25.3793 895.06 25.4593C895.06 25.5093 895.09 25.5193 895.14 25.4993C895.21 25.4693 895.25 25.4293 895.26 25.3493C895.26 25.3093 895.26 25.2593 895.26 25.2193C895.25 25.0493 895.3 24.9593 895.46 24.8993C895.51 24.8793 895.57 24.8593 895.62 24.8493C895.76 24.8093 895.81 24.8393 895.84 24.9793C895.89 25.2093 895.95 25.4393 896.06 25.6593C896.09 25.7293 896.19 25.7793 896.16 25.8493C896.14 25.8993 896.03 25.9193 895.97 25.9493C895.88 25.9893 895.81 26.0593 895.76 26.1493C895.66 26.3293 895.53 26.3893 895.34 26.2893C894.97 26.0993 894.66 26.3093 894.4 26.6393C894.31 26.7493 894.36 26.9393 894.49 27.0893C894.61 27.2193 894.71 27.2393 894.87 27.1693C894.96 27.1293 895.04 27.0893 895.12 27.1993C895.16 27.2593 895.21 27.1993 895.22 27.1493C895.25 27.0793 895.23 27.0093 895.18 26.9493C895.12 26.8893 895.05 26.8693 894.98 26.8993C894.93 26.9193 894.88 26.9493 894.83 26.9793C894.74 27.0193 894.66 27.0493 894.58 26.9593C894.51 26.8693 894.5 26.7693 894.56 26.6693C894.75 26.3993 895.11 26.3493 895.36 26.5593C895.5 26.6793 895.63 26.8093 895.67 26.9993C895.73 27.2593 895.62 27.5193 895.38 27.6793C895.06 27.8893 894.71 27.9393 894.35 27.7793C894.2 27.7093 894.05 27.6993 893.9 27.7393C893.68 27.7993 893.46 27.7793 893.25 27.6793C893.2 27.6593 893.16 27.6393 893.11 27.6093C892.66 27.3293 892.34 27.3693 891.87 27.7593C891.8 27.8193 891.78 27.8893 891.81 27.9793C891.85 28.0893 891.89 28.1993 891.85 28.3293C891.84 28.3693 891.88 28.4093 891.91 28.4193C892.01 28.4593 892.11 28.4893 892.21 28.4893C892.29 28.4893 892.35 28.4493 892.38 28.3693C892.39 28.3393 892.4 28.3093 892.41 28.2893C892.43 28.1993 892.46 28.1193 892.56 28.1293C892.66 28.1293 892.73 28.1893 892.75 28.2993C892.83 28.6293 892.58 28.9193 892.21 28.9393C892.08 28.9393 891.94 28.9393 891.81 28.8893C891.49 28.7993 891.28 28.5693 891.27 28.2193C891.26 27.5793 891.39 26.9793 891.98 26.5993C892.02 26.5793 892.05 26.5493 892.09 26.5193C892.177 26.4526 892.187 26.3759 892.12 26.2893C891.93 26.0393 891.84 26.0393 891.71 26.3193C891.62 26.5293 891.48 26.6393 891.27 26.7193C890.87 26.8693 890.55 27.1593 890.22 27.4293C889.9 27.6993 889.6 27.9793 889.23 28.1593C888.23 28.6693 887.22 28.6493 886.23 28.1693C884.86 27.5093 884.12 26.3793 883.88 24.8993C883.85 24.7193 883.84 24.5293 883.82 24.3493C883.81 24.2293 883.84 24.1793 883.94 24.1593C884.03 24.1393 884.1 24.1793 884.12 24.2893C884.19 24.5993 884.26 24.9093 884.35 25.2193C884.52 25.7793 884.72 26.3293 885.08 26.7993C886.26 28.3493 888.45 28.5593 889.91 27.2693C890.25 26.9593 890.59 26.6393 890.98 26.3993C891.44 26.1093 891.95 25.9493 892.47 25.8493C892.77 25.7893 893.03 25.9293 893.26 26.1193C893.33 26.1793 893.32 26.2593 893.28 26.3293C893.23 26.4093 893.17 26.3893 893.1 26.3693C892.91 26.3093 892.72 26.2493 892.51 26.2793C892.43 26.2893 892.35 26.3193 892.3 26.3893L892.27 26.3793Z" fill="white"/>
<path d="M892.61 20.4196C892.69 20.3096 892.77 20.2196 892.82 20.1096C892.89 19.9596 892.85 19.8596 892.69 19.8096C892.58 19.7796 892.47 19.7596 892.36 19.7396C892.17 19.6996 892.02 19.6096 891.96 19.4096C891.95 19.3696 891.92 19.3596 891.89 19.3496C891.45 19.2596 891.09 19.0096 890.74 18.7296C890.42 18.4796 890.13 18.1996 889.77 17.9996C889.09 17.6296 888.37 17.4896 887.6 17.5396C886.89 17.5796 886.22 17.7696 885.6 18.1396C885.01 18.4896 884.65 19.0096 884.39 19.6196C884.18 20.1296 884.07 20.6696 884.02 21.2196C884.02 21.2696 884.02 21.3196 884.02 21.3596C884.02 21.4296 884.02 21.5096 883.95 21.5396C883.88 21.5696 883.8 21.5696 883.74 21.5296C883.67 21.4896 883.67 21.4096 883.68 21.3396C883.76 20.9296 883.82 20.5096 883.92 20.0896C884.07 19.4896 884.28 18.9296 884.66 18.4396C885.21 17.7296 885.95 17.3296 886.82 17.1896C887.85 17.0196 888.83 17.1596 889.77 17.6096C890.32 17.8796 890.81 18.2296 891.25 18.6496C891.36 18.7496 891.48 18.8296 891.59 18.9096C891.73 19.0096 891.85 19.1196 891.91 19.2896C891.92 19.3296 891.95 19.3396 891.98 19.3196C892.17 19.2296 892.37 19.2196 892.58 19.2196C892.78 19.2196 892.98 19.2196 893.17 19.1496C893.19 19.1496 893.22 19.1496 893.23 19.1496C893.3 19.1796 893.36 19.1696 893.43 19.1296C893.49 19.0896 893.56 19.0996 893.59 19.1696C893.62 19.2396 893.65 19.3496 893.56 19.3696C893.36 19.4096 893.23 19.5496 893.07 19.6496C893.05 19.6596 893.02 19.6696 892.99 19.6896C893.05 19.7296 893.11 19.7396 893.17 19.7396C893.33 19.7496 893.47 19.7096 893.61 19.6396C893.83 19.5196 893.9 19.1696 893.75 18.9696C893.68 18.8796 893.58 18.8596 893.47 18.8596C893.34 18.8596 893.21 18.8596 893.09 18.9096C892.76 19.0196 892.43 19.0696 892.08 18.9796C891.57 18.8396 891.3 18.4696 891.14 17.9896C891.1 17.8596 891.07 17.7296 891.05 17.5996C891.03 17.4796 891.05 17.3596 891.11 17.2396C891.26 16.9496 891.48 16.7296 891.78 16.5996C892.02 16.4896 892.16 16.5296 892.35 16.7196C892.42 16.7896 892.48 16.8696 892.52 16.9696C892.55 17.0396 892.56 17.1096 892.53 17.1896C892.49 17.2996 892.43 17.3196 892.33 17.2596C892.28 17.2296 892.23 17.1796 892.18 17.1396C892.09 17.0696 892 17.0596 891.9 17.1196C891.79 17.1796 891.71 17.2596 891.73 17.3996C891.76 17.6096 891.82 17.8096 891.95 17.9796C892.08 18.1596 892.26 18.1996 892.47 18.1696C892.58 18.1496 892.69 18.1196 892.79 18.0796C893.21 17.8796 893.65 17.8596 894.1 17.9196C894.32 17.9496 894.55 17.9696 894.77 18.0196C895.03 18.0796 895.12 18.1996 895.13 18.4696C895.13 18.6396 895.12 18.7996 895.1 18.9696C895.09 19.1296 895.12 19.1796 895.26 19.2296C895.73 19.3696 895.9 19.8596 895.78 20.3096C895.74 20.4596 895.68 20.6096 895.64 20.7496C895.62 20.8096 895.59 20.8196 895.53 20.7996C895.35 20.7396 895.29 20.6696 895.29 20.4696C895.29 20.4296 895.29 20.3796 895.29 20.3396C895.29 20.2796 895.29 20.2196 895.25 20.1696C895.22 20.1196 895.17 20.0596 895.11 20.0696C895.06 20.0796 895.07 20.1596 895.07 20.2096C895.07 20.2696 895.07 20.3296 895.07 20.3896C895.07 20.4496 895.06 20.4996 895.02 20.5496C894.98 20.5996 894.92 20.6496 894.85 20.6296C894.8 20.6196 894.81 20.5396 894.81 20.4896C894.8 20.3896 894.81 20.2796 894.78 20.1796C894.76 20.0996 894.72 20.0296 894.65 19.9696C894.59 19.9196 894.56 19.9396 894.55 20.0096C894.55 20.0396 894.55 20.0796 894.56 20.1096C894.59 20.2096 894.6 20.3096 894.57 20.4196C894.53 20.5796 894.41 20.6396 894.26 20.5896C894.22 20.5796 894.18 20.5596 894.15 20.5396C893.66 20.2396 893.15 20.1896 892.61 20.3896C892.59 20.3896 892.58 20.3896 892.54 20.4096L892.61 20.4196ZM894.02 18.4796C893.83 18.2996 893.64 18.1796 893.41 18.1396C893.25 18.1196 893.11 18.1196 893 18.2696C892.91 18.3996 892.91 18.4296 893.04 18.5096C893.07 18.5296 893.1 18.5496 893.12 18.5696C893.29 18.7496 893.39 18.7696 893.61 18.6496C893.73 18.5796 893.85 18.4996 894.02 18.4796Z" fill="white"/>
<path d="M917.09 23.0897C916.81 23.2497 916.55 23.4297 916.26 23.5797C916.19 23.6197 916.13 23.6397 916.05 23.6597C915.95 23.6797 915.86 23.6597 915.79 23.5897C915.47 23.2597 915.06 23.0797 914.64 22.9097C914.58 22.8897 914.52 22.8597 914.44 22.8297C914.61 22.7397 914.76 22.6697 914.91 22.5897C915.24 22.4297 915.57 22.2797 915.87 22.0697C915.99 21.9797 916.13 21.9897 916.26 22.0397C916.42 22.1097 916.55 22.2197 916.64 22.3597C916.94 22.8197 917.38 22.9597 917.9 22.9397C918.28 22.9297 918.66 22.9197 919.04 22.9197C919.76 22.9197 920.47 22.9197 921.19 22.9197C921.79 22.9197 922.39 22.8997 922.99 22.8697C923.2 22.8597 923.4 22.9097 923.58 22.9997C924.06 23.2297 924.45 23.5597 924.64 24.0697C924.69 24.2097 924.66 24.2597 924.5 24.2497C924.4 24.2497 924.31 24.2097 924.22 24.1797C923.26 23.8897 922.28 23.7997 921.29 23.8197C919.71 23.8497 918.16 24.0997 916.65 24.5597C916.6 24.5797 916.54 24.5897 916.49 24.5897C916.32 24.6097 916.23 24.5497 916.17 24.3897C916.12 24.2497 916.09 24.1097 916.01 23.9797C915.95 23.8797 915.99 23.8097 916.1 23.7797C916.38 23.7197 916.6 23.5597 916.82 23.3997C916.93 23.3197 917.02 23.2197 917.07 23.0897H917.09Z" fill="white"/>
<path d="M910.02 24.6406C909.92 24.9106 909.84 25.1606 909.76 25.4206C909.71 25.5906 909.61 25.6506 909.44 25.6306C909.34 25.6206 909.28 25.5606 909.28 25.4706C909.28 25.3406 909.24 25.2106 909.21 25.0906C909.16 24.8906 909.21 24.7206 909.38 24.6006C909.4 24.5906 909.41 24.5706 909.46 24.5306C909.15 24.6106 908.98 24.4506 908.84 24.2406C908.77 24.1406 908.69 24.0606 908.55 24.0106C908.73 23.9706 908.88 23.9606 909.04 23.9106C909.13 23.8806 909.21 23.8506 909.29 23.7906C909.53 23.6306 909.6 23.4606 909.54 23.1706C909.53 23.1006 909.51 23.0406 909.49 22.9706C909.44 23.0106 909.43 23.0606 909.42 23.1106C909.33 23.5106 909.06 23.7006 908.66 23.7406C908.43 23.7606 908.21 23.7506 907.97 23.7106C908.05 23.6106 908.16 23.5806 908.26 23.5506C908.38 23.5206 908.51 23.5006 908.61 23.4206C908.67 23.3706 908.73 23.3206 908.76 23.2306C908.58 23.3006 908.42 23.3706 908.24 23.4006C908.09 23.4206 907.94 23.4006 907.79 23.3606C907.72 23.3406 907.66 23.3206 907.59 23.3006C907.42 23.2606 907.26 23.2006 907.23 23.0006C907.2 22.7806 907.22 22.5706 907.42 22.4306C907.48 22.3906 907.56 22.3506 907.63 22.3206C907.7 22.2906 907.76 22.2606 907.83 22.2106C907.76 22.1606 907.69 22.1906 907.63 22.2106C907.57 22.2306 907.52 22.2706 907.46 22.2906C907.39 22.3206 907.32 22.3106 907.24 22.2506C907.6 21.9706 907.95 21.7006 908.42 21.6406C908.74 21.6006 908.97 21.7306 909.15 22.0006C909.27 22.1906 909.34 22.4006 909.39 22.6206C909.39 22.6506 909.39 22.6806 909.42 22.7106C909.55 22.5506 909.58 22.3706 909.53 22.1906C909.49 22.0006 909.42 21.8206 909.36 21.6406C909.34 21.5806 909.29 21.5706 909.24 21.5606C909.04 21.5306 908.84 21.5006 908.62 21.4606C908.75 21.2906 908.86 21.1206 909.05 21.0406C909.26 20.9406 909.43 21.0706 909.59 21.1906C909.59 21.0706 909.55 20.9906 909.45 20.9506C909.18 20.8406 909.09 20.6506 909.15 20.3406C909.17 20.2306 909.19 20.1206 909.18 20.0106C909.18 19.9606 909.2 19.9306 909.25 19.9006C909.37 19.8406 909.61 19.9406 909.63 20.0806C909.66 20.3106 909.77 20.5106 909.87 20.7206C909.96 20.6406 909.96 20.5406 909.97 20.4406C909.97 20.2206 910 20.2006 910.19 20.3206C910.34 20.4106 910.41 20.5506 910.46 20.7006C910.6 21.1406 910.69 21.5906 910.75 22.0506C910.85 22.8206 910.82 23.5906 910.69 24.3606C910.64 24.6406 910.52 24.8906 910.26 25.0406C910.24 25.0506 910.21 25.0806 910.2 25.1006C910.17 25.1406 910.18 25.1806 910.2 25.2106C910.23 25.2506 910.26 25.2506 910.3 25.2306C910.34 25.2106 910.4 25.1606 910.43 25.2306C910.47 25.3006 910.39 25.3206 910.35 25.3506C910.31 25.3906 910.27 25.4406 910.24 25.4906C910.2 25.5506 910.15 25.6106 910.07 25.5706C909.99 25.5306 909.95 25.4606 909.96 25.3706C909.97 25.2806 910.02 25.1906 910.05 25.1106C910.11 24.9606 910.1 24.8106 910.02 24.6406Z" fill="white"/>
<path d="M905.78 11.8999C906.06 12.0499 906.21 12.2799 906.25 12.5699C906.28 12.7499 906.31 12.9299 906.4 13.0899C906.5 13.2799 906.66 13.3699 906.87 13.3699C906.99 13.3699 907.08 13.3199 907.14 13.2199C907.33 12.9099 907.27 12.4899 907.01 12.2299C906.96 12.3399 906.98 12.4399 907.01 12.5399C907.06 12.6699 907.08 12.7999 907.04 12.9299C906.99 13.0799 906.91 13.1399 906.74 13.1399C906.6 13.1399 906.49 13.0599 906.48 12.9199C906.46 12.5699 906.4 12.2099 906.46 11.8499C906.48 11.7299 906.53 11.6199 906.58 11.4999C906.6 11.4499 906.64 11.4099 906.7 11.4199C906.77 11.4299 906.8 11.4699 906.81 11.5399C906.81 11.5899 906.8 11.6299 906.78 11.6799C906.72 11.8599 906.76 11.9799 906.94 12.1099C906.89 11.7699 907.06 11.5299 907.22 11.2699C907.28 11.1799 907.34 11.0899 907.36 10.9799C907.38 10.8599 907.46 10.7999 907.56 10.7599C907.98 10.5999 908.41 10.5299 908.85 10.7099C908.96 10.7599 909.07 10.8199 909.18 10.8699C909.48 11.0199 909.55 11.2799 909.54 11.5899C909.54 11.7299 909.46 11.8299 909.36 11.9099C909.25 12.0099 909.12 12.0799 909.01 12.1899C908.96 12.2399 908.9 12.2199 908.85 12.1899C908.78 12.1399 908.74 12.0699 908.78 11.9799C908.81 11.9099 908.86 11.8399 908.9 11.7699C909 11.5499 908.9 11.3699 908.65 11.3599C908.58 11.3599 908.51 11.3599 908.47 11.4299C908.33 11.6699 908.19 11.9099 908.25 12.2099C908.25 12.2299 908.25 12.2499 908.27 12.2699C908.47 12.7199 908.45 13.1799 908.38 13.6499C908.35 13.8699 908.31 14.0999 908.3 14.3199C908.29 14.5299 908.21 14.6299 908 14.6899C907.85 14.7299 907.71 14.7599 907.57 14.8299C907.48 14.8699 907.39 14.8499 907.32 14.7899C907.18 14.6799 907.07 14.5399 906.94 14.4199C906.86 14.3399 906.88 14.2299 906.91 14.1299C906.95 14.0099 907.01 13.9099 907.09 13.8099C906.94 13.8699 906.79 13.9299 906.7 14.0799C906.64 14.1699 906.66 14.2699 906.7 14.3699C906.73 14.4499 906.78 14.5199 906.83 14.5899C906.92 14.7199 906.92 14.8599 906.83 14.9999C906.76 15.1099 906.7 15.2099 906.63 15.3199C906.55 15.4599 906.42 15.4999 906.28 15.4699C906.04 15.4199 905.8 15.3899 905.57 15.2999C905.37 15.2199 905.33 15.1099 905.43 14.9199C905.51 14.7899 905.53 14.6499 905.5 14.4999C905.44 14.0999 905.5 13.7499 905.79 13.4399C905.95 13.2699 905.96 13.0499 905.86 12.8399C905.73 12.5499 905.73 12.2399 905.78 11.9199V11.8999ZM907.55 12.4299C907.5 12.4299 907.45 12.4499 907.41 12.4899C907.3 12.5999 907.28 12.8099 907.38 12.9399C907.43 13.0099 907.5 13.0599 907.54 13.1399C907.57 13.1999 907.59 13.1799 907.63 13.1599C907.74 13.0799 907.82 12.9699 907.88 12.8399C907.93 12.7399 907.9 12.6499 907.84 12.5699C907.76 12.4799 907.66 12.4499 907.54 12.4299H907.55ZM907.83 13.6299C907.78 13.6999 907.77 13.7699 907.76 13.8399C907.75 13.9099 907.75 13.9799 907.71 14.0399C907.68 14.1099 907.61 14.1299 907.55 14.1399C907.48 14.1399 907.47 14.0799 907.45 14.0399C907.43 13.9899 907.42 13.9399 907.37 13.9099C907.29 14.0499 907.31 14.1599 907.41 14.2499C907.53 14.3499 907.65 14.3399 907.77 14.2399C907.96 14.0699 907.98 13.8599 907.83 13.6399V13.6299Z" fill="white"/>
<path d="M903.18 5.7202C903.21 6.2302 903.22 6.8702 903.2 7.5002C903.19 7.8002 903.18 8.1102 903.14 8.4102C903.11 8.6302 903.02 8.8202 902.85 8.9702C902.62 9.1802 902.42 9.4102 902.35 9.7302C902.33 9.8402 902.24 9.8802 902.14 9.8202C901.99 9.7302 901.82 9.6902 901.65 9.6502C901.47 9.6102 901.4 9.5002 901.45 9.3102C901.56 8.9102 901.67 8.5102 901.75 8.1002C901.97 7.0802 902.08 6.0402 902.13 5.0002C902.16 4.3802 902.16 3.7702 902.1 3.1502C902.07 2.7702 902.01 2.4002 901.94 2.0302C901.93 1.9802 901.92 1.9402 901.92 1.8902C901.9 1.6502 902.06 1.5402 902.28 1.6502C902.6 1.8102 902.85 2.0302 903 2.3702C903.14 2.7002 903.15 3.0402 903.16 3.3902C903.2 4.1302 903.18 4.8802 903.18 5.7402V5.7202Z" fill="white"/>
<path d="M924.71 21.34C924.59 21.66 924.4 21.94 924.13 22.15C923.79 22.41 923.4 22.52 922.99 22.6C922.62 22.67 922.24 22.69 921.86 22.69C920.93 22.68 920 22.71 919.07 22.71C918.66 22.71 918.25 22.71 917.83 22.73C917.47 22.74 917.16 22.64 916.91 22.36C916.7 22.13 916.44 21.97 916.14 21.89C916.04 21.86 916.03 21.82 916.06 21.74C916.07 21.71 916.09 21.67 916.11 21.64C916.17 21.56 916.19 21.46 916.2 21.36C916.2 21.3 916.2 21.24 916.22 21.18C916.24 21.06 916.31 21.01 916.43 21C916.55 21 916.66 21.03 916.77 21.07C917.53 21.35 918.32 21.51 919.12 21.63C919.7 21.72 920.29 21.75 920.88 21.76C921.53 21.76 922.18 21.69 922.82 21.6C923.44 21.51 924.05 21.43 924.67 21.33C924.67 21.33 924.68 21.33 924.7 21.33L924.71 21.34Z" fill="white"/>
<path d="M900.69 11.8108C900.76 11.8608 900.77 11.9208 900.76 11.9908C900.74 12.4908 900.75 12.9908 900.89 13.4808C900.92 13.5908 900.96 13.7108 901 13.8208C901.04 13.9208 901.02 14.0108 900.93 14.0608C900.78 14.1608 900.63 14.2108 900.45 14.1408C900.38 14.1108 900.27 14.0608 900.24 14.1408C900.21 14.2208 900.3 14.2908 900.38 14.3308C900.55 14.4208 900.73 14.3908 900.9 14.3408C900.97 14.3208 901.05 14.2608 901.09 14.3808C901.13 14.5008 901.09 14.6108 900.98 14.6408C900.89 14.6708 900.8 14.6608 900.71 14.6608C900.63 14.6608 900.55 14.6608 900.47 14.6908C900.41 14.7108 900.39 14.7308 900.45 14.7808C900.64 14.9408 900.85 14.9608 901.07 14.8508C901.26 14.7508 901.37 14.7908 901.44 14.9908C901.49 15.1208 901.46 15.1708 901.33 15.2108C900.97 15.3108 900.61 15.4008 900.25 15.5208C900.09 15.5708 899.98 15.5308 899.88 15.4108C899.81 15.3308 899.75 15.2508 899.69 15.1608C899.62 15.0408 899.58 14.9308 899.62 14.7808C899.69 14.5108 899.64 14.2308 899.55 13.9708C899.45 13.6808 899.21 13.5808 898.92 13.6808C898.83 13.7108 898.74 13.7408 898.65 13.7908C898.48 13.9008 898.43 14.0708 898.5 14.2908C898.56 14.4808 898.73 14.5908 898.92 14.5708C899.1 14.5508 899.19 14.3808 899.1 14.2208C899.08 14.1908 899.06 14.1608 899.03 14.1308C898.95 14.0108 898.95 13.9208 899.05 13.8508C899.15 13.7708 899.24 13.7808 899.33 13.9008C899.49 14.1108 899.45 14.3408 899.42 14.5708C899.37 14.9208 898.77 15.2008 898.45 14.9508C898.15 14.7208 898.04 14.5208 898.14 14.1508C898.25 13.7408 898.23 13.3308 898.23 12.9208C898.23 12.6208 898.27 12.3308 898.37 12.0508C898.49 11.7208 898.35 11.4108 898.05 11.3108C897.84 11.2408 897.68 11.3108 897.6 11.5208C897.58 11.5908 897.56 11.6608 897.54 11.7208C897.51 11.8208 897.44 11.8708 897.33 11.8608C897.21 11.8508 897.15 11.8008 897.14 11.6908C897.14 11.5808 897.09 11.4908 897.05 11.3908C896.95 11.1608 897 10.9808 897.19 10.8208C897.33 10.7008 897.49 10.6108 897.64 10.4908C897.74 10.4108 897.87 10.4408 897.99 10.4708C898.5 10.5908 898.93 10.8508 899.3 11.2208C899.53 11.4508 899.56 11.7208 899.46 12.0208C899.42 12.1308 899.37 12.2308 899.32 12.3308C899.17 12.6208 899.24 12.8908 899.42 13.1508C899.49 13.2508 899.6 13.2908 899.72 13.2908C899.83 13.2908 899.93 13.2708 900.02 13.2208C900.16 13.1608 900.19 13.1008 900.18 12.9508C900.16 12.7608 900.22 12.5808 900.31 12.4208C900.43 12.2008 900.6 12.0208 900.71 11.7908L900.69 11.8108ZM899.2 13.2908C899.2 12.9708 899.03 12.7208 898.76 12.6408C898.65 12.6108 898.6 12.6308 898.57 12.7208C898.46 13.0308 898.62 13.3708 898.93 13.4808C899.12 13.5508 899.21 13.4908 899.21 13.2808L899.2 13.2908Z" fill="white"/>
<path d="M904.98 44.1391C904.82 44.1191 904.69 44.0791 904.56 44.0091C904.04 43.7091 903.67 43.2991 903.53 42.6991C903.52 42.6391 903.51 42.5691 903.51 42.5091C903.51 40.6991 903.51 38.8891 903.51 37.0791C903.51 36.9091 903.56 36.7791 903.71 36.6891C904 36.4991 904.18 36.2191 904.3 35.8991C904.31 35.8691 904.32 35.8391 904.33 35.8191C904.39 35.6591 904.44 35.6391 904.6 35.7291C904.72 35.7991 904.85 35.8291 904.99 35.8691C905.18 35.9191 905.23 36.0091 905.16 36.1891C904.83 36.9691 904.65 37.7891 904.57 38.6391C904.53 39.0691 904.51 39.4991 904.5 39.9291C904.49 40.5891 904.49 41.2591 904.53 41.9191C904.58 42.6191 904.69 43.2991 904.93 43.9591C904.95 44.0191 904.97 44.0791 904.99 44.1591L904.98 44.1391Z" fill="white"/>
<path d="M903.41 5.75978C903.41 5.07978 903.41 4.40978 903.41 3.72978C903.41 3.36978 903.4 2.99978 903.47 2.63978C903.57 2.13978 903.87 1.78978 904.34 1.58978C904.36 1.58978 904.38 1.56978 904.4 1.56978C904.56 1.51978 904.64 1.57978 904.62 1.74978C904.59 2.01978 904.55 2.27978 904.51 2.53978C904.43 3.14978 904.39 3.76978 904.37 4.37978C904.34 5.34978 904.4 6.31978 904.52 7.27978C904.59 7.82978 904.68 8.37978 904.79 8.92978C904.81 9.01978 904.85 9.09978 904.88 9.17978C904.91 9.24978 904.94 9.31978 904.95 9.38978C904.99 9.54978 904.94 9.65978 904.8 9.73978C904.67 9.81978 904.52 9.85978 904.37 9.85978C904.25 9.85978 904.17 9.79978 904.11 9.69978C904.04 9.57978 903.98 9.45978 903.92 9.33978C903.82 9.14978 903.69 8.98978 903.52 8.84978C903.42 8.76978 903.41 8.65978 903.41 8.54978C903.41 7.61978 903.41 6.68978 903.41 5.74978V5.75978Z" fill="white"/>
<path d="M886.45 22.9306C887.26 22.9306 888.06 22.9306 888.87 22.9306C889.18 22.9306 889.45 23.0406 889.64 23.3006C889.73 23.4206 889.86 23.5006 890.01 23.5506C890.24 23.6306 890.3 23.7306 890.25 23.9706C890.23 24.0706 890.21 24.1706 890.18 24.2606C890.11 24.4606 890.01 24.5206 889.8 24.4706C889.47 24.3906 889.14 24.2906 888.81 24.2106C887.65 23.9306 886.48 23.7606 885.29 23.8306C884.19 23.8906 883.08 23.9806 882.01 24.2906C881.93 24.3106 881.93 24.2806 881.94 24.2206C881.98 23.7606 882.22 23.4406 882.64 23.2606C883.2 23.0106 883.79 22.9106 884.41 22.9206C885.09 22.9306 885.76 22.9206 886.44 22.9206L886.45 22.9306Z" fill="white"/>
<path d="M886.31 22.6602C885.51 22.6602 884.71 22.6802 883.9 22.6602C883.4 22.6502 882.92 22.5702 882.49 22.2802C882.32 22.1702 882.18 22.0302 882.06 21.8802C882.03 21.8402 882 21.8002 881.98 21.7602C881.95 21.7002 881.95 21.6302 881.99 21.5702C882.04 21.5102 882.1 21.5102 882.16 21.5302C882.32 21.5802 882.49 21.6002 882.66 21.6202C883.27 21.7102 883.89 21.7602 884.51 21.7802C886.3 21.8302 888.06 21.6102 889.79 21.1702C889.86 21.1502 889.93 21.1302 890.01 21.1202C890.11 21.1002 890.18 21.1402 890.2 21.2402C890.23 21.4302 890.32 21.5902 890.41 21.7502C890.5 21.9102 890.45 21.9802 890.27 21.9902C889.97 22.0002 889.72 22.1102 889.55 22.3802C889.41 22.6002 889.19 22.6602 888.94 22.6602C888.42 22.6602 887.9 22.6602 887.38 22.6602C887.02 22.6602 886.66 22.6602 886.3 22.6602H886.31Z" fill="white"/>
<path d="M901.94 44.1991C902.29 43.2691 902.4 42.2991 902.44 41.3191C902.48 40.1291 902.4 38.9491 902.18 37.7791C902.07 37.2091 901.94 36.6591 901.68 36.1291C901.59 35.9391 901.59 35.9391 901.78 35.8391C901.9 35.7791 902.01 35.7091 902.14 35.6591C902.36 35.5691 902.48 35.6291 902.53 35.8591C902.57 36.0391 902.67 36.1791 902.75 36.3391C902.77 36.3691 902.79 36.3891 902.82 36.4091C903.16 36.6191 903.3 36.9391 903.31 37.3291C903.31 37.6091 903.29 37.8791 903.28 38.1491C903.26 39.1291 903.34 40.1091 903.32 41.0891C903.31 41.6091 903.32 42.1391 903.24 42.6591C903.16 43.1391 902.97 43.5691 902.63 43.9291C902.45 44.1191 902.23 44.2391 901.95 44.1991H901.94Z" fill="white"/>
<path d="M897.05 21.4298C897.1 21.5998 897.22 21.7198 897.18 21.8998C897.27 21.8898 897.33 21.8398 897.39 21.7998C897.53 21.7198 897.65 21.6298 897.8 21.5798C897.95 21.5198 898.09 21.5198 898.25 21.5498C898.51 21.5998 898.76 21.6898 899 21.8198C899.23 21.9498 899.28 22.0998 899.14 22.3198C899.02 22.5098 899.02 22.6998 899.1 22.8998C899.19 23.0998 899.15 23.1898 898.95 23.2798C898.85 23.3298 898.74 23.3598 898.65 23.4198C898.63 23.4298 898.61 23.4398 898.61 23.4698C898.61 23.4898 898.64 23.4998 898.66 23.4998C898.75 23.5198 898.82 23.4698 898.89 23.4298C898.95 23.3898 899.02 23.3498 899.1 23.3798C899.16 23.3998 899.19 23.4298 899.13 23.4898C898.74 23.9398 897.9 24.0298 897.42 23.6598C897.21 23.4998 897.16 23.2998 897.22 23.0598C897.3 22.6898 897.24 22.3198 897.18 21.9298C897.11 22.0298 897.09 22.1298 897.07 22.2198C896.98 22.6598 896.97 23.0998 897.07 23.5398C897.1 23.6898 897.18 23.8098 897.3 23.8998C897.38 23.9598 897.46 24.0298 897.53 24.0998C897.66 24.2398 897.69 24.3798 897.58 24.5398C897.45 24.7298 897.41 24.9098 897.43 25.1398C897.44 25.3398 897.37 25.4398 897.23 25.4598C897.14 25.4798 897.06 25.4598 897 25.3798C896.98 25.3498 896.95 25.3198 896.94 25.2898C896.72 24.7198 896.45 24.1698 896.39 23.5498C896.33 22.9198 896.34 22.2898 896.42 21.6598C896.48 21.1998 896.59 20.7598 896.74 20.3198C896.76 20.2598 896.77 20.1998 896.79 20.1398C896.83 20.0098 896.95 19.9798 897.05 20.0598C897.14 20.1198 897.18 20.2098 897.18 20.3198C897.18 20.4498 897.21 20.5598 897.26 20.6698C897.35 20.8398 897.39 21.0398 897.52 21.1998C897.6 21.2998 897.48 21.4798 897.32 21.4998C897.23 21.5098 897.14 21.4798 897.04 21.4498L897.05 21.4298ZM897.82 22.4498C897.82 22.5398 897.82 22.6298 897.81 22.7298C897.79 22.8398 897.77 22.9498 897.76 23.0598C897.74 23.2398 897.81 23.3798 897.94 23.4498C897.91 23.3498 897.9 23.2498 897.9 23.1498C897.9 23.0198 897.92 22.8798 897.92 22.7498C897.92 22.6398 897.89 22.5398 897.82 22.4498Z" fill="white"/>
<path d="M901.76 17.5108C901.57 17.0608 901.21 16.9408 900.8 16.9108C900.74 16.9108 900.67 16.9108 900.61 16.9008C900.49 16.8908 900.42 16.8208 900.4 16.7108C900.38 16.6108 900.45 16.5708 900.51 16.5208C900.65 16.4008 900.82 16.3408 900.99 16.2808C901.11 16.2408 901.23 16.1908 901.33 16.0608C901.09 16.0608 900.88 16.0608 900.67 16.0608C900.48 16.0608 900.32 16.1508 900.2 16.3008C900.15 16.3708 900.1 16.3808 900.07 16.2808C900.07 16.2808 900.07 16.2708 900.07 16.2608C899.97 16.0708 899.97 16.0608 900.16 15.9508C900.78 15.5908 901.45 15.3908 902.15 15.2808C903.16 15.1308 904.16 15.1808 905.16 15.4108C905.33 15.4508 905.48 15.5208 905.63 15.6008C905.84 15.7108 906.05 15.8208 906.3 15.8208C906.42 15.8208 906.51 16.0308 906.46 16.1408C906.44 16.1808 906.4 16.1808 906.36 16.1808C906.29 16.1808 906.23 16.1808 906.17 16.2208C906.07 16.2708 905.97 16.2408 905.87 16.2008C905.77 16.1608 905.68 16.1008 905.57 16.0808C905.51 16.0808 905.43 16.0608 905.41 16.1108C905.39 16.1708 905.47 16.2208 905.53 16.2308C905.59 16.2508 905.65 16.2508 905.72 16.2608C905.91 16.3008 906.07 16.4908 906.05 16.6508C906.04 16.7608 906 16.8108 905.88 16.7908C905.79 16.7808 905.71 16.7908 905.63 16.8208C905.43 16.9008 905.25 16.8508 905.09 16.7208C904.98 16.6308 904.89 16.5108 904.78 16.3908C904.79 16.5108 904.85 16.5908 904.9 16.6708C905.01 16.8808 904.9 17.1408 904.68 17.2208C904.58 17.2608 904.52 17.1908 904.47 17.1108C904.41 17.0108 904.42 16.9008 904.43 16.7908C904.43 16.7108 904.41 16.6808 904.33 16.6708C904.11 16.6308 903.89 16.6508 903.67 16.6608C903.4 16.6708 903.13 16.6708 902.87 16.5508C902.78 16.5108 902.69 16.5308 902.6 16.5708C902.47 16.6208 902.35 16.6608 902.2 16.6408C902.07 16.6308 902.04 16.6908 902.02 16.8408C902 17.0708 901.92 17.2908 901.76 17.5008V17.5108ZM901.43 16.0408C901.58 16.1008 901.73 16.0908 901.88 16.0708C902.22 16.0208 902.56 15.9208 902.91 15.8908C903.39 15.8608 903.87 15.8508 904.34 16.0008C904.42 16.0308 904.51 16.0408 904.59 16.0308C904.7 16.0208 904.79 15.9808 904.87 15.8808C903.7 15.7108 902.55 15.6208 901.43 16.0308V16.0408Z" fill="white"/>
<path d="M894.45 22.8099C894.74 22.8099 895.04 22.8199 895.33 22.8399C895.57 22.8599 895.66 22.7799 895.67 22.5399C895.68 22.1899 895.67 21.8399 895.73 21.4899C895.77 21.2099 895.85 20.9299 895.94 20.6599C896 20.4899 896.08 20.3299 896.16 20.1799C896.2 20.0999 896.26 20.0499 896.36 20.0599C896.49 20.0799 896.53 20.1699 896.5 20.3199C896.41 20.7099 896.31 21.1099 896.25 21.5099C896.19 21.9599 896.21 22.4199 896.21 22.8799C896.21 23.4099 896.26 23.9399 896.4 24.4599C896.45 24.6399 896.5 24.8099 896.56 24.9799C896.56 24.9899 896.57 25.0099 896.58 25.0199C896.61 25.1099 896.65 25.2099 896.56 25.2899C896.5 25.3399 896.35 25.3199 896.26 25.2599C896.22 25.2299 896.18 25.1899 896.16 25.1499C896.02 24.7999 895.83 24.4599 895.75 24.0799C895.71 23.8999 895.7 23.7099 895.72 23.5299C895.74 23.3799 895.72 23.2299 895.61 23.1199C895.57 23.0799 895.54 23.0699 895.53 23.1399C895.51 23.2399 895.49 23.3399 895.46 23.4299C895.42 23.5599 895.34 23.6299 895.2 23.6499C894.91 23.6899 894.61 23.6999 894.31 23.7099C893.62 23.7499 892.93 23.7999 892.26 23.9999C891.76 24.1499 891.3 24.3599 890.9 24.6899C890.83 24.7499 890.76 24.8099 890.7 24.8799C890.65 24.9299 890.64 24.9199 890.6 24.8699C890.35 24.4799 890.4 24.0299 890.73 23.6999C891.11 23.3199 891.57 23.0899 892.1 23.0099C892.88 22.8899 893.65 22.8099 894.44 22.8199L894.45 22.8099Z" fill="white"/>
<path d="M898.929 10.53C898.729 10.45 898.549 10.47 898.369 10.47C898.229 10.47 898.109 10.44 897.979 10.38C897.459 10.12 897.1 9.74004 897.01 9.14004C896.97 8.89004 897.009 8.64004 897.049 8.40004C897.169 7.64004 897.08 6.92004 896.63 6.27004C896.49 6.07004 896.519 5.85004 896.609 5.64004C896.899 4.97004 897.309 4.38004 897.909 3.94004C898.769 3.31004 899.73 2.91004 900.76 2.69004C900.98 2.64004 901.21 2.60004 901.44 2.56004C901.56 2.54004 901.699 2.52004 901.789 2.64004C901.879 2.78004 901.909 2.94004 901.859 3.10004C901.839 3.17004 901.77 3.19004 901.7 3.20004C900.63 3.28004 899.639 3.59004 898.789 4.25004C898.019 4.85004 897.489 5.62004 897.299 6.60004C897.169 7.28004 897.299 7.92004 897.609 8.53004C897.779 8.89004 897.989 9.23004 898.229 9.54004C898.469 9.84004 898.679 10.17 898.919 10.51L898.929 10.53Z" fill="white"/>
<path d="M888.45 28.9709C888.23 28.9709 887.88 28.9309 887.53 29.0109C887.36 29.0509 887.2 29.1009 887.05 29.1809C886.73 29.3609 886.41 29.3609 886.09 29.2009C884.87 28.6009 883.94 27.7109 883.43 26.4209C883.2 25.8409 883.06 25.2309 882.99 24.6109C882.96 24.3409 883.05 24.2209 883.29 24.2109C883.49 24.2109 883.58 24.2809 883.6 24.4909C883.63 24.8209 883.66 25.1609 883.76 25.4809C884.12 26.7209 884.83 27.7009 885.98 28.2909C887.29 28.9609 888.58 28.8109 889.8 27.9909C890.25 27.6909 890.68 27.3609 891.12 27.0409C891.18 27.0009 891.22 26.9909 891.27 27.0409C891.3 27.0709 891.3 27.0909 891.27 27.1209C891.16 27.2709 891.11 27.4509 891.08 27.6409C890.97 28.4109 890.4 28.8109 889.71 28.9109C889.33 28.9709 888.95 28.9609 888.44 28.9609L888.45 28.9709Z" fill="white"/>
<path d="M891.06 18.0997C890.87 18.0597 890.73 17.9697 890.59 17.8797C889.88 17.3897 889.08 17.0997 888.23 16.9697C887 16.7897 885.91 17.1097 884.97 17.9197C884.28 18.4997 883.91 19.2597 883.71 20.1197C883.63 20.4797 883.58 20.8497 883.53 21.2197C883.53 21.2497 883.52 21.2797 883.51 21.3097C883.46 21.4797 883.37 21.5497 883.23 21.5497C883.02 21.5397 882.9 21.4397 882.88 21.2597C882.86 21.0797 882.9 20.8997 882.92 20.7297C883.05 19.8597 883.3 19.0297 883.76 18.2697C884.25 17.4497 884.96 16.8597 885.8 16.4197C885.98 16.3297 886.16 16.2497 886.34 16.1597C886.46 16.0997 886.58 16.1097 886.69 16.1897C887.17 16.5697 887.73 16.6797 888.32 16.6197C888.95 16.5597 889.55 16.6597 890.14 16.8797C890.41 16.9797 890.62 17.1597 890.75 17.4197C890.86 17.6397 890.95 17.8497 891.05 18.0997H891.06Z" fill="white"/>
<path d="M907.92 10.5693C908.15 10.2593 908.35 9.9593 908.54 9.6493C909 8.8993 909.23 8.0893 909.2 7.1993C909.13 5.2093 907.87 3.8793 906.26 3.3293C905.81 3.1693 905.34 3.1093 904.87 3.1093C904.68 3.1093 904.62 3.0693 904.61 2.9393C904.59 2.7293 904.69 2.5693 904.85 2.5393C905 2.5193 905.14 2.5393 905.28 2.5693C906.37 2.7193 907.38 3.0893 908.29 3.7093C909.02 4.2093 909.5 4.8793 909.8 5.6893C909.84 5.7993 909.88 5.9093 909.92 6.0293C909.95 6.1193 909.93 6.2193 909.87 6.2893C909.37 6.8493 909.28 7.5093 909.37 8.2193C909.43 8.6693 909.47 9.1193 909.34 9.5693C909.26 9.8193 909.16 10.0693 909.03 10.2893C908.93 10.4593 908.86 10.4893 908.68 10.4193C908.53 10.3693 908.38 10.3993 908.23 10.4493C908.13 10.4793 908.04 10.5193 907.91 10.5693H907.92Z" fill="white"/>
<path d="M904.24 18.4898C904.42 18.3498 904.49 18.1698 904.53 17.9698C904.64 17.4598 905.08 17.0498 905.59 16.9798C905.68 16.9698 905.76 16.9798 905.84 16.9898C905.92 16.9998 905.96 17.0598 905.93 17.1298C905.82 17.3698 905.71 17.6198 905.43 17.7198C905.22 17.7998 905.1 17.9698 905.01 18.1898C905.18 18.0798 905.31 17.9598 905.47 17.8698C905.69 17.7398 905.89 17.7598 906.08 17.9098C906.13 17.9498 906.16 17.9798 906.08 18.0298C905.9 18.1498 905.78 18.3098 905.65 18.4798C905.45 18.7398 905.22 18.9398 904.88 19.0198C904.69 19.0598 904.64 19.0398 904.64 18.8498C904.64 18.6998 904.6 18.6898 904.48 18.7598C904.45 18.7698 904.43 18.7898 904.4 18.7998C904.32 18.8298 904.28 18.7998 904.27 18.7198C904.27 18.6598 904.3 18.5698 904.25 18.5398C904.19 18.4998 904.16 18.5998 904.11 18.6298C903.91 18.7398 903.69 18.7298 903.48 18.7298C903.19 18.7298 902.9 18.6498 902.6 18.6698C902.53 18.6698 902.48 18.6198 902.44 18.5698C902.2 18.2898 902.11 17.9498 902.12 17.5898C902.12 17.4498 902.14 17.3098 902.18 17.1698C902.24 16.8998 902.4 16.7698 902.68 16.7798C902.9 16.7798 903.11 16.8098 903.32 16.8198C903.45 16.8198 903.59 16.8198 903.72 16.8198C904.11 16.8198 904.32 17.0098 904.37 17.3998C904.41 17.7298 904.35 18.0498 904.28 18.3698C904.28 18.4098 904.25 18.4398 904.27 18.4898H904.24Z" fill="white"/>
<path d="M910.62 6.09961C910.58 6.23961 910.54 6.35961 910.52 6.48961C910.5 6.71961 910.55 6.92961 910.65 7.13961C910.79 7.44961 910.94 7.76961 911 8.10961C911.08 8.54961 911.02 8.95961 910.8 9.33961C910.66 9.57961 910.66 9.59961 910.84 9.81961C911.17 10.2396 911.07 10.8296 910.63 11.1096C910.4 11.2596 910.15 11.2696 909.9 11.1796C909.68 11.0996 909.57 10.9196 909.55 10.6896C909.54 10.5296 909.65 10.4096 909.85 10.3596C909.97 10.3296 910.06 10.2796 910.09 10.1496C910.09 10.1096 910.1 10.0696 910.09 10.0396C910.06 9.98961 910.04 9.93961 909.97 9.99961C909.91 10.0596 909.82 10.0596 909.74 10.0696C909.56 10.0896 909.5 10.1396 909.46 10.3196C909.44 10.3996 909.43 10.4696 909.41 10.5496C909.38 10.6496 909.29 10.7096 909.21 10.6696C909.14 10.6396 909.11 10.5496 909.16 10.4496C909.19 10.3796 909.23 10.3096 909.27 10.2496C909.61 9.70961 909.69 9.12961 909.58 8.50961C909.51 8.08961 909.5 7.67961 909.57 7.25961C909.6 7.05961 909.68 6.87961 909.8 6.72961C910.02 6.45961 910.31 6.27961 910.62 6.09961Z" fill="white"/>
<path d="M915.56 29.8993C915.78 30.0293 915.95 29.9693 916.02 29.7493C916.07 29.5793 916.11 29.4093 916.11 29.2393C916.11 29.0893 916.04 28.9793 915.9 28.9093C915.78 28.8493 915.64 28.8093 915.51 28.7893C915.43 28.7793 915.43 28.7493 915.46 28.6893C915.51 28.5893 915.51 28.4693 915.59 28.3693C915.63 28.3193 915.66 28.2993 915.72 28.3593C916.42 29.0393 917.27 29.2093 918.2 29.0393C918.49 28.9893 918.77 28.9293 919.06 28.9993C919.34 29.0693 919.59 29.1993 919.83 29.3693C919.92 29.4393 919.95 29.5493 919.99 29.6493C920 29.6893 919.99 29.6993 919.96 29.7093C919.89 29.7393 919.81 29.7793 919.74 29.7793C919.4 29.8093 919.11 29.9493 918.83 30.1093C918.52 30.2793 918.21 30.4193 917.85 30.4693C917.61 30.4993 917.37 30.4993 917.15 30.3793C916.86 30.2193 916.56 30.2093 916.25 30.3193C916.06 30.3893 915.86 30.4493 915.65 30.3993C915.23 30.3093 914.99 29.9193 915.05 29.4193C915.08 29.1593 915.26 29.0093 915.51 29.0293C915.69 29.0393 915.8 29.1293 915.86 29.3193C915.92 29.5093 915.88 29.6793 915.75 29.7793C915.69 29.8193 915.63 29.8593 915.57 29.8993H915.56Z" fill="white"/>
<path d="M909.92 38.1407C909.93 37.7307 909.99 37.3507 909.98 36.9607C909.97 36.4207 909.84 35.9207 909.49 35.5007C909.42 35.4107 909.33 35.3307 909.25 35.2507C909.17 35.1607 909.18 35.1107 909.28 35.0407C909.37 34.9807 909.47 34.9207 909.56 34.8607C909.66 34.7907 909.75 34.7107 909.83 34.6207C910.03 34.3707 910.3 34.3107 910.6 34.4307C911.09 34.6307 911.22 35.0707 911.18 35.4807C911.18 35.5307 911.16 35.5807 911.13 35.6307C910.9 36.0007 910.95 36.3707 911.13 36.7307C911.2 36.8807 911.25 37.0307 911.25 37.2007C911.25 37.3307 911.23 37.4607 911.16 37.5807C911.06 37.7607 911.02 37.9507 911 38.1407C910.97 38.4007 910.9 38.6407 910.64 38.7807C910.58 38.8107 910.58 38.8907 910.59 38.9507C910.59 39.0007 910.61 39.0407 910.63 39.0907C910.66 39.2407 910.61 39.3007 910.46 39.2907C910.3 39.2807 910.2 39.1807 910.14 39.0507C909.99 38.7607 909.92 38.4507 909.92 38.1507V38.1407ZM909.69 35.0707C909.63 35.2307 909.66 35.3607 909.79 35.4607C909.87 35.5207 909.95 35.5607 910.04 35.6007C910.22 35.6807 910.53 35.5807 910.63 35.4107C910.63 35.3907 910.65 35.3807 910.65 35.3607C910.67 35.2807 910.65 35.2107 910.58 35.1607C910.52 35.1107 910.48 35.1707 910.44 35.2107C910.31 35.3207 910.16 35.3307 910.02 35.2507C909.91 35.1907 909.81 35.1307 909.7 35.0707H909.69Z" fill="white"/>
<path d="M894.13 22.6606C893.47 22.7006 892.76 22.5506 892.03 22.5206C891.34 22.5006 890.64 21.9206 890.48 21.2706C890.45 21.1506 890.44 21.0306 890.45 20.9106C890.47 20.7506 890.54 20.7106 890.69 20.7706C890.84 20.8306 890.98 20.9206 891.13 20.9906C891.89 21.3606 892.7 21.5506 893.54 21.6106C894.11 21.6506 894.68 21.6806 895.25 21.7106C895.29 21.7106 895.32 21.7106 895.36 21.7206C895.47 21.7406 895.51 21.8006 895.49 21.9006C895.47 22.0106 895.48 22.1206 895.49 22.2306C895.53 22.4606 895.46 22.5506 895.23 22.5906C894.89 22.6506 894.54 22.6906 894.12 22.6506L894.13 22.6606Z" fill="white"/>
<path d="M903.27 13.6397C903.26 14.0097 903.25 14.3997 903.24 14.7897C903.24 14.9597 903.16 15.0297 902.98 15.0097C902.84 14.9997 902.71 14.9797 902.57 15.0197C902.49 15.0497 902.43 14.9997 902.4 14.9197C902.38 14.8597 902.38 14.7997 902.38 14.7297C902.39 13.8697 902.34 13.0197 902.15 12.1797C901.99 11.4697 901.73 10.7997 901.32 10.1997C901.28 10.1397 901.24 10.0997 901.19 10.0497C901.07 9.93966 901.1 9.81966 901.24 9.74966C901.33 9.70966 901.41 9.72966 901.49 9.74966C902.1 9.93966 902.56 10.3197 902.85 10.8897C903.1 11.3797 903.22 11.9097 903.25 12.4597C903.28 12.8297 903.28 13.2097 903.25 13.6097L903.27 13.6397Z" fill="white"/>
<path d="M895.61 10.2403C895.61 10.2403 895.61 10.1203 895.61 10.0403C895.61 9.93029 895.67 9.84029 895.76 9.80029C895.94 9.72029 895.93 9.55029 895.85 9.43029C895.73 9.22029 895.64 9.00029 895.61 8.75029C895.54 8.29029 895.65 7.85029 895.8 7.42029C895.86 7.27029 895.91 7.11029 895.93 6.95029C895.95 6.73029 895.9 6.54029 895.77 6.37029C895.74 6.33029 895.71 6.30029 895.69 6.26029C895.66 6.19029 895.65 6.12029 895.71 6.06029C895.76 6.00029 895.83 5.99029 895.9 6.02029C896.06 6.08029 896.2 6.16029 896.31 6.28029C896.72 6.71029 896.94 7.21029 896.88 7.81029C896.86 8.02029 896.79 8.22029 896.76 8.43029C896.7 9.04029 896.85 9.58029 897.19 10.0903C897.25 10.1703 897.3 10.2603 897.35 10.3403C897.4 10.4203 897.43 10.4903 897.33 10.5603C897.23 10.6303 897.13 10.6303 897.06 10.5403C897.01 10.4703 896.96 10.3903 896.91 10.3203C896.83 10.2003 896.73 10.0803 896.59 10.0203C896.43 9.95029 896.3 9.99029 896.18 10.0903C896.06 10.1903 896.02 10.3203 896.05 10.4703C896.07 10.5603 896.13 10.5803 896.21 10.5403C896.27 10.5103 896.32 10.4503 896.37 10.4003C896.51 10.2703 896.61 10.2803 896.74 10.4203C896.86 10.5603 896.86 10.7403 896.74 10.8803C896.61 11.0403 896.45 11.1603 896.23 11.1103C895.96 11.0603 895.74 10.9403 895.64 10.6603C895.59 10.5303 895.59 10.4003 895.58 10.2403H895.61Z" fill="white"/>
<path d="M896.43 35.5007C896.54 35.6407 896.66 35.6707 896.81 35.6107C896.93 35.5607 897.03 35.4907 897.14 35.4207C897.23 35.3607 897.25 35.2707 897.22 35.1707C897.2 35.0907 897.18 35.0007 897.16 34.9207C897.15 34.8607 897.16 34.8307 897.23 34.8407C897.33 34.8607 897.43 34.8807 897.53 34.9107C897.66 34.9507 897.68 35.0307 897.59 35.1307C897.51 35.2207 897.41 35.3107 897.33 35.4107C896.91 35.9207 896.81 36.5207 896.92 37.1507C896.97 37.4607 897.05 37.7707 897.02 38.0907C897.02 38.2007 896.99 38.2907 896.89 38.3607C896.83 38.4007 896.78 38.4507 896.72 38.5007C896.61 38.5907 896.55 38.7007 896.58 38.8407C896.6 38.9507 896.55 38.9407 896.48 38.9107C896.08 38.7707 895.84 38.4607 895.7 38.0807C895.58 37.7607 895.56 37.4207 895.62 37.0807C895.64 36.9607 895.66 36.8307 895.68 36.7107C895.7 36.5907 895.73 36.4707 895.8 36.3807C895.9 36.2507 895.88 36.1407 895.8 36.0107C895.63 35.7607 895.58 35.4907 895.61 35.1907C895.66 34.7907 896.09 34.4707 896.49 34.5307C896.75 34.5707 896.97 34.9407 896.88 35.1807C896.84 35.2907 896.74 35.3507 896.64 35.4007C896.57 35.4307 896.5 35.4607 896.42 35.4907L896.43 35.5007Z" fill="white"/>
<path d="M902.78 30.6194C902.87 30.6194 902.95 30.6194 903.04 30.6194C903.2 30.6594 903.28 30.7494 903.27 30.9294C903.23 31.7294 903.31 32.5294 903.21 33.3194C903.15 33.7894 903.06 34.2494 902.83 34.6694C902.56 35.1694 902.14 35.4694 901.61 35.6394C901.44 35.6894 901.36 35.6094 901.41 35.4394C901.41 35.3994 901.43 35.3694 901.45 35.3394C901.8 34.6494 901.99 33.9194 902.12 33.1694C902.23 32.5694 902.32 31.9594 902.32 31.3494C902.32 31.2194 902.31 31.0794 902.3 30.9494C902.3 30.7094 902.39 30.6194 902.63 30.6094C902.68 30.6094 902.73 30.6094 902.79 30.6094L902.78 30.6194Z" fill="white"/>
<path d="M911.93 23.0491C912.16 23.0491 912.38 23.0491 912.61 23.0491C912.65 23.0491 912.7 23.0591 912.71 22.9991C912.71 22.9591 912.76 22.9791 912.79 22.9791C913.14 22.9791 913.49 22.9791 913.85 22.9591C914.49 22.9291 915.01 23.2291 915.46 23.6591C915.64 23.8291 915.8 24.0191 915.96 24.2091C916.05 24.3191 916.11 24.4491 916.08 24.5991C916.04 24.7591 915.93 24.8191 915.79 24.7291C915.25 24.3891 914.65 24.2291 914.04 24.1091C913.47 23.9991 912.89 23.9891 912.31 23.9591C911.97 23.9491 911.63 23.9491 911.29 23.9591C911.2 23.9591 911.1 23.9591 911.03 23.8891C910.97 23.8391 910.95 23.7691 910.95 23.6891C910.95 23.5691 910.95 23.4491 910.96 23.3291C910.96 23.1391 911.06 23.0491 911.26 23.0491C911.49 23.0491 911.72 23.0491 911.95 23.0491H911.93Z" fill="white"/>
<path d="M903.5 31.9196C903.5 31.6096 903.5 31.2996 903.5 30.9796C903.5 30.7496 903.56 30.6796 903.79 30.6296C903.9 30.6096 904 30.5896 904.11 30.5796C904.27 30.5696 904.33 30.6096 904.34 30.7696C904.36 30.9396 904.36 31.1096 904.36 31.2796C904.38 32.1396 904.47 32.9996 904.73 33.8296C904.88 34.3296 905.09 34.7896 905.37 35.2296C905.41 35.2896 905.45 35.3496 905.46 35.4196C905.5 35.5796 905.38 35.7396 905.22 35.6996C904.82 35.5996 904.44 35.4496 904.18 35.1096C903.97 34.8396 903.86 34.5296 903.77 34.1996C903.6 33.5996 903.48 32.9896 903.5 32.3596C903.5 32.2096 903.5 32.0596 903.5 31.9096C903.5 31.9096 903.5 31.9096 903.51 31.9096L903.5 31.9196Z" fill="white"/>
<path d="M891.59 15.9292C891.59 16.0192 891.58 16.1092 891.55 16.1992C891.47 16.4592 891.25 16.5892 890.98 16.5492C890.94 16.5492 890.91 16.5292 890.88 16.5092C890.66 16.3792 890.66 15.9992 890.86 15.8592C890.9 15.8292 890.95 15.8192 890.94 15.7492C890.94 15.6892 890.88 15.6692 890.83 15.6492C890.61 15.5692 890.41 15.6592 890.32 15.8792C890.16 16.2692 890.32 16.5692 890.72 16.6792C890.77 16.6892 890.82 16.7092 890.87 16.7292C891.04 16.7992 891.11 16.9592 891.04 17.1292C891.02 17.1692 891.01 17.1692 890.97 17.1592C890.85 17.1092 890.73 17.0392 890.65 16.9492C890.28 16.5392 889.79 16.4392 889.28 16.4192C889 16.4092 888.72 16.4092 888.45 16.4392C888.18 16.4692 887.9 16.4192 887.63 16.4292C887.46 16.4292 887.4 16.3492 887.45 16.1792C887.49 16.0592 887.47 15.9592 887.41 15.8592C887.33 15.6992 887.36 15.6292 887.52 15.5592C887.82 15.4192 888.13 15.2792 888.42 15.1192C888.59 15.0292 888.77 15.0092 888.96 15.0792C889.28 15.1892 889.61 15.1992 889.94 15.1992C890.28 15.1992 890.62 15.1992 890.96 15.2392C891.35 15.2892 891.6 15.5592 891.61 15.9392L891.59 15.9292Z" fill="white"/>
<path d="M903.49 13.259C903.46 12.809 903.43 12.369 903.46 11.919C903.51 11.099 903.89 10.469 904.6 10.049C904.81 9.91902 905.05 9.89902 905.3 9.94902C905.38 9.96902 905.4 9.98902 905.35 10.069C905.15 10.419 904.93 10.769 904.78 11.149C904.59 11.609 904.51 12.089 904.43 12.569C904.33 13.189 904.3 13.809 904.27 14.429C904.27 14.559 904.27 14.689 904.29 14.819C904.29 14.959 904.26 14.999 904.12 14.979C904.03 14.969 903.93 14.979 903.84 14.979C903.6 14.979 903.5 14.889 903.49 14.649C903.49 14.359 903.49 14.059 903.49 13.769C903.49 13.599 903.49 13.419 903.49 13.249V13.259Z" fill="white"/>
<path d="M912.37 22.7698C912.04 22.7898 911.7 22.8098 911.37 22.8298C911.15 22.8398 911.05 22.7698 911.03 22.5498C911.03 22.4198 911.03 22.2798 911.03 22.1498C911.03 22.0098 911.1 21.9498 911.24 21.9298C911.44 21.8998 911.63 21.9298 911.83 21.9298C913.03 21.9598 914.18 21.7398 915.29 21.2998C915.49 21.2198 915.69 21.1198 915.88 21.0198C915.95 20.9898 916.02 20.9398 916.1 21.0198C916.17 21.0898 916.15 21.1698 916.12 21.2498C915.83 21.9498 915.29 22.3398 914.58 22.5398C914.04 22.6898 913.48 22.7498 912.92 22.7598C912.74 22.7598 912.56 22.7598 912.37 22.7598V22.7698Z" fill="white"/>
<path d="M887.47 29.7404C887.47 29.7404 887.57 29.6904 887.61 29.6804C887.69 29.6504 887.71 29.5904 887.69 29.5104C887.67 29.4204 887.6 29.4404 887.54 29.4504C887.5 29.4604 887.46 29.4704 887.39 29.4504C887.52 29.3204 887.66 29.2504 887.81 29.1904C888.05 29.1004 888.3 29.0904 888.55 29.1104C888.86 29.1304 889.18 29.1804 889.49 29.1304C890 29.0504 890.48 28.8604 890.9 28.5604C891.03 28.4704 891.11 28.4904 891.16 28.6304C891.2 28.7204 891.17 28.7704 891.08 28.7804C890.78 28.8204 890.63 29.0204 890.54 29.2904C890.49 29.4404 890.53 29.5804 890.63 29.7004C890.69 29.7704 890.76 29.8204 890.85 29.8204C890.93 29.8204 891.01 29.8204 891.05 29.7504C891.1 29.6804 891.03 29.6304 890.99 29.5704C890.83 29.3204 890.86 29.1304 891.08 29.0004C891.16 28.9504 891.24 28.9504 891.33 28.9904C891.64 29.1204 891.76 29.3704 891.66 29.6904C891.64 29.7504 891.62 29.8204 891.59 29.8804C891.45 30.1804 891.2 30.3004 890.88 30.2304C890.74 30.2004 890.62 30.1504 890.49 30.0904C890.33 30.0104 890.18 30.0104 890.01 30.0804C889.54 30.2604 889.06 30.3504 888.56 30.2704C888.15 30.2004 887.8 30.0204 887.47 29.7404Z" fill="white"/>
<path d="M902.08 28.3402C902.11 28.4202 902.13 28.5102 902.17 28.5902C902.3 28.8802 902.55 29.0002 902.85 28.9802C903.25 28.9502 903.66 28.9702 904.06 28.9602C904.18 28.9602 904.29 28.9302 904.4 28.8902C904.48 28.8602 904.54 28.8702 904.59 28.9502C904.64 29.0502 904.74 29.0902 904.84 29.1202C904.96 29.1602 905.05 29.1202 905.14 28.9602C904.95 29.0402 904.81 28.9902 904.68 28.8502C904.57 28.7302 904.56 28.6402 904.64 28.5002C904.7 28.3902 904.78 28.3002 904.78 28.1602C904.83 28.1802 904.85 28.2302 904.88 28.2602C905.16 28.5602 905.52 28.6702 905.9 28.7202C905.98 28.7302 906.07 28.7402 906.15 28.7602C906.24 28.7802 906.3 28.8302 906.29 28.9302C906.29 29.0202 906.21 29.0202 906.14 29.0302C906.11 29.0302 906.07 29.0402 906.05 29.0602C905.52 29.3502 904.95 29.4902 904.36 29.5602C903.76 29.6302 903.15 29.6502 902.54 29.6702C902.12 29.6902 901.73 29.5602 901.35 29.4102C901.17 29.3402 900.99 29.2502 900.81 29.1702C900.77 29.1502 900.73 29.1302 900.7 29.1002C900.63 29.0402 900.61 28.9602 900.64 28.8702C900.67 28.7802 900.75 28.7802 900.82 28.7802C901.04 28.7802 901.26 28.7802 901.47 28.7102C901.68 28.6502 901.86 28.5402 902 28.3802C902.02 28.3602 902.03 28.3302 902.07 28.3202L902.08 28.3402Z" fill="white"/>
<path d="M899.7 11.5601C899.26 10.6801 898.63 9.96015 898.13 9.14015C897.85 8.67015 897.61 8.18015 897.52 7.63015C897.36 6.66015 897.62 5.80015 898.24 5.05015C898.91 4.24015 899.79 3.77015 900.8 3.53015C901.08 3.46015 901.37 3.41015 901.66 3.35015C901.71 3.35015 901.76 3.34015 901.8 3.35015C901.86 3.37015 901.89 3.43015 901.89 3.49015C901.89 3.56015 901.84 3.60015 901.78 3.61015C901.58 3.64015 901.38 3.66015 901.19 3.70015C900.07 3.93015 899.12 4.45015 898.44 5.38015C898.05 5.91015 897.83 6.50015 897.83 7.16015C897.83 7.78015 898.03 8.34015 898.38 8.85015C898.54 9.09015 898.75 9.29015 898.93 9.50015C899.31 9.95015 899.59 10.4601 899.77 11.0301C899.82 11.2101 899.82 11.3701 899.71 11.5501L899.7 11.5601Z" fill="white"/>
<path d="M906.88 11.0405C907.11 10.7305 907.33 10.4305 907.57 10.1305C908.05 9.53055 908.41 8.86055 908.55 8.10055C908.72 7.23055 908.65 6.38055 908.3 5.56055C908.09 5.07055 907.72 4.72055 907.29 4.42055C906.61 3.95055 905.85 3.68055 905.02 3.60055C904.94 3.60055 904.85 3.60055 904.76 3.59055C904.67 3.59055 904.63 3.53055 904.64 3.44055C904.64 3.36055 904.69 3.31055 904.78 3.31055C906.16 3.35055 907.36 3.78055 908.23 4.91055C908.82 5.67055 909.05 6.55055 908.99 7.50055C908.94 8.31055 908.67 9.05055 908.27 9.75055C908.07 10.1105 907.8 10.4005 907.44 10.6005C907.33 10.6605 907.28 10.7705 907.2 10.8605C907.12 10.9605 907.02 11.0405 906.87 11.0405H906.88Z" fill="white"/>
<path d="M883.22 22.8193C882.99 22.9193 882.78 23.0093 882.57 23.1193C882.24 23.2993 881.95 23.5293 881.79 23.8793C881.74 23.9793 881.66 23.9593 881.58 23.9293C881.32 23.8493 881.1 23.7193 880.9 23.5393C880.7 23.3593 880.54 23.1493 880.39 22.9293C880.34 22.8493 880.34 22.7793 880.39 22.7193C880.67 22.3593 880.99 22.0393 881.41 21.8393C881.64 21.7293 881.72 21.7493 881.86 21.9593C882.09 22.2993 882.41 22.4993 882.78 22.6493C882.92 22.6993 883.06 22.7493 883.22 22.8093V22.8193Z" fill="white"/>
<path d="M923.37 22.76C923.51 22.69 923.65 22.62 923.78 22.55C924.13 22.36 924.46 22.15 924.72 21.83C924.81 21.72 924.92 21.71 925.04 21.75C925.16 21.79 925.26 21.86 925.36 21.93C925.61 22.13 925.83 22.35 925.98 22.64C926.06 22.79 926.07 22.94 925.98 23.08C925.77 23.42 925.49 23.68 925.12 23.84C924.93 23.92 924.82 23.89 924.71 23.71C924.41 23.21 923.98 22.9 923.42 22.77C923.42 22.77 923.4 22.77 923.38 22.75L923.37 22.76Z" fill="white"/>
<path d="M902.77 27.2601C902.69 27.4201 902.64 27.5801 902.64 27.7601C902.64 28.0001 902.74 28.1501 902.96 28.2201C903.26 28.3101 903.56 28.3001 903.86 28.2001C904.09 28.1201 904.19 27.9601 904.17 27.7101C904.15 27.4801 904.07 27.2601 903.94 27.0701C903.9 27.0101 903.86 26.9501 903.94 26.8901C904.01 26.8301 904.08 26.8401 904.16 26.9201C904.52 27.2901 904.57 27.7401 904.48 28.2101C904.46 28.3301 904.42 28.4401 904.37 28.5501C904.26 28.7601 904.11 28.8501 903.87 28.8201C903.86 28.8201 903.85 28.8201 903.84 28.8201C903.56 28.7301 903.28 28.7301 902.99 28.7601C902.75 28.7901 902.54 28.7201 902.41 28.5001C902.33 28.3701 902.34 28.2301 902.36 28.1001C902.39 27.7801 902.47 27.4801 902.61 27.1901C902.63 27.1401 902.66 27.0901 902.7 27.0501C902.8 26.9301 902.9 26.9401 902.99 27.0601C903.16 27.3001 903.25 27.3001 903.38 27.0401C903.46 26.8901 903.62 26.8701 903.72 27.0001C903.87 27.1901 904 27.3801 904.02 27.6301C904.02 27.7301 904.02 27.8201 903.98 27.9101C903.93 28.0501 903.83 28.1301 903.68 28.1301C903.45 28.1401 903.22 28.0901 903 28.0301C902.89 28.0001 902.82 27.9101 902.81 27.8001C902.79 27.6201 902.81 27.4401 902.81 27.2701L902.77 27.2601Z" fill="white"/>
<path d="M903.12 30.4294C902.85 30.4494 902.47 30.4594 902.1 30.3794C901.7 30.2894 901.32 30.1494 900.95 29.9694C900.8 29.8994 900.69 29.6194 900.74 29.4694C900.76 29.3994 900.8 29.4494 900.83 29.4694C901.13 29.5794 901.43 29.6694 901.74 29.7494C902.38 29.9094 903.03 29.9194 903.69 29.8594C904.51 29.7794 905.31 29.6394 906.09 29.3894C906.18 29.3594 906.25 29.3194 906.33 29.2794C906.42 29.2394 906.48 29.2594 906.51 29.3494C906.55 29.4394 906.52 29.4994 906.42 29.5194C906.32 29.5394 906.25 29.5994 906.17 29.6594C905.68 30.0494 905.1 30.2494 904.49 30.3394C904.07 30.3994 903.65 30.4194 903.12 30.4394V30.4294Z" fill="white"/>
<path d="M903.38 42.9805C903.47 43.2505 903.59 43.5005 903.79 43.7005C903.95 43.8705 904.13 44.0005 904.32 44.1205C904.38 44.1605 904.44 44.2005 904.5 44.2505C904.6 44.3405 904.62 44.4505 904.58 44.5705C904.53 44.7205 904.44 44.8405 904.33 44.9505C904.05 45.2305 903.74 45.4405 903.33 45.4505C903.26 45.4505 903.21 45.4405 903.15 45.4005C902.84 45.1905 902.58 44.9205 902.37 44.6105C902.27 44.4705 902.3 44.4205 902.45 44.3205C902.9 44.0305 903.19 43.6205 903.34 43.1105C903.35 43.0705 903.37 43.0205 903.38 42.9805Z" fill="white"/>
<path d="M903.26 2.36055C903.2 2.26055 903.14 2.15055 903.07 2.05055C902.88 1.77055 902.63 1.55055 902.3 1.43055C902.13 1.37055 902.11 1.31055 902.17 1.14055C902.26 0.890545 902.42 0.690545 902.62 0.510545C902.8 0.350545 902.99 0.200545 903.17 0.0405454C903.24 -0.0194546 903.3 -0.0294546 903.37 0.0305454C903.68 0.280545 904.01 0.520545 904.23 0.860545C904.38 1.08055 904.37 1.24055 904.17 1.40055C903.83 1.65055 903.55 1.96055 903.32 2.31055C903.31 2.33055 903.29 2.36055 903.26 2.36055Z" fill="white"/>
<path d="M903.4 33.8398C903.47 34.0198 903.52 34.1698 903.59 34.3298C903.73 34.6898 903.92 35.0198 904.15 35.3298C904.26 35.4698 904.26 35.6098 904.18 35.7698C904.09 35.9298 904.019 36.0998 903.849 36.2098C903.769 36.2698 903.719 36.3598 903.659 36.4398C903.479 36.6798 903.28 36.6898 903.09 36.4698C902.87 36.2198 902.71 35.9198 902.62 35.5998C902.59 35.4898 902.59 35.3698 902.68 35.2898C902.95 35.0298 903.099 34.6998 903.219 34.3598C903.279 34.1998 903.33 34.0398 903.4 33.8598V33.8398Z" fill="white"/>
<path d="M908.23 24.9597C908.23 25.0797 908.23 25.1897 908.23 25.2997C908.23 25.4097 908.18 25.5097 908.1 25.5897C908.08 25.6097 908.05 25.6397 908.03 25.5897C907.89 25.3297 907.66 25.1397 907.44 24.9597C907.14 24.6997 907.04 24.3997 907.16 24.0197C907.19 23.9297 907.21 23.8297 907.23 23.7297C907.24 23.6397 907.3 23.6197 907.36 23.6497C907.82 23.8697 908.3 24.0397 908.66 24.4197C908.86 24.6397 908.97 24.8897 909.03 25.1797C909.06 25.3397 908.99 25.4897 908.95 25.6397C908.94 25.6997 908.89 25.6697 908.86 25.6597C908.55 25.5497 908.33 25.3597 908.26 25.0297C908.26 25.0097 908.25 24.9897 908.24 24.9697C908.24 24.9697 908.24 24.9697 908.22 24.9697L908.23 24.9597Z" fill="white"/>
<path d="M901.62 27.2405C901.52 27.3605 901.41 27.4805 901.31 27.6005C901.25 27.6705 901.18 27.7305 901.11 27.7705C900.85 27.9305 900.63 27.8205 900.45 27.6705C900.42 27.6405 900.42 27.6205 900.45 27.6005C900.69 27.3905 900.88 27.1305 901.12 26.9205C901.26 26.8005 901.42 26.6805 901.61 26.6405C901.66 26.6305 901.7 26.6205 901.75 26.6405C901.93 26.6705 901.96 26.7405 901.88 26.9005C901.86 26.9405 901.82 26.9805 901.84 27.0405C901.93 27.0005 902.01 26.9505 902.08 26.8905C902.15 26.8405 902.21 26.8005 902.3 26.7905C902.38 26.7805 902.45 26.8005 902.5 26.8705C902.55 26.9305 902.54 27.0005 902.5 27.0605C902.28 27.3405 902.16 27.6805 901.98 27.9905C901.77 28.3405 901.46 28.5205 901.05 28.5205C900.93 28.5205 900.81 28.5205 900.7 28.5605C900.64 28.5805 900.58 28.6005 900.53 28.5405C900.48 28.4805 900.48 28.4005 900.51 28.3405C900.58 28.2105 900.67 28.0905 900.83 28.0605C901.25 27.9705 901.51 27.6905 901.67 27.3105C901.65 27.2905 901.64 27.2805 901.62 27.2605V27.2405Z" fill="white"/>
<path d="M906.61 22.3497C906.51 22.4697 906.491 22.6097 906.511 22.7497C906.551 22.9797 906.531 23.2097 906.461 23.4297C906.421 23.5897 906.38 23.7497 906.35 23.9197C906.33 24.0497 906.27 24.1197 906.16 24.1197C905.99 24.1197 905.911 24.0197 905.961 23.8597C906.021 23.6697 906.071 23.4797 906.091 23.2897C906.141 22.8297 906.07 22.3697 905.99 21.9197C905.98 21.8397 905.951 21.7697 905.941 21.6897C905.921 21.5797 905.961 21.5097 906.071 21.4797C906.171 21.4597 906.2 21.4797 906.25 21.6097C906.31 21.7597 906.39 21.8897 906.42 22.0497C906.42 22.0797 906.46 22.1197 906.5 22.1197C906.53 22.1197 906.54 22.0697 906.55 22.0397C906.59 21.9397 906.571 21.8297 906.531 21.7397C906.481 21.5997 906.49 21.4497 906.5 21.3097C906.5 21.2297 906.551 21.1897 906.631 21.1797C906.701 21.1797 906.741 21.2097 906.761 21.2797C906.931 21.8597 907.081 22.4397 907.071 23.0497C907.071 23.3397 907.031 23.6297 906.951 23.9197C906.921 24.0297 906.871 24.1397 906.821 24.2397C906.751 24.3597 906.621 24.3797 906.521 24.2897C906.501 24.2697 906.49 24.2497 906.5 24.2297C906.6 24.0397 906.57 23.8197 906.6 23.6197C906.65 23.2397 906.691 22.8697 906.631 22.4897C906.631 22.4497 906.63 22.4097 906.6 22.3697L906.61 22.3497Z" fill="white"/>
<path d="M903.28 11.3602C903.24 11.2702 903.2 11.1802 903.16 11.1002C903.05 10.8702 902.92 10.6502 902.76 10.4502C902.54 10.1602 902.54 9.8602 902.66 9.5502C902.74 9.3302 902.86 9.1302 903.07 9.0002C903.26 8.8802 903.35 8.9002 903.49 9.0702C903.61 9.2202 903.73 9.3702 903.85 9.5202C903.93 9.6202 903.99 9.7402 904.03 9.8602C904.08 10.0702 904.01 10.2502 903.86 10.4002C903.69 10.5602 903.58 10.7602 903.48 10.9702C903.42 11.1002 903.36 11.2302 903.27 11.3602H903.28Z" fill="white"/>
<path d="M904.36 26.8504C904.91 26.5504 905.35 26.6204 905.77 27.0604C905.84 27.1404 905.91 27.2204 905.97 27.3104C906.05 27.4304 906.14 27.5304 906.28 27.5904C906.38 27.6304 906.37 27.7004 906.28 27.7604C906.26 27.7804 906.23 27.7904 906.2 27.8104C906.12 27.8704 906.11 27.9304 906.19 28.0104C906.23 28.0504 906.28 28.0804 906.31 28.1204C906.37 28.1804 906.37 28.2504 906.31 28.3204C906.23 28.4004 906.13 28.4704 906.02 28.4504C905.61 28.3904 905.24 28.2604 904.98 27.9204C904.91 27.8304 904.85 27.7304 904.81 27.6204C904.72 27.3304 904.59 27.0704 904.36 26.8504Z" fill="white"/>
<path d="M900.82 17.1704C901.11 17.1604 901.33 17.3004 901.52 17.5104C901.75 17.7704 901.95 18.0504 902.06 18.3904C902.09 18.4704 902.15 18.5304 902.2 18.6004C902.27 18.7004 902.27 18.7504 902.17 18.8304C902.13 18.8604 902.08 18.9004 902.03 18.9304C901.76 19.1104 901.6 19.0804 901.35 18.8804C901.07 18.6604 900.79 18.4504 900.53 18.2204C900.48 18.1804 900.43 18.1404 900.37 18.1304C900.26 18.1004 900.31 18.0504 900.36 18.0104C900.43 17.9504 900.52 17.9404 900.61 17.9204C900.68 17.9104 900.75 17.8904 900.8 17.8404C900.83 17.8104 900.85 17.7804 900.79 17.7704C900.56 17.7204 900.47 17.5404 900.4 17.3404C900.38 17.2904 900.4 17.2604 900.45 17.2404C900.58 17.2004 900.71 17.1704 900.84 17.1704H900.82Z" fill="white"/>
<path d="M907.99 19.8203C908.27 20.1703 908.13 20.5003 907.96 20.8403C908.14 20.8003 908.2 20.6803 908.25 20.5603C908.3 20.4103 908.38 20.3003 908.49 20.1903C908.54 20.1403 908.61 20.1003 908.68 20.0903C908.81 20.0603 908.91 20.1403 908.92 20.2703C908.96 20.7403 908.67 21.2403 908.25 21.4303C908.03 21.5303 907.82 21.6503 907.62 21.7903C907.32 22.0003 907.14 21.9103 907.11 21.5503C907.07 21.1903 907.17 20.8903 907.44 20.6503C907.57 20.5303 907.69 20.4103 907.79 20.2703C907.88 20.1403 907.94 20.0003 907.99 19.8403V19.8203Z" fill="white"/>
<path d="M898.27 20.6593C898.25 20.3393 898.23 20.0293 898.49 19.7793C898.52 20.0793 898.73 20.2393 898.96 20.3593C899.23 20.4993 899.36 20.7393 899.48 20.9893C899.5 21.0293 899.51 21.0793 899.5 21.1193C899.49 21.1893 899.45 21.2393 899.38 21.2693C899.32 21.2893 899.27 21.2493 899.24 21.2093C899.15 21.0993 899.04 21.0593 898.88 21.0793C899.06 21.2993 899.35 21.4693 899.28 21.8093H899.26C899.06 21.5793 898.8 21.4593 898.52 21.3893C898.19 21.3093 897.92 21.1393 897.7 20.8793C897.59 20.7493 897.51 20.6093 897.47 20.4393C897.43 20.2693 897.51 20.1293 897.59 19.9893C897.62 19.9493 897.66 19.9493 897.7 19.9793C897.8 20.0493 897.91 20.1293 898.01 20.1993C898.1 20.2693 898.16 20.3593 898.17 20.4793C898.17 20.5593 898.21 20.5993 898.29 20.6593H898.27Z" fill="white"/>
<path d="M898.51 24.8008C898.34 24.8708 898.27 24.9908 898.24 25.1408C898.24 25.1808 898.229 25.2308 898.219 25.2708C898.189 25.4008 898.12 25.4608 898 25.4608C897.88 25.4608 897.81 25.4108 897.77 25.2808C897.72 25.1208 897.73 24.9508 897.8 24.8008C898 24.3908 898.29 24.1008 898.75 24.0108C898.84 23.9908 898.899 23.9308 898.969 23.8908C899.099 23.8108 899.15 23.8208 899.23 23.9508C899.31 24.0908 899.38 24.2308 899.4 24.3908C899.42 24.5408 899.37 24.6708 899.27 24.7908C899.09 25.0208 898.87 25.2108 898.68 25.4308C898.63 25.4808 898.58 25.5208 898.5 25.5008C898.42 25.4808 898.38 25.4108 898.37 25.3308C898.35 25.1908 898.39 25.0608 898.44 24.9308C898.46 24.8908 898.47 24.8508 898.5 24.7908L898.51 24.8008Z" fill="white"/>
<path d="M891.97 22.8099C891.54 22.8699 891.2 23.0799 890.86 23.2899C890.76 23.3599 890.65 23.3899 890.52 23.3899C890.23 23.3999 889.97 23.3199 889.74 23.1499C889.65 23.0799 889.58 22.9999 889.53 22.8899C889.5 22.8099 889.51 22.7499 889.57 22.6999C889.86 22.4599 890.2 22.2899 890.54 22.1399C890.6 22.1099 890.68 22.1199 890.73 22.1699C891.02 22.4299 891.39 22.5599 891.75 22.7099C891.81 22.7299 891.87 22.7599 891.96 22.7999L891.97 22.8099Z" fill="white"/>
<path d="M903.219 18.94C903.739 18.93 904.22 19.05 904.7 19.24C904.88 19.31 904.929 19.38 904.909 19.53C904.889 19.65 904.829 19.69 904.719 19.66C904.109 19.49 903.489 19.44 902.859 19.51C902.689 19.53 902.529 19.59 902.369 19.64C902.179 19.69 901.989 19.72 901.799 19.65C901.779 19.65 901.749 19.65 901.719 19.65C901.669 19.65 901.61 19.65 901.59 19.59C901.57 19.52 901.59 19.47 901.65 19.44C901.92 19.28 902.189 19.13 902.489 19.04C902.729 18.97 902.979 18.93 903.219 18.95V18.94Z" fill="white"/>
<path d="M903.54 26.1191C903.32 26.0991 903.1 26.1391 902.88 26.1191C902.55 26.0891 902.24 25.9891 901.94 25.8491C901.86 25.8091 901.85 25.7591 901.88 25.6891C901.9 25.6491 901.92 25.6191 901.93 25.5791C901.97 25.4791 902.05 25.4391 902.16 25.4591C902.64 25.5391 903.13 25.5791 903.62 25.5591C903.88 25.5491 904.14 25.5091 904.39 25.4591C904.55 25.4291 904.58 25.4491 904.62 25.5991C904.62 25.6191 904.63 25.6391 904.64 25.6591C904.69 25.7991 904.67 25.8291 904.55 25.8991C904.23 26.0691 903.88 26.1291 903.52 26.1191H903.54Z" fill="white"/>
<path d="M904.47 20.2407C904.47 20.2407 904.41 20.2407 904.38 20.2207C903.79 20.0307 903.19 20.0607 902.59 20.1707C902.51 20.1907 902.42 20.2007 902.34 20.2207C902.18 20.2507 902.05 20.1307 902.05 19.9607C902.05 19.8607 902.11 19.8207 902.19 19.8007C902.62 19.6307 903.06 19.5607 903.52 19.5907C903.87 19.6107 904.2 19.6807 904.53 19.8007C904.7 19.8607 904.75 19.9907 904.66 20.1307C904.62 20.2007 904.56 20.2407 904.47 20.2307V20.2407Z" fill="white"/>
<path d="M900.14 24.2499C899.83 24.0599 899.62 23.7999 899.51 23.4599C899.27 22.7299 899.4 22.0399 899.77 21.3799C899.86 21.2199 899.97 21.0699 900.11 20.9199C900.06 21.2299 900.01 21.5199 899.96 21.8099C899.85 22.5699 899.82 23.3199 900.08 24.0499C900.1 24.1099 900.12 24.1699 900.14 24.2299C900.14 24.2299 900.14 24.2299 900.13 24.2499H900.14Z" fill="white"/>
<path d="M901.59 26.0506C902 26.1506 902.38 26.2206 902.78 26.2706C903.51 26.3506 904.22 26.3006 904.92 26.0406C905.01 26.0106 905.03 26.0306 905.02 26.1106C905 26.3106 904.91 26.4106 904.72 26.4606C904.12 26.6106 903.53 26.7306 902.91 26.6806C902.41 26.6406 901.97 26.4506 901.6 26.0506H901.59Z" fill="white"/>
<path d="M900.7 21.5592C900.7 21.5592 900.69 21.6192 900.67 21.6492C900.46 22.2092 900.45 22.7792 900.52 23.3592C900.54 23.4892 900.56 23.6192 900.59 23.7392C900.6 23.8092 900.6 23.8792 900.53 23.9092C900.45 23.9392 900.37 23.9292 900.32 23.8592C900.3 23.8292 900.28 23.7892 900.27 23.7492C900.02 22.9392 900.02 22.1492 900.39 21.3692C900.43 21.2792 900.46 21.2592 900.54 21.3292C900.61 21.3892 900.71 21.4292 900.71 21.5592H900.7Z" fill="white"/>
<path d="M907.05 34.0702C906.74 34.0702 906.58 33.9202 906.58 33.6302C906.58 33.2602 906.64 32.9102 906.76 32.5602C906.79 32.4802 906.82 32.4102 906.93 32.4102C907.09 32.4102 907.16 32.4802 907.12 32.6402C907.06 32.9802 906.98 33.3102 906.93 33.6502C906.9 33.8402 906.93 33.9202 907.06 34.0802L907.05 34.0702Z" fill="white"/>
<path d="M900.02 12.2905C900.02 12.3605 900.02 12.4405 900.02 12.5105C900.02 12.6505 899.95 12.7105 899.81 12.7105C899.66 12.7105 899.53 12.6305 899.53 12.5105C899.53 12.3305 899.57 12.1505 899.65 11.9805C899.7 11.8805 899.81 11.8405 899.9 11.8605C900.01 11.8905 900.01 11.9805 900.02 12.0705C900.02 12.1405 900.02 12.2005 900.02 12.2705V12.2905Z" fill="white"/>
<path d="M906.95 15.5596C906.96 15.4396 907.01 15.3596 907.06 15.2796C907.11 15.1896 907.17 15.0996 907.14 14.9896C907.14 14.9596 907.14 14.9496 907.17 14.9496C907.28 14.9296 907.39 15.0396 907.39 15.1496C907.38 15.3396 907.21 15.5496 907.02 15.5996C906.97 15.6096 906.95 15.5996 906.95 15.5696V15.5596Z" fill="white"/>
<path d="M869.65 22.0504C867.81 23.0404 830.48 23.6404 793.95 23.4404C727.84 23.1004 661.84 22.8504 596.4 22.1304C503.89 21.1104 407.66 21.9604 315.2 20.6204C310.43 20.5404 303.85 20.6204 298.65 20.6804C227.67 21.4804 158.63 19.5804 87.6698 19.8204C84.8298 19.8204 82.3198 19.8204 80.1298 19.7804C77.2898 19.7404 74.9698 19.6704 73.0898 19.5704V18.3304L73.1298 18.2004C75.2098 18.1704 77.5898 18.1504 80.1298 18.1504C81.4198 18.1504 82.7498 18.1504 84.0898 18.1504C119.99 18.3204 158.57 18.2504 191.06 18.7804C238.45 19.5604 286.5 19.7704 331.38 19.5604C429.03 19.0904 527.45 19.6204 635.07 19.6604C682.27 19.8104 739.19 20.0704 795.81 20.1404C834.18 20.1804 872.35 20.5904 869.65 22.0504Z" fill="white"/>
<path d="M935.87 24.0094C937.71 24.9994 975.04 25.5994 1011.57 25.3994C1077.68 25.0594 1143.68 24.8094 1209.12 24.0894C1301.63 23.0694 1397.86 23.9194 1490.32 22.5794C1495.09 22.4994 1501.67 22.5794 1506.87 22.6394C1577.85 23.4394 1646.89 21.5394 1717.85 21.7794C1720.69 21.7794 1723.2 21.7794 1725.39 21.7394C1728.23 21.6994 1730.55 21.6294 1732.43 21.5294V20.2894L1732.39 20.1594C1730.31 20.1294 1727.93 20.1094 1725.39 20.1094C1724.1 20.1094 1722.77 20.1094 1721.43 20.1094C1685.53 20.2794 1646.95 20.2094 1614.46 20.7394C1567.07 21.5194 1519.02 21.7294 1474.14 21.5194C1376.49 21.0494 1278.07 21.5794 1170.45 21.6194C1123.25 21.7694 1066.33 22.0294 1009.71 22.0994C971.34 22.1394 933.17 22.5494 935.87 24.0094Z" fill="white"/>
</g>
<defs>
<clipPath id="clip0_1189_430">
<rect width="1811.37" height="45.45" fill="white"/>
</clipPath>
</defs>
</svg>
