<svg width="40" height="40" viewBox="0 0 40 40" fill="none" xmlns="http://www.w3.org/2000/svg">
<path d="M20 5C11.7167 5 5 11.7167 5 20C5 26.6333 9.35 32.2333 15.3833 34.2833C16.0833 34.4167 16.3333 33.9833 16.3333 33.6167C16.3333 33.2833 16.3167 32.1833 16.3167 31.0167C12.5 31.7833 11.5 30.0167 11.1667 29.1833C10.9833 28.7667 10.1667 27.5 9.5 27.1667C8.95 26.9 8.25 26.1333 9.48333 26.1167C10.65 26.1 11.5333 27.1667 11.8 27.6C13.2 29.8167 15.4 29.2333 16.3833 28.8667C16.5167 27.9 16.9167 27.25 17.3667 26.8833C13.8833 26.5167 10.25 25.2 10.25 19.5C10.25 17.9167 10.8667 16.6 11.8333 15.5667C11.6833 15.2167 11.1333 13.7333 12 11.8C12 11.8 13.2833 11.4333 16.3333 13.5667C17.5167 13.25 18.7667 13.0917 20.0167 13.0917C21.2667 13.0917 22.5167 13.25 23.7 13.5667C26.75 11.4167 28.0333 11.8 28.0333 11.8C28.9 13.7333 28.35 15.2167 28.2 15.5667C29.1667 16.6 29.7833 17.9 29.7833 19.5C29.7833 25.2167 26.1333 26.5167 22.65 26.8833C23.2 27.3333 23.6667 28.2 23.6667 29.55C23.6667 31.4833 23.65 33.1333 23.65 33.6167C23.65 33.9833 23.9 34.4333 24.6 34.2833C30.65 32.2333 35 26.6167 35 20C35 11.7167 28.2833 5 20 5Z" fill="black"/>
</svg>