<svg width="40" height="40" viewBox="0 0 40 40" fill="none" xmlns="http://www.w3.org/2000/svg">
<path d="M20 5C24.0737 5 24.5847 5.01684 26.1846 5.08984C27.7809 5.16266 28.8712 5.41638 29.8252 5.78711C30.8116 6.17038 31.6485 6.68368 32.4824 7.51758C33.3163 8.35153 33.8296 9.18842 34.2129 10.1748C34.5836 11.1288 34.8373 12.2191 34.9102 13.8154C34.9832 15.4153 35 15.9262 35 20C35 24.0737 34.9832 24.5847 34.9102 26.1846C34.8373 27.7809 34.5836 28.8712 34.2129 29.8252C33.8296 30.8116 33.3163 31.6485 32.4824 32.4824C31.6485 33.3163 30.8116 33.8296 29.8252 34.2129C28.8712 34.5836 27.7809 34.8373 26.1846 34.9102C24.5847 34.9832 24.0737 35 20 35C15.9262 35 15.4153 34.9832 13.8154 34.9102C12.2191 34.8373 11.1288 34.5836 10.1748 34.2129C9.18842 33.8296 8.35153 33.3163 7.51758 32.4824C6.68368 31.6485 6.17038 30.8116 5.78711 29.8252C5.41638 28.8712 5.16266 27.7809 5.08984 26.1846C5.01684 24.5847 5 24.0737 5 20C5 15.9262 5.01684 15.4153 5.08984 13.8154C5.16266 12.2191 5.41638 11.1288 5.78711 10.1748C6.17038 9.18842 6.68368 8.35153 7.51758 7.51758C8.35153 6.68368 9.18842 6.17038 10.1748 5.78711C11.1288 5.41638 12.2191 5.16266 13.8154 5.08984C15.4153 5.01684 15.9262 5 20 5ZM20 7.70312C15.9948 7.70313 15.5202 7.71787 13.9385 7.79004C12.4761 7.85674 11.6819 8.10123 11.1533 8.30664C10.4532 8.57874 9.95355 8.90381 9.42871 9.42871C8.90381 9.95355 8.57874 10.4532 8.30664 11.1533C8.10123 11.6819 7.85674 12.4761 7.79004 13.9385C7.71787 15.5202 7.70313 15.9948 7.70312 20C7.70312 24.0051 7.71787 24.4798 7.79004 26.0615C7.85674 27.5239 8.10123 28.3181 8.30664 28.8467C8.57874 29.5468 8.90387 30.0464 9.42871 30.5713C9.95355 31.0962 10.4532 31.4213 11.1533 31.6934C11.6819 31.8988 12.4761 32.1433 13.9385 32.21C15.52 32.2821 15.9945 32.2969 20 32.2969C24.0054 32.2969 24.4801 32.2821 26.0615 32.21C27.5239 32.1433 28.3181 31.8988 28.8467 31.6934C29.5468 31.4213 30.0464 31.0962 30.5713 30.5713C31.0962 30.0464 31.4213 29.5468 31.6934 28.8467C31.8988 28.3181 32.1433 27.5239 32.21 26.0615C32.2821 24.4798 32.2969 24.0051 32.2969 20C32.2969 15.9948 32.2821 15.5202 32.21 13.9385C32.1433 12.4761 31.8988 11.6819 31.6934 11.1533C31.4213 10.4532 31.0962 9.95355 30.5713 9.42871C30.0464 8.90381 29.5468 8.57874 28.8467 8.30664C28.3181 8.10123 27.5239 7.85674 26.0615 7.79004C24.4798 7.71787 24.0051 7.70312 20 7.70312ZM20 12.2969C24.2541 12.2969 27.7031 15.7459 27.7031 20C27.7031 24.2541 24.2541 27.7031 20 27.7031C15.7459 27.7031 12.2969 24.2541 12.2969 20C12.2969 15.7459 15.7459 12.2969 20 12.2969ZM20 15C17.2386 15 15 17.2386 15 20C15 22.7614 17.2385 25 20 25C22.7614 25 25 22.7614 25 20C25 17.2385 22.7614 15 20 15ZM28.0068 10.1934C29.001 10.1934 29.8066 10.999 29.8066 11.9932C29.8065 12.9872 29.0009 13.793 28.0068 13.793C27.0129 13.7929 26.2071 12.9871 26.207 11.9932C26.207 10.9991 27.0129 10.1935 28.0068 10.1934Z" fill="#222222"/>
</svg>
