<svg width="40" height="40" viewBox="0 0 40 40" fill="none" xmlns="http://www.w3.org/2000/svg">
<path d="M31.6667 5H8.33333C6.5 5 5 6.5 5 8.33333V31.6667C5 33.5 6.5 35 8.33333 35H31.6667C33.5 35 35 33.5 35 31.6667V8.33333C35 6.5 33.5 5 31.6667 5ZM13.3333 30H8.33333V15H13.3333V30ZM10.8333 12.8333C9.16667 12.8333 7.83333 11.5 7.83333 9.83333C7.83333 8.16667 9.16667 6.83333 10.8333 6.83333C12.5 6.83333 13.8333 8.16667 13.8333 9.83333C13.8333 11.5 12.5 12.8333 10.8333 12.8333ZM30 30H25V22.5C25 20.5833 24.9167 18.0833 22.25 18.0833C19.5833 18.0833 19.1667 20.1667 19.1667 22.3333V30H14.1667V15H18.9167V17.1667H19C19.6667 15.9167 21.25 14.5833 23.5833 14.5833C28.6667 14.5833 30 18.0833 30 22.5V30Z" fill="white"/>
</svg>