<svg width="40" height="40" viewBox="0 0 40 40" fill="none" xmlns="http://www.w3.org/2000/svg">
<path d="M3.3335 21.1774V18.8174C3.3335 13.9924 3.3335 11.579 4.84183 10.0274C6.35183 8.47406 8.7285 8.40739 13.4802 8.27239C15.7302 8.20906 18.0302 8.16406 20.0002 8.16406C21.9702 8.16406 24.2685 8.20906 26.5202 8.27239C31.2718 8.40739 33.6485 8.47406 35.1568 10.0274C36.6652 11.5807 36.6668 13.994 36.6668 18.8174V21.1757C36.6668 26.0024 36.6668 28.414 35.1585 29.9674C33.6485 31.519 31.2735 31.5874 26.5202 31.7207C24.2702 31.7857 21.9702 31.8307 20.0002 31.8307C18.0302 31.8307 15.7318 31.7857 13.4802 31.7207C8.7285 31.5874 6.35183 31.5207 4.84183 29.9674C3.33183 28.414 3.3335 26.0007 3.3335 21.1774Z" fill="white" stroke="white" stroke-width="1.5"/>
<path d="M23.3333 19.9975L17.5 23.3308V16.6641L23.3333 19.9975Z" fill="#090909" stroke="black" stroke-width="1.5" stroke-linecap="round" stroke-linejoin="round"/>
</svg>
