<svg width="40" height="40" viewBox="0 0 40 40" fill="none" xmlns="http://www.w3.org/2000/svg">
<path d="M3.3335 21.18V18.82C3.3335 13.995 3.3335 11.5816 4.84183 10.03C6.35183 8.47663 8.7285 8.40996 13.4802 8.27496C15.7302 8.21163 18.0302 8.16663 20.0002 8.16663C21.9702 8.16663 24.2685 8.21163 26.5202 8.27496C31.2718 8.40996 33.6485 8.47663 35.1568 10.03C36.6652 11.5833 36.6668 13.9966 36.6668 18.82V21.1783C36.6668 26.005 36.6668 28.4166 35.1585 29.97C33.6485 31.5216 31.2735 31.59 26.5202 31.7233C24.2702 31.7883 21.9702 31.8333 20.0002 31.8333C18.0302 31.8333 15.7318 31.7883 13.4802 31.7233C8.7285 31.59 6.35183 31.5233 4.84183 29.97C3.33183 28.4166 3.3335 26.0033 3.3335 21.18Z" fill="#222222" stroke="#222222" stroke-width="1.5"/>
<path d="M23.3333 20L17.5 23.3333V16.6666L23.3333 20Z" fill="white" stroke="white" stroke-width="1.5" stroke-linecap="round" stroke-linejoin="round"/>
</svg>
